<svg xmlns="http://www.w3.org/2000/svg" viewBox="0 0 20 20">
	<circle cx="10" cy="10" r="9" stroke-width="0.5" stroke="#000" fill="#ff0"/>
	<path d="M 10.7 2.3 L 10.668 4.039 Q 12.263 4.09 13.7 4.7 L 13.7 6.7 Q 11.851 5.891 10.642 5.942 L 10.668 8.592 C 16.533 9.209 15.453 14.946 10.642 15.1 L 10.642 17.492 L 9.1 17.5 L 9.099 15.203 Q 7.093 15.048 5.446 14.38 L 5.446 12.322 Q 7.839 13.556 9.073 13.325 L 9.099 10.392 C 4.186 10.007 4.057 4.553 9.099 4.116 L 9.1 2.3 Z M 9.094 6.007 C 7.183 6.105 7.026 8.069 9.102 8.314 Z M 10.6 13.3 C 13 12.9 12.9 11.1 10.6 10.6 Z" stroke="#000" stroke-width="0.5" fill="transparent"/>
</svg>