mtllib switch1.mtl
# vertices
v -30.909626441251227 128 -8.282209443282614
v -30.90962644125123 64 -8.282209443282623
v -32 64 -0
v -32 128 -0
v -30.909626441251092 64 8.282209443281143
v -30.909626441251092 128 8.282209443281143
v -27.712812921102582 64 16
v -27.71281292110351 128 16
v -27.712812921099587 128 -16
v -27.712812921099598 64 -16
v -22.627416997967057 64 22.627416997969124
v -22.627416997958825 128 22.627416997978823
v -22.627416997966428 128 -22.627416997974013
v -22.62741699796957 64 -22.627416997969927
v -16 64 27.71281292110667
v -16 128 27.71281292111005
v -16 128 -27.712812921102547
v -16 64 -27.712812921100873
v -8.28220944328521 128 -30.909626441250253
v -8.282209443279289 64 -30.90962644125103
v -8.282209443284836 64 30.909626441250122
v -8.282209443297246 128 30.90962644124836
v 0 128 32
v 0 64 32
v 0 64 -32
v 0 128 -32
v 32 64 -0
v 30.90962644125068 64 8.282209443281547
v 27.712812921102852 64 16
v 22.627416997969515 64 22.627416997968485
v 16 64 27.71281292110118
v 8.282209443282483 64 30.90962644125346
v 8.282209443283628 64 -30.90962644125325
v 16 64 -27.712812921103502
v 22.627416997969526 64 -22.627416997968492
v 27.712812921097388 64 -16
v 30.90962644125134 64 -8.282209443276559
v 30.909626441251973 128 -8.282209443271727
v 27.712812921093207 128 -16
v 22.627416997970567 128 -22.627416997968478
v 16 128 -27.71281292110315
v 8.282209443284444 128 -30.909626441253174
v 8.282209443294471 128 30.90962644125187
v 16 128 27.712812921108803
v 22.627416997970556 128 22.62741699796744
v 27.71281292110314 128 16
v 30.90962644125034 128 8.28220944328298
v 32 128 -0
v -30.909626441248463 64 -8.282209443289657
v -30.909626441248466 0 -8.282209443289666
v -32 0 -0
v -32 64 -0
v -30.909626441253696 0 8.282209443275368
v -30.909626441253696 64 8.28220944327537
v -27.712812921103065 0 16
v -27.712812921103996 64 16
v -27.712812921101424 64 -16
v -27.71281292110143 0 -16
v -22.62741699797759 0 22.627416997956818
v -22.62741699796935 64 22.627416997966527
v -22.627416997965916 64 -22.62741699797176
v -22.627416997969064 0 -22.62741699796767
v -16 0 27.712812921103293
v -16 64 27.71281292110667
v -16 64 -27.712812921102703
v -16 0 -27.712812921101026
v -8.282209443282936 64 -30.90962644125012
v -8.282209443277008 0 -30.9096264412509
v -8.28220944326497 0 30.909626441252872
v -8.282209443277393 64 30.90962644125111
v 0 64 32
v 0 0 32
v 0 0 -32
v 0 64 -32
v 32 0 -0
v 30.90962644125102 0 8.282209443280097
v 27.712812921102568 0 16
v 22.627416997968506 0 22.627416997969505
v 16 0 27.71281292109357
v 8.28220944327056 0 30.909626441255032
v 8.282209443282712 0 -30.90962644125337
v 16 0 -27.712812921103858
v 22.627416997968503 0 -22.627416997968485
v 27.71281292110158 0 -16
v 30.909626441250694 0 -8.282209443281431
v 30.909626441251337 64 -8.282209443276553
v 27.712812921097385 64 -16
v 22.62741699796951 64 -22.62741699796851
v 16 64 -27.71281292110349
v 8.282209443283449 64 -30.909626441253327
v 8.282209443282541 64 30.909626441253444
v 16 64 27.712812921101193
v 22.627416997969544 64 22.62741699796846
v 27.712812921102845 64 16
v 30.909626441250683 64 8.282209443281529
v 32 64 -0

# texture coordinates
vt 0.06470476 1
vt 0.06470476 0.5
vt 0 0.5
vt 0 1
vt -0.06470476 0.5
vt -0.06470476 1
vt -0.125 0.5
vt -0.125 1
vt 0.125 1
vt 0.125 0.5
vt -0.17677669 0.5
vt -0.17677669 1
vt 0.17677669 1
vt 0.17677669 0.5
vt 0.25 0.75
vt 0.24148145 0.6852952
vt 0.21650635 0.625
vt 0.17677669 0.5732233
vt 0.125 0.53349364
vt 0.06470476 0.5085186
vt -0.06470476 0.5085186
vt -0.125 0.53349364
vt -0.17677669 0.5732233
vt -0.21650635 0.625
vt -0.24148145 0.6852952
vt -0.25 0.75
vt -0.24148145 0.8147048
vt -0.21650635 0.875
vt -0.17677669 0.9267767
vt -0.125 0.96650636
vt -0.06470476 0.9914814
vt 0.06470476 0.9914814
vt 0.125 0.96650636
vt 0.17677669 0.9267767
vt 0.21650635 0.875
vt 0.24148145 0.8147048
vt 0.06470476 -0
vt 0 -0
vt -0.06470476 -0
vt -0.125 -0
vt 0.125 -0
vt -0.17677669 -0
vt 0.17677669 -0
vt 0.25 -0.25
vt 0.24148145 -0.31470478
vt 0.21650635 -0.375
vt 0.17677669 -0.4267767
vt 0.125 -0.46650636
vt 0.06470476 -0.49148145
vt 0 -0.5
vt -0.06470476 -0.49148145
vt -0.125 -0.46650636
vt -0.17677669 -0.4267767
vt -0.21650635 -0.375
vt -0.24148145 -0.31470478
vt -0.25 -0.25
vt -0.24148145 -0.18529524
vt -0.21650635 -0.125
vt -0.17677669 -0.07322331
vt -0.125 -0.033493653
vt -0.06470476 -0.008518547
vt 0.06470476 -0.008518547
vt 0.125 -0.033493653
vt 0.17677669 -0.07322331
vt 0.21650635 -0.125
vt 0.24148145 -0.18529524

# normals
vn -0.9914448613738434 5.648348923311738e-17 -0.130526192219801
vn -0.9914448613738248 0 0.13052619221994316
vn -0.9238795325112142 0 0.38268343236526464
vn -0.923879532511163 1.025712328973819e-16 -0.38268343236538843
vn -0.7933533402912455 9.808191777421902e-15 0.6087614290087071
vn -0.7933533402912 8.807991450545671e-17 -0.6087614290087666
vn -0.6087614290090514 -4.192603930458584e-14 0.7933533402909813
vn -0.6087614290086858 -2.0786859823289404e-14 -0.7933533402912618
vn -0.3826834323653381 -2.420151385729235e-14 -0.9238795325111838
vn -0.38268343236484154 -4.8821670046558624e-14 0.9238795325113895
vn -0.13052619221996198 1.970277006778989e-15 0.9914448613738224
vn -0.13052619221996198 0 -0.9914448613738224
vn 0 -1 -0
vn 0 1 -0
vn 0.13052619221963932 0 0.9914448613738647
vn 0.13052619221964018 0 -0.9914448613738647
vn 0.3826834323653158 -3.8977068501006395e-15 -0.9238795325111931
vn 0.3826834323655634 -4.868212260257044e-14 0.9238795325110907
vn 0.6087614290087696 3.056753534969176e-15 0.7933533402911975
vn 0.608761429008994 -9.799983847347718e-15 -0.7933533402910254
vn 0.7933533402911414 -2.910560974600882e-15 0.6087614290088429
vn 0.7933533402911559 -1.2771913683066178e-14 -0.6087614290088238
vn 0.9238795325112328 1.9795801697114265e-14 -0.3826834323652201
vn 0.9238795325112852 -3.743805559112955e-15 0.38268343236509356
vn 0.9914448613738198 2.329113291318427e-15 0.13052619221997974
vn 0.9914448613738199 0 -0.13052619221997985
vn -0.9914448613738434 6.312860561348417e-17 -0.13052619221980105
vn -0.9914448613738248 -7.24565919596149e-18 0.1305261922199431
vn -0.9238795325112142 -1.9935349141101293e-17 0.3826834323652648
vn -0.7933533402912456 9.834772242943366e-15 0.6087614290087069
vn -0.7933533402912003 8.807991450545675e-17 -0.6087614290087662
vn -0.3826834323653375 -2.4201513857292367e-14 -0.9238795325111843
vn -0.3826834323648416 -4.882167004655863e-14 0.9238795325113895
vn -0.13052619221996195 1.9669544485888045e-15 0.9914448613738224
vn -0.13052619221996195 0 -0.9914448613738224
vn 0.1305261922196393 0 0.9914448613738649
vn 0.1305261922196393 0 -0.9914448613738649
vn 0.382683432365316 -3.846421233651947e-15 -0.9238795325111931
vn 0.38268343236556357 -4.863560678790789e-14 0.9238795325110906
vn 0.6087614290087694 3.0301730694477058e-15 0.7933533402911978
vn 0.6087614290089944 -9.833776895097202e-15 -0.793353340291025
vn 0.7933533402911418 -2.937141440122351e-15 0.6087614290088424
vn 0.7933533402911558 -1.281178438134838e-14 -0.6087614290088241
vn 0.9238795325112328 1.9842317511776835e-14 -0.38268343236521973
vn 0.9238795325112852 -3.7119407622813865e-15 0.38268343236509367
vn 0.9914448613738198 2.3390809658889756e-15 0.1305261922199797

o entity0_brush0
usemtl editor/green-gradient
f  1/1/1  2/2/1  3/3/1  4/4/1
usemtl editor/green-gradient
f  4/4/2  3/3/2  5/5/2  6/6/2
usemtl editor/green-gradient
f  6/6/3  5/5/3  7/7/3  8/8/3
usemtl editor/green-gradient
f  9/9/4  10/10/4  2/2/4  1/1/4
usemtl editor/green-gradient
f  8/8/5  7/7/5  11/11/5  12/12/5
usemtl editor/green-gradient
f  13/13/6  14/14/6  10/10/6  9/9/6
usemtl editor/green-gradient
f  12/12/7  11/11/7  15/7/7  16/8/7
usemtl editor/green-gradient
f  17/8/8  18/7/8  14/11/8  13/12/8
usemtl editor/green-gradient
f  19/6/9  20/5/9  18/7/9  17/8/9
usemtl editor/green-gradient
f  16/8/10  15/7/10  21/5/10  22/6/10
usemtl editor/green-gradient
f  23/4/11  22/6/11  21/5/11  24/3/11
usemtl editor/green-gradient
f  25/3/12  20/5/12  19/6/12  26/4/12
usemtl editor/green-gradient
f  27/15/13  28/16/13  29/17/13  30/18/13  31/19/13  32/20/13  24/3/13  21/21/13  15/22/13  11/23/13  7/24/13  5/25/13  3/26/13  2/27/13  10/28/13  14/29/13  18/30/13  20/31/13  25/4/13  33/32/13  34/33/13  35/34/13  36/35/13  37/36/13
usemtl editor/green-gradient
f  38/36/14  39/35/14  40/34/14  41/33/14  42/32/14  26/4/14  19/31/14  17/30/14  13/29/14  9/28/14  1/27/14  4/26/14  6/25/14  8/24/14  12/23/14  16/22/14  22/21/14  23/3/14  43/20/14  44/19/14  45/18/14  46/17/14  47/16/14  48/15/14
usemtl editor/green-gradient
f  43/1/15  23/4/15  24/3/15  32/2/15
usemtl editor/green-gradient
f  33/2/16  25/3/16  26/4/16  42/1/16
usemtl editor/green-gradient
f  34/10/17  33/2/17  42/1/17  41/9/17
usemtl editor/green-gradient
f  44/9/18  43/1/18  32/2/18  31/10/18
usemtl editor/green-gradient
f  45/13/19  44/9/19  31/10/19  30/14/19
usemtl editor/green-gradient
f  35/14/20  34/10/20  41/9/20  40/13/20
usemtl editor/green-gradient
f  46/8/21  45/12/21  30/11/21  29/7/21
usemtl editor/green-gradient
f  36/10/22  35/14/22  40/13/22  39/9/22
usemtl editor/green-gradient
f  37/2/23  36/10/23  39/9/23  38/1/23
usemtl editor/green-gradient
f  47/6/24  46/8/24  29/7/24  28/5/24
usemtl editor/green-gradient
f  48/4/25  47/6/25  28/5/25  27/3/25
usemtl editor/green-gradient
f  48/4/26  27/3/26  37/2/26  38/1/26

o entity0_brush1
usemtl editor/green-gradient
f  49/2/27  50/37/27  51/38/27  52/3/27
usemtl editor/green-gradient
f  52/3/28  51/38/28  53/39/28  54/5/28
usemtl editor/green-gradient
f  54/5/29  53/39/29  55/40/29  56/7/29
usemtl editor/green-gradient
f  57/10/4  58/41/4  50/37/4  49/2/4
usemtl editor/green-gradient
f  56/7/30  55/40/30  59/42/30  60/11/30
usemtl editor/green-gradient
f  61/14/31  62/43/31  58/41/31  57/10/31
usemtl editor/green-gradient
f  60/11/7  59/42/7  63/40/7  64/7/7
usemtl editor/green-gradient
f  65/7/8  66/40/8  62/42/8  61/11/8
usemtl editor/green-gradient
f  67/5/32  68/39/32  66/40/32  65/7/32
usemtl editor/green-gradient
f  64/7/33  63/40/33  69/39/33  70/5/33
usemtl editor/green-gradient
f  71/3/34  70/5/34  69/39/34  72/38/34
usemtl editor/green-gradient
f  73/38/35  68/39/35  67/5/35  74/3/35
usemtl editor/green-gradient
f  75/44/13  76/45/13  77/46/13  78/47/13  79/48/13  80/49/13  72/50/13  69/51/13  63/52/13  59/53/13  55/54/13  53/55/13  51/56/13  50/57/13  58/58/13  62/59/13  66/60/13  68/61/13  73/38/13  81/62/13  82/63/13  83/64/13  84/65/13  85/66/13
usemtl editor/green-gradient
f  86/66/14  87/65/14  88/64/14  89/63/14  90/62/14  74/38/14  67/61/14  65/60/14  61/59/14  57/58/14  49/57/14  52/56/14  54/55/14  56/54/14  60/53/14  64/52/14  70/51/14  71/50/14  91/49/14  92/48/14  93/47/14  94/46/14  95/45/14  96/44/14
usemtl editor/green-gradient
f  91/2/36  71/3/36  72/38/36  80/37/36
usemtl editor/green-gradient
f  81/37/37  73/38/37  74/3/37  90/2/37
usemtl editor/green-gradient
f  82/41/38  81/37/38  90/2/38  89/10/38
usemtl editor/green-gradient
f  92/10/39  91/2/39  80/37/39  79/41/39
usemtl editor/green-gradient
f  93/14/40  92/10/40  79/41/40  78/43/40
usemtl editor/green-gradient
f  83/43/41  82/41/41  89/10/41  88/14/41
usemtl editor/green-gradient
f  94/7/42  93/11/42  78/42/42  77/40/42
usemtl editor/green-gradient
f  84/41/43  83/43/43  88/14/43  87/10/43
usemtl editor/green-gradient
f  85/37/44  84/41/44  87/10/44  86/2/44
usemtl editor/green-gradient
f  95/5/45  94/7/45  77/40/45  76/39/45
usemtl editor/green-gradient
f  96/3/46  95/5/46  76/39/46  75/38/46
usemtl editor/green-gradient
f  96/3/26  75/38/26  85/37/26  86/2/26

