<svg xmlns="http://www.w3.org/2000/svg" xmlns:xlink="http://www.w3.org/1999/xlink" width="48" height="48"><defs><linearGradient id="c"><stop offset="0" stop-color="#fff"/><stop offset="1" stop-color="#fff" stop-opacity="0"/></linearGradient><linearGradient id="b"><stop offset="0" stop-color="#fff"/><stop offset="1" stop-color="#bcc4d3"/></linearGradient><linearGradient id="a"><stop offset="0" stop-color="#4c566a"/><stop offset="1" stop-color="#2d333f"/></linearGradient><linearGradient xlink:href="#c" id="j" x1="24" x2="24" y1="40" y2="26" gradientUnits="userSpaceOnUse"/><filter id="d" width="1.246" height="1.878" x="-.123" y="-.439" color-interpolation-filters="sRGB"><feGaussianBlur stdDeviation="1.28"/></filter><filter id="f" width="2.008" height="2.008" x="-.504" y="-.504" color-interpolation-filters="sRGB"><feGaussianBlur stdDeviation="2.52"/></filter><filter id="i" width="1.221" height="1.414" x="-.11" y="-.207" color-interpolation-filters="sRGB"><feGaussianBlur stdDeviation="1.655"/></filter><filter id="k" width="1.331" height="1.53" x="-.166" y="-.265" color-interpolation-filters="sRGB"><feGaussianBlur stdDeviation="1.657"/></filter><radialGradient xlink:href="#a" id="e" cx="24.008" cy="13.689" r="20" fx="24.008" fy="13.689" gradientTransform="matrix(1.53 -.0053 .00539 1.55762 -12.806 -7.995)" gradientUnits="userSpaceOnUse"/><radialGradient xlink:href="#b" id="g" cx="24.008" cy="13.689" r="20" fx="24.008" fy="13.689" gradientTransform="matrix(1.53 -.0053 .00539 1.55762 -12.806 -7.995)" gradientUnits="userSpaceOnUse"/><clipPath id="h" clipPathUnits="userSpaceOnUse"><circle cx="24" cy="24" r="18" fill="#5e81ac" fill-rule="evenodd"/></clipPath></defs><g fill-rule="evenodd"><rect width="24" height="7" x="12" y="36" filter="url(#d)" opacity=".35" rx="12" ry="3.5"/><path fill="url(#e)" d="m24 6-13.426 8.993L6 24c0 9.972 8.028 18 18 18l18-18c0-9.972-8.028-18-18-18Z"/><rect width="12" height="12" x="18" y="12" fill="#4c566a" filter="url(#f)" ry="6"/><path fill="url(#g)" d="M24 6C14.028 6 6 14.028 6 24c0 0 3.6-6 18-6Zm0 12v24c9.972 0 18-8.028 18-18 0 0-3.6-6-18-6z"/><path d="M41.959 22.828C41.517 32.428 33.611 39.988 24 40c-9.485-.001-17.341-7.363-17.959-16.828A18 18 0 0 0 6 24c0 9.941 8.059 19.193 18 19.193S42 33.941 42 24c0-.391-.015-.782-.041-1.172z" clip-path="url(#h)" filter="url(#i)" opacity=".3"/><rect width="24" height="15" x="12" y="24" fill="url(#j)" filter="url(#k)" opacity=".3" paint-order="stroke fill markers" rx="12" ry="7.434"/></g></svg>