<?xml version="1.0" encoding="UTF-8" standalone="no"?>
<svg
   xmlns:dc="http://purl.org/dc/elements/1.1/"
   xmlns:cc="http://creativecommons.org/ns#"
   xmlns:rdf="http://www.w3.org/1999/02/22-rdf-syntax-ns#"
   xmlns:svg="http://www.w3.org/2000/svg"
   xmlns="http://www.w3.org/2000/svg"
   xmlns:sodipodi="http://sodipodi.sourceforge.net/DTD/sodipodi-0.dtd"
   xmlns:inkscape="http://www.inkscape.org/namespaces/inkscape"
   version="1.1"
   id="svg2"
   width="256"
   height="256"
   viewBox="0 0 256 256"
   sodipodi:docname="teleporter.svg"
   inkscape:version="1.0.1 (3bc2e813f5, 2020-09-07)">
  <metadata
     id="metadata8">
    <rdf:RDF>
      <cc:Work
         rdf:about="">
        <dc:format>image/svg+xml</dc:format>
        <dc:type
           rdf:resource="http://purl.org/dc/dcmitype/StillImage" />
        <dc:title></dc:title>
      </cc:Work>
    </rdf:RDF>
  </metadata>
  <defs
     id="defs6" />
  <sodipodi:namedview
     pagecolor="#ffffff"
     bordercolor="#666666"
     borderopacity="1"
     objecttolerance="10"
     gridtolerance="10"
     guidetolerance="10"
     inkscape:pageopacity="0"
     inkscape:pageshadow="2"
     inkscape:window-width="1920"
     inkscape:window-height="1010"
     id="namedview4"
     showgrid="false"
     inkscape:zoom="3.7607788"
     inkscape:cx="118.43363"
     inkscape:cy="133.32533"
     inkscape:window-x="0"
     inkscape:window-y="34"
     inkscape:window-maximized="1"
     inkscape:current-layer="g10"
     inkscape:document-rotation="0" />
  <g
     inkscape:groupmode="layer"
     inkscape:label="Image"
     id="g10">
    <circle
       style="fill:#ffffff;fill-opacity:1;stroke:#000000;stroke-width:8.5;stroke-linecap:round;stroke-linejoin:round;stroke-miterlimit:4;stroke-dasharray:none;stroke-opacity:0.999947;paint-order:normal"
       id="path2227"
       cx="128"
       cy="128"
       r="68.5" />
    <path
       id="path2233"
       style="fill:none;fill-rule:evenodd;stroke:#000000;stroke-width:8.5;stroke-linecap:butt;stroke-linejoin:miter;stroke-miterlimit:4;stroke-dasharray:none;stroke-opacity:1"
       d="m 127.93128,128.67001 c -0.1524,3.40867 -4.67,1.47629 -5.66543,-0.2533 -2.69754,-4.68706 1.72012,-9.87661 6.17203,-11.07756 7.96343,-2.14822 15.23567,4.53283 16.4897,12.09077 1.84034,11.09158 -7.36139,20.69181 -18.0095,21.90182 -14.19227,1.61276 -26.18563,-10.19264 -27.313955,-23.92823 -1.419886,-17.28485 13.024465,-31.698172 29.846965,-32.726085 20.3743,-1.244939 37.22142,15.856475 38.13821,35.765695 1.08041,23.46233 -18.68857,42.75138 -41.68443,43.55034 C 99.355245,174.9159 77.619069,152.47273 76.9424,126.3903 76.173525,96.753787 101.29534,72.566941 130.4643,72.0157 c 32.72315,-0.618409 59.3632,27.185192 59.78673,59.44063 0.4702,35.80965 -30.01748,64.66529 -65.35936,64.9594"
       sodipodi:nodetypes="csssssssssssc" />
    <circle
       style="fill:#000000;fill-opacity:1;stroke:none;stroke-width:9;stroke-linecap:round;stroke-linejoin:round;stroke-miterlimit:4;stroke-dasharray:none;stroke-opacity:0.999947;paint-order:normal"
       id="path2236"
       cx="127.5443"
       cy="128.8786"
       r="4.8894424" />
  </g>
</svg>
