# Blender v2.69 (sub 0) OBJ File: ''
# www.blender.org
o Sphere
v -0.009248 0.022327 -0.000000
v -0.017089 0.017089 -0.000000
v -0.022327 0.009248 -0.000000
v -0.024167 -0.000000 -0.000000
v -0.022327 -0.009248 -0.000000
v -0.017089 -0.017089 -0.000000
v -0.009248 -0.022327 -0.000000
v -0.000000 -0.024167 -0.000000
v -0.008544 0.022327 -0.003539
v -0.015788 0.017089 -0.006540
v -0.020628 0.009248 -0.008544
v -0.022327 -0.000000 -0.009248
v -0.020628 -0.009248 -0.008544
v -0.015788 -0.017089 -0.006540
v -0.008544 -0.022327 -0.003539
v -0.006540 0.022327 -0.006540
v -0.012084 0.017089 -0.012083
v -0.015788 0.009248 -0.015788
v -0.017089 -0.000000 -0.017089
v -0.015788 -0.009248 -0.015788
v -0.012084 -0.017089 -0.012083
v -0.006540 -0.022327 -0.006540
v -0.003539 0.022327 -0.008544
v -0.006540 0.017089 -0.015788
v -0.008544 0.009248 -0.020628
v -0.009248 -0.000000 -0.022327
v -0.008544 -0.009248 -0.020628
v -0.006540 -0.017089 -0.015788
v -0.003539 -0.022327 -0.008544
v -0.000000 0.022327 -0.009248
v -0.000000 0.017089 -0.017089
v -0.000000 0.009248 -0.022327
v -0.000000 -0.000000 -0.024167
v -0.000000 -0.009248 -0.022327
v -0.000000 -0.017089 -0.017089
v -0.000000 -0.022327 -0.009248
v -0.000000 0.024167 -0.000000
v 0.003539 0.022327 -0.008544
v 0.006539 0.017089 -0.015788
v 0.008544 0.009248 -0.020628
v 0.009248 -0.000000 -0.022327
v 0.008544 -0.009248 -0.020628
v 0.006539 -0.017089 -0.015788
v 0.003539 -0.022327 -0.008544
v 0.006539 0.022327 -0.006540
v 0.012083 0.017089 -0.012083
v 0.015788 0.009248 -0.015788
v 0.017088 -0.000000 -0.017089
v 0.015788 -0.009248 -0.015788
v 0.012083 -0.017089 -0.012083
v 0.006539 -0.022327 -0.006540
v 0.008544 0.022327 -0.003539
v 0.015788 0.017089 -0.006540
v 0.020627 0.009248 -0.008544
v 0.022327 -0.000000 -0.009248
v 0.020627 -0.009248 -0.008544
v 0.015788 -0.017089 -0.006540
v 0.008544 -0.022327 -0.003539
v 0.009248 0.022327 -0.000000
v 0.017088 0.017089 -0.000000
v 0.022327 0.009248 -0.000000
v 0.024167 -0.000000 -0.000000
v 0.022327 -0.009248 -0.000000
v 0.017088 -0.017089 -0.000000
v 0.009248 -0.022327 -0.000000
v 0.008544 0.022327 0.003539
v 0.015788 0.017089 0.006539
v 0.020627 0.009248 0.008544
v 0.022327 -0.000000 0.009248
v 0.020627 -0.009248 0.008544
v 0.015788 -0.017089 0.006539
v 0.008544 -0.022327 0.003539
v 0.006539 0.022327 0.006539
v 0.012083 0.017089 0.012083
v 0.015788 0.009248 0.015788
v 0.017088 -0.000000 0.017088
v 0.015788 -0.009248 0.015788
v 0.012083 -0.017089 0.012083
v 0.006539 -0.022327 0.006539
v 0.003539 0.022327 0.008544
v 0.006539 0.017089 0.015788
v 0.008544 0.009248 0.020628
v 0.009248 -0.000000 0.022327
v 0.008544 -0.009248 0.020628
v 0.006539 -0.017089 0.015788
v 0.003539 -0.022327 0.008544
v -0.000000 0.022327 0.009248
v -0.000000 0.017089 0.017088
v -0.000000 0.009248 0.022327
v -0.000000 -0.000000 0.024167
v -0.000000 -0.009248 0.022327
v -0.000000 -0.017089 0.017088
v -0.000000 -0.022327 0.009248
v -0.003539 0.022327 0.008544
v -0.006540 0.017089 0.015788
v -0.008544 0.009248 0.020628
v -0.009248 -0.000000 0.022327
v -0.008544 -0.009248 0.020628
v -0.006540 -0.017089 0.015788
v -0.003539 -0.022327 0.008544
v -0.006540 0.022327 0.006539
v -0.012084 0.017089 0.012083
v -0.015788 0.009248 0.015788
v -0.017089 -0.000000 0.017088
v -0.015788 -0.009248 0.015788
v -0.012084 -0.017089 0.012083
v -0.006540 -0.022327 0.006539
v -0.008544 0.022327 0.003539
v -0.015788 0.017089 0.006539
v -0.020628 0.009248 0.008544
v -0.022327 -0.000000 0.009248
v -0.020628 -0.009248 0.008544
v -0.015788 -0.017089 0.006539
v -0.008544 -0.022327 0.003539
vt 0.400680 0.476605
vt 0.399311 0.516388
vt 0.295440 0.454709
vt 0.293704 0.536432
vt 0.169702 0.431669
vt 0.168725 0.563265
vt 0.000100 0.400519
vt 0.076228 0.216782
vt 0.220978 0.310466
vt 0.295441 0.454710
vt 0.328322 0.379872
vt 0.400681 0.476607
vt 0.413271 0.553666
vt 0.323375 0.612598
vt 0.218182 0.685214
vt 0.000132 0.599401
vt 0.216859 0.076182
vt 0.314732 0.218117
vt 0.387341 0.323315
vt 0.417171 0.440376
vt 0.440435 0.582765
vt 0.379934 0.671611
vt 0.310539 0.778952
vt 0.076263 0.783111
vt 0.400573 0.000100
vt 0.436684 0.168676
vt 0.463509 0.293649
vt 0.446271 0.413213
vt 0.476667 0.599254
vt 0.454771 0.704490
vt 0.431733 0.830214
vt 0.216886 0.923697
vt 0.599411 0.000102
vt 0.568270 0.169664
vt 0.545231 0.295388
vt 0.483551 0.399254
vt 0.516451 0.600624
vt 0.536493 0.706228
vt 0.563319 0.831201
vt 0.400593 0.999777
vt 0.783117 0.076183
vt 0.689464 0.220927
vt 0.620068 0.328267
vt 0.523335 0.400624
vt 0.553730 0.586664
vt 0.612661 0.676562
vt 0.685271 0.781760
vt 0.599431 0.999777
vt 0.923739 0.216770
vt 0.781820 0.314666
vt 0.676627 0.387281
vt 0.559566 0.417113
vt 0.582830 0.559502
vt 0.671679 0.620005
vt 0.779024 0.689410
vt 0.783144 0.923693
vt 0.999869 0.400479
vt 0.831276 0.436615
vt 0.706298 0.463447
vt 0.586730 0.446212
vt 0.599320 0.523271
vt 0.704560 0.545167
vt 0.830298 0.568207
vt 0.923774 0.783093
vt 0.999900 0.599360
vt 0.830299 0.568211
vt 0.704562 0.545170
vt 0.600690 0.483491
vt 0.600688 0.483488
vt 0.706296 0.463444
vt 0.831274 0.436611
vt 0.999900 0.599357
vt 0.923774 0.783095
vt 0.779025 0.689413
vt 0.671681 0.620008
vt 0.599321 0.523273
vt 0.586728 0.446210
vt 0.676624 0.387278
vt 0.781817 0.314662
vt 0.999867 0.400474
vt 0.783145 0.923696
vt 0.685272 0.781762
vt 0.612662 0.676565
vt 0.582832 0.559504
vt 0.559564 0.417111
vt 0.620065 0.328265
vt 0.689460 0.220924
vt 0.923736 0.216765
vt 0.599432 0.999780
vt 0.563320 0.831204
vt 0.536494 0.706231
vt 0.553732 0.586667
vt 0.523332 0.400622
vt 0.545229 0.295386
vt 0.568267 0.169662
vt 0.783113 0.076179
vt 0.400594 0.999780
vt 0.431733 0.830217
vt 0.454772 0.704492
vt 0.516452 0.600626
vt 0.483549 0.399253
vt 0.463506 0.293648
vt 0.436680 0.168675
vt 0.599406 0.000100
vt 0.216886 0.923700
vt 0.310539 0.778954
vt 0.379935 0.671613
vt 0.476668 0.599257
vt 0.446269 0.413212
vt 0.387338 0.323314
vt 0.314729 0.218117
vt 0.400569 0.000100
vt 0.076263 0.783113
vt 0.218183 0.685215
vt 0.323376 0.612599
vt 0.440436 0.582767
vt 0.417169 0.440374
vt 0.328320 0.379871
vt 0.220976 0.310466
vt 0.216856 0.076183
vt 0.000131 0.599402
vt 0.168725 0.563266
vt 0.293705 0.536433
vt 0.413273 0.553668
vt 0.500000 0.499938
vt 0.500001 0.499940
vt 0.399313 0.516390
vt 0.076226 0.216783
vn 0.403088 0.915159 0.000000
vn 0.372387 0.915159 0.154241
vn 0.718833 0.695151 0.000000
vn 0.664113 0.695151 0.275094
vn 0.927274 0.374340 0.000000
vn 0.856685 0.374340 0.354839
vn 1.000000 0.000000 0.000000
vn 0.923856 0.000000 0.382672
vn 0.927274 -0.374340 0.000000
vn 0.856685 -0.374340 0.354839
vn 0.718833 -0.695151 0.000000
vn 0.664113 -0.695151 0.275094
vn 0.403088 -0.915159 0.000000
vn 0.285012 0.915159 0.285012
vn 0.508286 0.695151 0.508286
vn 0.655660 0.374340 0.655660
vn 0.707083 0.000000 0.707083
vn 0.655660 -0.374340 0.655660
vn 0.508286 -0.695151 0.508286
vn 0.372387 -0.915159 0.154241
vn 0.154241 0.915159 0.372387
vn 0.275094 0.695151 0.664113
vn 0.354839 0.374340 0.856685
vn 0.382672 0.000000 0.923856
vn 0.354839 -0.374340 0.856685
vn 0.275094 -0.695151 0.664113
vn 0.285012 -0.915159 0.285012
vn 0.000000 0.915159 0.403088
vn 0.000000 0.695151 0.718833
vn 0.000000 0.374340 0.927274
vn 0.000000 0.000000 1.000000
vn 0.000000 -0.374340 0.927274
vn 0.000000 -0.695151 0.718833
vn 0.154241 -0.915159 0.372387
vn -0.154241 0.915159 0.372387
vn -0.275094 0.695151 0.664113
vn -0.354839 0.374340 0.856685
vn -0.382672 0.000000 0.923856
vn -0.354839 -0.374340 0.856685
vn -0.275094 -0.695151 0.664113
vn 0.000000 -0.915159 0.403088
vn -0.285012 0.915159 0.285012
vn -0.508286 0.695151 0.508286
vn -0.655660 0.374340 0.655660
vn -0.707083 0.000000 0.707083
vn -0.655660 -0.374340 0.655660
vn -0.508286 -0.695151 0.508286
vn -0.154241 -0.915159 0.372387
vn -0.372387 0.915159 0.154241
vn -0.664113 0.695151 0.275094
vn -0.856685 0.374340 0.354839
vn -0.923856 0.000000 0.382672
vn -0.856685 -0.374340 0.354839
vn -0.664113 -0.695151 0.275094
vn -0.285012 -0.915159 0.285012
vn -0.403088 0.915159 0.000000
vn -0.718833 0.695151 0.000000
vn -0.927274 0.374340 0.000000
vn -1.000000 0.000000 0.000000
vn -0.927274 -0.374340 0.000000
vn -0.718833 -0.695151 0.000000
vn -0.372387 -0.915159 0.154241
vn -0.372387 0.915159 -0.154241
vn -0.664113 0.695151 -0.275094
vn -0.856685 0.374340 -0.354839
vn -0.923856 0.000000 -0.382672
vn -0.856685 -0.374340 -0.354839
vn -0.664113 -0.695151 -0.275094
vn -0.403088 -0.915159 0.000000
vn -0.285012 0.915159 -0.285012
vn -0.508286 0.695151 -0.508286
vn -0.655660 0.374340 -0.655660
vn -0.707083 0.000000 -0.707083
vn -0.655660 -0.374340 -0.655660
vn -0.508286 -0.695151 -0.508286
vn -0.372387 -0.915159 -0.154241
vn -0.154241 0.915159 -0.372387
vn -0.275094 0.695151 -0.664113
vn -0.354839 0.374340 -0.856685
vn -0.382672 0.000000 -0.923856
vn -0.354839 -0.374340 -0.856685
vn -0.275094 -0.695151 -0.664113
vn -0.285012 -0.915159 -0.285012
vn 0.000000 0.915159 -0.403088
vn 0.000000 0.695151 -0.718833
vn 0.000000 0.374340 -0.927274
vn 0.000000 0.000000 -1.000000
vn 0.000000 -0.374340 -0.927274
vn 0.000000 -0.695151 -0.718833
vn -0.154241 -0.915159 -0.372387
vn 0.154241 0.915159 -0.372387
vn 0.275094 0.695151 -0.664113
vn 0.354839 0.374340 -0.856685
vn 0.382672 0.000000 -0.923856
vn 0.354839 -0.374340 -0.856685
vn 0.275094 -0.695151 -0.664113
vn 0.000000 -0.915159 -0.403088
vn 0.285012 0.915159 -0.285012
vn 0.508286 0.695151 -0.508286
vn 0.655660 0.374340 -0.655660
vn 0.707083 0.000000 -0.707083
vn 0.655660 -0.374340 -0.655660
vn 0.508286 -0.695151 -0.508286
vn 0.154241 -0.915159 -0.372387
vn 0.372387 0.915159 -0.154241
vn 0.664113 0.695151 -0.275094
vn 0.856685 0.374340 -0.354839
vn 0.923856 0.000000 -0.382672
vn 0.856685 -0.374340 -0.354839
vn 0.664113 -0.695151 -0.275094
vn 0.285012 -0.915159 -0.285012
vn 0.000000 1.000000 0.000000
vn 0.000000 -0.999969 0.000000
vn 0.372387 -0.915159 -0.154241
s 1
f 7/1/1 15/2/2 6/3/3
f 6/3/3 14/4/4 5/5/5
f 5/5/5 13/6/6 4/7/7
f 4/7/7 12/8/8 3/5/9
f 3/5/9 11/9/10 2/10/11
f 2/10/11 10/11/12 1/12/13
f 15/2/2 22/13/14 14/4/4
f 14/4/4 21/14/15 13/6/6
f 13/6/6 20/15/16 12/16/8
f 12/8/8 19/17/17 11/9/10
f 11/9/10 18/18/18 10/11/12
f 10/11/12 17/19/19 9/20/20
f 22/13/14 29/21/21 21/14/15
f 21/14/15 28/22/22 20/15/16
f 20/15/16 27/23/23 19/24/17
f 19/17/17 26/25/24 18/18/18
f 18/18/18 25/26/25 17/19/19
f 17/19/19 24/27/26 16/28/27
f 29/21/21 36/29/28 28/22/22
f 28/22/22 35/30/29 27/23/23
f 27/23/23 34/31/30 26/32/24
f 26/25/24 33/33/31 25/26/25
f 25/26/25 32/34/32 24/27/26
f 24/27/26 31/35/33 23/36/34
f 36/29/28 44/37/35 35/30/29
f 35/30/29 43/38/36 34/31/30
f 34/31/30 42/39/37 33/40/31
f 33/33/31 41/41/38 32/34/32
f 32/34/32 40/42/39 31/35/33
f 31/35/33 39/43/40 30/44/41
f 44/37/35 51/45/42 43/38/36
f 43/38/36 50/46/43 42/39/37
f 42/39/37 49/47/44 41/48/38
f 41/41/38 48/49/45 40/42/39
f 40/42/39 47/50/46 39/43/40
f 39/43/40 46/51/47 38/52/48
f 51/45/42 58/53/49 50/46/43
f 50/46/43 57/54/50 49/47/44
f 49/47/44 56/55/51 48/56/45
f 48/49/45 55/57/52 47/50/46
f 47/50/46 54/58/53 53/59/54
f 46/51/47 53/59/54 45/60/55
f 58/53/49 65/61/56 57/54/50
f 57/54/50 64/62/57 56/55/51
f 56/55/51 63/63/58 55/64/52
f 55/57/52 62/65/59 54/58/53
f 54/58/53 61/66/60 53/59/54
f 53/59/54 60/67/61 52/68/62
f 65/61/56 72/69/63 64/62/57
f 64/62/57 71/70/64 63/63/58
f 63/63/58 70/71/65 62/72/59
f 62/65/59 69/73/66 61/66/60
f 61/66/60 68/74/67 60/67/61
f 60/67/61 67/75/68 59/76/69
f 72/69/63 79/77/70 71/70/64
f 71/70/64 78/78/71 70/71/65
f 70/71/65 77/79/72 69/80/66
f 69/73/66 76/81/73 68/74/67
f 68/74/67 75/82/74 67/75/68
f 67/75/68 74/83/75 66/84/76
f 79/77/70 86/85/77 78/78/71
f 78/78/71 85/86/78 77/79/72
f 77/79/72 84/87/79 76/88/73
f 76/81/73 83/89/80 75/82/74
f 75/82/74 82/90/81 74/83/75
f 74/83/75 81/91/82 73/92/83
f 86/85/77 93/93/84 85/86/78
f 85/86/78 92/94/85 84/87/79
f 84/87/79 91/95/86 83/96/80
f 83/89/80 90/97/87 82/90/81
f 82/90/81 89/98/88 81/91/82
f 81/91/82 88/99/89 80/100/90
f 93/93/84 100/101/91 92/94/85
f 92/94/85 99/102/92 91/95/86
f 91/95/86 98/103/93 90/104/87
f 90/97/87 97/105/94 89/98/88
f 89/98/88 96/106/95 88/99/89
f 88/99/89 95/107/96 87/108/97
f 100/101/91 107/109/98 99/102/92
f 99/102/92 106/110/99 98/103/93
f 98/103/93 105/111/100 97/112/94
f 97/105/94 104/113/101 96/106/95
f 96/106/95 103/114/102 95/107/96
f 95/107/96 102/115/103 94/116/104
f 107/109/98 114/117/105 106/110/99
f 106/110/99 113/118/106 105/111/100
f 105/111/100 112/119/107 104/120/101
f 104/113/101 111/121/108 103/114/102
f 103/114/102 110/122/109 102/115/103
f 102/115/103 109/123/110 101/124/111
f 8/125/112 15/2/2 7/1/1
f 1/12/13 9/20/20 37/126/113
f 8/125/112 22/13/14 15/2/2
f 9/20/20 16/28/27 37/126/113
f 8/125/112 29/21/21 22/13/14
f 16/28/27 23/36/34 37/126/113
f 8/125/112 36/29/28 29/21/21
f 23/36/34 30/44/41 37/126/113
f 8/125/112 44/37/35 36/29/28
f 30/44/41 38/52/48 37/126/113
f 8/125/112 51/45/42 44/37/35
f 38/52/48 45/60/55 37/126/113
f 8/125/112 58/53/49 51/45/42
f 45/60/55 52/68/62 37/126/113
f 8/125/112 65/61/56 58/53/49
f 52/68/62 59/76/69 37/126/113
f 8/125/112 72/69/63 65/61/56
f 59/76/69 66/84/76 37/126/113
f 8/125/112 79/77/70 72/69/63
f 66/84/76 73/92/83 37/126/113
f 8/125/112 86/85/77 79/77/70
f 73/92/83 80/100/90 37/126/113
f 8/125/112 93/93/84 86/85/77
f 80/100/90 87/108/97 37/126/113
f 8/125/112 100/101/91 93/93/84
f 87/108/97 94/116/104 37/126/113
f 8/125/112 107/109/98 100/101/91
f 94/116/104 101/124/111 37/126/113
f 8/125/112 114/117/105 107/109/98
f 101/124/111 108/127/114 37/126/113
f 8/125/112 7/1/1 114/117/105
f 114/117/105 7/1/1 113/118/106
f 113/118/106 6/3/3 5/5/5
f 112/119/107 5/5/5 111/128/108
f 111/121/108 4/7/7 110/122/109
f 110/122/109 3/5/9 109/123/110
f 109/123/110 2/10/11 108/127/114
f 108/127/114 1/12/13 37/126/113
f 15/2/2 14/4/4 6/3/3
f 14/4/4 13/6/6 5/5/5
f 13/6/6 12/16/8 4/7/7
f 12/8/8 11/9/10 3/5/9
f 11/9/10 10/11/12 2/10/11
f 10/11/12 9/20/20 1/12/13
f 22/13/14 21/14/15 14/4/4
f 21/14/15 20/15/16 13/6/6
f 20/15/16 19/24/17 12/16/8
f 19/17/17 18/18/18 11/9/10
f 18/18/18 17/19/19 10/11/12
f 17/19/19 16/28/27 9/20/20
f 29/21/21 28/22/22 21/14/15
f 28/22/22 27/23/23 20/15/16
f 27/23/23 26/32/24 19/24/17
f 26/25/24 25/26/25 18/18/18
f 25/26/25 24/27/26 17/19/19
f 24/27/26 23/36/34 16/28/27
f 36/29/28 35/30/29 28/22/22
f 35/30/29 34/31/30 27/23/23
f 34/31/30 33/40/31 26/32/24
f 33/33/31 32/34/32 25/26/25
f 32/34/32 31/35/33 24/27/26
f 31/35/33 30/44/41 23/36/34
f 44/37/35 43/38/36 35/30/29
f 43/38/36 42/39/37 34/31/30
f 42/39/37 41/48/38 33/40/31
f 41/41/38 40/42/39 32/34/32
f 40/42/39 39/43/40 31/35/33
f 39/43/40 38/52/48 30/44/41
f 51/45/42 50/46/43 43/38/36
f 50/46/43 49/47/44 42/39/37
f 49/47/44 48/56/45 41/48/38
f 48/49/45 47/50/46 40/42/39
f 47/50/46 46/51/47 39/43/40
f 46/51/47 45/60/55 38/52/48
f 58/53/49 57/54/50 50/46/43
f 57/54/50 56/55/51 49/47/44
f 56/55/51 55/64/52 48/56/45
f 55/57/52 54/58/53 47/50/46
f 46/51/47 47/50/46 53/59/54
f 53/59/54 52/68/62 45/60/55
f 65/61/56 64/62/57 57/54/50
f 64/62/57 63/63/58 56/55/51
f 63/63/58 62/72/59 55/64/52
f 62/65/59 61/66/60 54/58/53
f 61/66/60 60/67/61 53/59/54
f 60/67/61 59/76/69 52/68/62
f 72/69/63 71/70/64 64/62/57
f 71/70/64 70/71/65 63/63/58
f 70/71/65 69/80/66 62/72/59
f 69/73/66 68/74/67 61/66/60
f 68/74/67 67/75/68 60/67/61
f 67/75/68 66/84/76 59/76/69
f 79/77/70 78/78/71 71/70/64
f 78/78/71 77/79/72 70/71/65
f 77/79/72 76/88/73 69/80/66
f 76/81/73 75/82/74 68/74/67
f 75/82/74 74/83/75 67/75/68
f 74/83/75 73/92/83 66/84/76
f 86/85/77 85/86/78 78/78/71
f 85/86/78 84/87/79 77/79/72
f 84/87/79 83/96/80 76/88/73
f 83/89/80 82/90/81 75/82/74
f 82/90/81 81/91/82 74/83/75
f 81/91/82 80/100/90 73/92/83
f 93/93/84 92/94/85 85/86/78
f 92/94/85 91/95/86 84/87/79
f 91/95/86 90/104/87 83/96/80
f 90/97/87 89/98/88 82/90/81
f 89/98/88 88/99/89 81/91/82
f 88/99/89 87/108/97 80/100/90
f 100/101/91 99/102/92 92/94/85
f 99/102/92 98/103/93 91/95/86
f 98/103/93 97/112/94 90/104/87
f 97/105/94 96/106/95 89/98/88
f 96/106/95 95/107/96 88/99/89
f 95/107/96 94/116/104 87/108/97
f 107/109/98 106/110/99 99/102/92
f 106/110/99 105/111/100 98/103/93
f 105/111/100 104/120/101 97/112/94
f 104/113/101 103/114/102 96/106/95
f 103/114/102 102/115/103 95/107/96
f 102/115/103 101/124/111 94/116/104
f 114/117/105 113/118/106 106/110/99
f 113/118/106 112/119/107 105/111/100
f 112/119/107 111/128/108 104/120/101
f 111/121/108 110/122/109 103/114/102
f 110/122/109 109/123/110 102/115/103
f 109/123/110 108/127/114 101/124/111
f 7/1/1 6/3/3 113/118/106
f 112/119/107 113/118/106 5/5/5
f 5/5/5 4/7/7 111/128/108
f 4/7/7 3/5/9 110/122/109
f 3/5/9 2/10/11 109/123/110
f 2/10/11 1/12/13 108/127/114
