# Exported from Wings 3D 1.4.1
mtllib flag.mtl
o cylinder1
#49 vertices, 94 faces
v 1.2500000e-2 3.00000000 4.7772658e-19
v 1.1548494e-2 3.00000000 4.7835429e-3
v 8.8388348e-3 3.00000000 8.8388348e-3
v 4.7835429e-3 3.00000000 1.1548494e-2
v 6.4627287e-21 3.00000000 1.2500000e-2
v -4.7835429e-3 3.00000000 1.1548494e-2
v -8.8388348e-3 3.00000000 8.8388348e-3
v -1.1548494e-2 3.00000000 4.7835429e-3
v -1.2500000e-2 3.00000000 2.0085351e-18
v -1.1548494e-2 3.00000000 -4.7835429e-3
v -8.8388348e-3 3.00000000 -8.8388348e-3
v -4.7835429e-3 3.00000000 -1.1548494e-2
v -3.0551543e-18 3.00000000 -1.2500000e-2
v 4.7835429e-3 3.00000000 -1.1548494e-2
v 8.8388348e-3 3.00000000 -8.8388348e-3
v 1.1548494e-2 3.00000000 -4.7835429e-3
v 1.2500000e-2 0.0000000e+0 4.7772658e-19
v 1.1548494e-2 0.0000000e+0 4.7835429e-3
v 8.8388348e-3 0.0000000e+0 8.8388348e-3
v 4.7835429e-3 0.0000000e+0 1.1548494e-2
v 6.4627287e-21 0.0000000e+0 1.2500000e-2
v -4.7835429e-3 0.0000000e+0 1.1548494e-2
v -8.8388348e-3 0.0000000e+0 8.8388348e-3
v -1.1548494e-2 0.0000000e+0 4.7835429e-3
v -1.2500000e-2 0.0000000e+0 2.0085351e-18
v -1.1548494e-2 0.0000000e+0 -4.7835429e-3
v -8.8388348e-3 0.0000000e+0 -8.8388348e-3
v -4.7835429e-3 0.0000000e+0 -1.1548494e-2
v -3.0551543e-18 0.0000000e+0 -1.2500000e-2
v 4.7835429e-3 0.0000000e+0 -1.1548494e-2
v 8.8388348e-3 0.0000000e+0 -8.8388348e-3
v 1.1548494e-2 0.0000000e+0 -4.7835429e-3
v 1.2500000e-2 2.50335000 4.7772658e-19
v 1.1548494e-2 2.50335000 4.7835429e-3
v 8.8388348e-3 2.50335000 8.8388348e-3
v 4.7835429e-3 2.50335000 1.1548494e-2
v 6.4627287e-21 2.50335000 1.2500000e-2
v -4.7835429e-3 2.50335000 1.1548494e-2
v -8.8388348e-3 2.50335000 8.8388348e-3
v -1.1548494e-2 2.50335000 4.7835429e-3
v -1.2500000e-2 2.50335000 2.0085351e-18
v -1.1548494e-2 2.50335000 -4.7835429e-3
v -8.8388348e-3 2.50335000 -8.8388348e-3
v -4.7835429e-3 2.50335000 -1.1548494e-2
v -3.0551543e-18 2.50335000 -1.2500000e-2
v 4.7835429e-3 2.50335000 -1.1548494e-2
v 8.8388348e-3 2.50335000 -8.8388348e-3
v 1.1548494e-2 2.50335000 -4.7835429e-3
v 0.81374768 2.75167500 -2.1684043e-19
vn 0.70710678 0.0000000e+0 0.70710678
vn 0.38268343 0.0000000e+0 0.92387953
vn 9.1972853e-17 0.0000000e+0 1.00000000
vn -0.38268343 0.0000000e+0 0.92387953
vn -0.70710678 0.0000000e+0 0.70710678
vn -0.92387953 0.0000000e+0 0.38268343
vn -1.00000000 0.0000000e+0 1.4149670e-17
vn -0.92387953 0.0000000e+0 -0.38268343
vn -0.70710678 0.0000000e+0 -0.70710678
vn -0.38268343 0.0000000e+0 -0.92387953
vn 7.0748349e-18 0.0000000e+0 -1.00000000
vn 0.38268343 0.0000000e+0 -0.92387953
vn 0.70710678 0.0000000e+0 -0.70710678
vn 0.0000000e+0 1.00000000 0.0000000e+0
vn 0.29603158 0.95517815 -2.5370834e-15
vn 0.29603158 0.95517815 -2.5370834e-15
vn 0.0000000e+0 1.00000000 0.0000000e+0
vn 0.83146961 0.0000000e+0 0.55557023
vn 5.9629303e-3 0.0000000e+0 0.99998222
vn 0.29551968 0.95352647 5.8782520e-2
vn 0.0000000e+0 1.00000000 0.0000000e+0
vn 0.70710678 0.0000000e+0 0.70710678
vn 0.70710678 0.0000000e+0 0.70710678
vn 0.0000000e+0 1.00000000 0.0000000e+0
vn 0.0000000e+0 1.00000000 0.0000000e+0
vn 0.0000000e+0 1.00000000 0.0000000e+0
vn 0.70710678 0.0000000e+0 0.70710678
vn 0.70710678 0.0000000e+0 0.70710678
vn 0.38268343 0.0000000e+0 0.92387953
vn 0.38268343 0.0000000e+0 0.92387953
vn 0.0000000e+0 1.00000000 0.0000000e+0
vn 0.0000000e+0 1.00000000 0.0000000e+0
vn 0.0000000e+0 1.00000000 0.0000000e+0
vn 7.7823184e-17 0.0000000e+0 1.00000000
vn 8.4898018e-17 0.0000000e+0 1.00000000
vn 0.0000000e+0 1.00000000 -6.3108872e-30
vn 0.0000000e+0 1.00000000 -6.3108872e-30
vn 0.0000000e+0 1.00000000 -6.3108872e-30
vn 7.7823184e-17 0.0000000e+0 1.00000000
vn 7.7823184e-17 0.0000000e+0 1.00000000
vn -0.38268343 0.0000000e+0 0.92387953
vn -0.38268343 0.0000000e+0 0.92387953
vn 0.0000000e+0 1.00000000 2.6764936e-15
vn 0.0000000e+0 1.00000000 2.6764936e-15
vn 0.0000000e+0 1.00000000 2.6764936e-15
vn -0.70710678 0.0000000e+0 0.70710678
vn -0.70710678 0.0000000e+0 0.70710678
vn 0.0000000e+0 1.00000000 -3.7851336e-15
vn 0.0000000e+0 1.00000000 -3.7851336e-15
vn 0.0000000e+0 1.00000000 -3.7851336e-15
vn -0.70710678 0.0000000e+0 0.70710678
vn -0.70710678 0.0000000e+0 0.70710678
vn -0.92387953 0.0000000e+0 0.38268343
vn -0.92387953 0.0000000e+0 0.38268343
vn 0.0000000e+0 1.00000000 0.0000000e+0
vn 0.0000000e+0 1.00000000 0.0000000e+0
vn 0.0000000e+0 1.00000000 0.0000000e+0
vn -1.00000000 0.0000000e+0 -7.0748349e-18
vn -1.00000000 0.0000000e+0 7.0748349e-18
vn 0.0000000e+0 1.00000000 0.0000000e+0
vn -1.00000000 0.0000000e+0 -7.0748349e-18
vn -1.00000000 0.0000000e+0 0.0000000e+0
vn -0.92387953 0.0000000e+0 -0.38268343
vn -0.92387953 0.0000000e+0 -0.38268343
vn 0.0000000e+0 1.00000000 0.0000000e+0
vn 0.0000000e+0 1.00000000 0.0000000e+0
vn -0.70710678 0.0000000e+0 -0.70710678
vn -0.70710678 0.0000000e+0 -0.70710678
vn 0.0000000e+0 1.00000000 -1.6132136e-14
vn 0.0000000e+0 1.00000000 -1.6132136e-14
vn 0.0000000e+0 1.00000000 -1.6132136e-14
vn -0.70710678 0.0000000e+0 -0.70710678
vn -0.70710678 0.0000000e+0 -0.70710678
vn -0.38268343 0.0000000e+0 -0.92387953
vn -0.38268343 0.0000000e+0 -0.92387953
vn 0.0000000e+0 1.00000000 -3.7851336e-15
vn 0.0000000e+0 1.00000000 -3.7851336e-15
vn 0.0000000e+0 1.00000000 -3.7851336e-15
vn -9.9047688e-17 0.0000000e+0 -1.00000000
vn -9.9047688e-17 0.0000000e+0 -1.00000000
vn 0.0000000e+0 1.00000000 -6.3108872e-30
vn 0.0000000e+0 1.00000000 -6.3108872e-30
vn 0.0000000e+0 1.00000000 -6.3108872e-30
vn -9.9047688e-17 0.0000000e+0 -1.00000000
vn -9.9047688e-17 0.0000000e+0 -1.00000000
vn 0.38268343 0.0000000e+0 -0.92387953
vn 0.38268343 0.0000000e+0 -0.92387953
vn 0.0000000e+0 1.00000000 9.6705086e-15
vn 0.0000000e+0 1.00000000 9.6705086e-15
vn 0.0000000e+0 1.00000000 9.6705086e-15
vn 0.70710678 0.0000000e+0 -0.70710678
vn 0.70710678 0.0000000e+0 -0.70710678
vn 0.0000000e+0 1.00000000 0.0000000e+0
vn 0.0000000e+0 1.00000000 0.0000000e+0
vn 0.0000000e+0 1.00000000 0.0000000e+0
vn 0.70710678 0.0000000e+0 -0.70710678
vn 0.70710678 0.0000000e+0 -0.70710678
vn 0.0000000e+0 1.00000000 0.0000000e+0
vn 0.83146961 0.0000000e+0 -0.55557023
vn 0.29551968 0.95352647 -5.8782520e-2
vn 5.9629303e-3 0.0000000e+0 -0.99998222
vn 0.0000000e+0 1.00000000 0.0000000e+0
vn 0.0000000e+0 1.00000000 0.0000000e+0
vn 1.00000000 0.0000000e+0 -2.0517021e-16
vn 1.00000000 0.0000000e+0 -2.0517021e-16
vn 0.0000000e+0 -1.00000000 0.0000000e+0
vn 0.0000000e+0 -1.00000000 0.0000000e+0
vn 0.0000000e+0 -1.00000000 0.0000000e+0
vn 1.00000000 0.0000000e+0 -2.0517021e-16
vn 1.00000000 0.0000000e+0 -2.0517021e-16
vn 0.92387953 0.0000000e+0 0.38268343
vn 0.92387953 0.0000000e+0 0.38268343
vn 0.0000000e+0 -1.00000000 0.0000000e+0
vn 0.0000000e+0 -1.00000000 0.0000000e+0
vn 0.0000000e+0 -1.00000000 0.0000000e+0
vn 0.70710678 0.0000000e+0 0.70710678
vn 0.70710678 0.0000000e+0 0.70710678
vn 0.0000000e+0 -1.00000000 0.0000000e+0
vn 0.0000000e+0 -1.00000000 0.0000000e+0
vn 0.0000000e+0 -1.00000000 0.0000000e+0
vn 0.70710678 0.0000000e+0 0.70710678
vn 0.70710678 0.0000000e+0 0.70710678
vn 0.0000000e+0 -1.00000000 0.0000000e+0
vn 0.38268343 0.0000000e+0 0.92387953
vn 0.38268343 0.0000000e+0 0.92387953
vn 0.0000000e+0 -1.00000000 0.0000000e+0
vn 0.0000000e+0 -1.00000000 0.0000000e+0
vn 2.1224505e-17 0.0000000e+0 1.00000000
vn 3.5374174e-17 0.0000000e+0 1.00000000
vn 2.8299339e-17 0.0000000e+0 1.00000000
vn 2.1224505e-17 0.0000000e+0 1.00000000
vn 0.0000000e+0 -1.00000000 0.0000000e+0
vn -0.38268343 0.0000000e+0 0.92387953
vn -0.38268343 0.0000000e+0 0.92387953
vn 0.0000000e+0 -1.00000000 0.0000000e+0
vn 0.0000000e+0 -1.00000000 0.0000000e+0
vn -0.70710678 0.0000000e+0 0.70710678
vn -0.70710678 0.0000000e+0 0.70710678
vn 0.0000000e+0 -1.00000000 0.0000000e+0
vn 0.0000000e+0 -1.00000000 0.0000000e+0
vn 0.0000000e+0 -1.00000000 0.0000000e+0
vn -0.70710678 0.0000000e+0 0.70710678
vn -0.70710678 0.0000000e+0 0.70710678
vn -0.92387953 0.0000000e+0 0.38268343
vn -0.92387953 0.0000000e+0 0.38268343
vn 0.0000000e+0 -1.00000000 0.0000000e+0
vn 0.0000000e+0 -1.00000000 0.0000000e+0
vn 0.0000000e+0 -1.00000000 0.0000000e+0
vn -1.00000000 0.0000000e+0 0.0000000e+0
vn -1.00000000 0.0000000e+0 0.0000000e+0
vn 0.0000000e+0 -1.00000000 0.0000000e+0
vn 0.0000000e+0 -1.00000000 0.0000000e+0
vn 0.0000000e+0 -1.00000000 0.0000000e+0
vn -1.00000000 0.0000000e+0 0.0000000e+0
vn -1.00000000 0.0000000e+0 0.0000000e+0
vn -0.92387953 0.0000000e+0 -0.38268343
vn -0.92387953 0.0000000e+0 -0.38268343
vn 0.0000000e+0 -1.00000000 0.0000000e+0
vn 0.0000000e+0 -1.00000000 0.0000000e+0
vn 0.0000000e+0 -1.00000000 0.0000000e+0
vn -0.70710678 0.0000000e+0 -0.70710678
vn -0.70710678 0.0000000e+0 -0.70710678
vn 0.0000000e+0 -1.00000000 0.0000000e+0
vn 0.0000000e+0 -1.00000000 0.0000000e+0
vn 0.0000000e+0 -1.00000000 0.0000000e+0
vn -0.70710678 0.0000000e+0 -0.70710678
vn -0.70710678 0.0000000e+0 -0.70710678
vn -0.38268343 0.0000000e+0 -0.92387953
vn -0.38268343 0.0000000e+0 -0.92387953
vn 0.0000000e+0 -1.00000000 0.0000000e+0
vn 0.0000000e+0 -1.00000000 0.0000000e+0
vn -1.1319736e-16 0.0000000e+0 -1.00000000
vn -1.2027219e-16 0.0000000e+0 -1.00000000
vn 0.0000000e+0 -1.00000000 0.0000000e+0
vn -1.2027219e-16 0.0000000e+0 -1.00000000
vn -1.1319736e-16 0.0000000e+0 -1.00000000
vn 0.38268343 0.0000000e+0 -0.92387953
vn 0.38268343 0.0000000e+0 -0.92387953
vn 0.0000000e+0 -1.00000000 0.0000000e+0
vn 0.0000000e+0 -1.00000000 0.0000000e+0
vn 0.0000000e+0 -1.00000000 0.0000000e+0
vn 0.70710678 0.0000000e+0 -0.70710678
vn 0.70710678 0.0000000e+0 -0.70710678
vn 0.0000000e+0 -1.00000000 0.0000000e+0
vn 0.0000000e+0 -1.00000000 0.0000000e+0
vn 0.0000000e+0 -1.00000000 0.0000000e+0
vn 0.70710678 0.0000000e+0 -0.70710678
vn 0.70710678 0.0000000e+0 -0.70710678
vn 0.92387953 0.0000000e+0 -0.38268343
vn 0.92387953 0.0000000e+0 -0.38268343
vn 0.0000000e+0 -1.00000000 0.0000000e+0
vn 0.0000000e+0 -1.00000000 0.0000000e+0
vn 0.0000000e+0 -1.00000000 0.0000000e+0
vn 0.29603158 -0.95517815 2.2069150e-15
vn 0.29603158 -0.95517815 2.2069150e-15
vn 1.00000000 0.0000000e+0 -2.2639472e-16
vn 1.00000000 0.0000000e+0 -2.2639472e-16
vn 0.89653751 0.0000000e+0 0.44296783
vn 5.9629303e-3 0.0000000e+0 0.99998222
vn 0.89653751 0.0000000e+0 0.44296783
vn 0.89653751 0.0000000e+0 0.44296783
vn 0.29551968 -0.95352647 5.8782520e-2
vn 0.89653751 0.0000000e+0 0.44296783
vn 0.89653751 0.0000000e+0 0.44296783
vn 0.89653751 0.0000000e+0 0.44296783
vn 0.29551968 -0.95352647 -5.8782520e-2
vn 0.89653751 0.0000000e+0 -0.44296783
vn 0.89653751 0.0000000e+0 -0.44296783
vn 0.89653751 0.0000000e+0 -0.44296783
vn 5.9629303e-3 0.0000000e+0 -0.99998222
vn 0.89653751 0.0000000e+0 -0.44296783
vn 0.89653751 0.0000000e+0 -0.44296783
vn 0.89653751 0.0000000e+0 -0.44296783
vn 0.29603158 -0.95517815 2.2069150e-15
vn 5.9629303e-3 0.0000000e+0 0.99998222
vn 0.29603158 0.95517815 -2.5370834e-15
vn 0.29603158 0.95517815 -2.5370834e-15
vn 5.9629303e-3 0.0000000e+0 -0.99998222
vn 0.29603158 -0.95517815 2.2069150e-15
g cylinder1_mtrl/red
usemtl mtrl/red
s 1
f 16//101 49//218 48//210
f 34//199 49//215 2//19
s 2
f 1//16 49//217 16//100
f 2//20 49//216 1//15
f 33//195 49//219 34//202
f 48//206 49//214 33//194
g cylinder1_mtrl/white
usemtl mtrl/white
s 1
f 1//14 16//98 2//17
f 2//21 16//103 3//25
f 3//26 15//95 4//32
f 4//33 14//90 5//37
f 5//38 13//83 6//44
f 6//45 12//78 7//49
f 7//50 11//71 8//56
f 8//57 10//66 9//60
f 10//65 8//55 11//70
f 11//69 7//48 12//77
f 12//76 6//43 13//82
f 13//81 5//36 14//89
f 14//88 4//31 15//94
f 15//93 3//24 16//102
f 17//108 25//153 32//192
f 18//115 24//147 17//106
f 19//120 23//140 18//113
f 20//126 22//135 19//118
f 21//127 22//132 20//123
f 23//139 19//119 22//136
f 24//146 18//114 23//141
f 25//152 17//107 24//148
f 26//158 32//191 25//151
f 27//163 31//184 26//159
f 28//171 30//180 27//164
f 29//174 30//179 28//170
f 31//186 27//165 30//181
f 32//193 26//160 31//185
s 3
f 3//23 34//198 2//18
f 3//27 36//2 35//1
f 4//30 36//2 3//22
f 5//35 36//2 4//29
f 5//39 38//4 37//3
f 6//42 38//4 5//34
f 7//47 38//4 6//41
f 7//51 40//6 39//5
f 8//54 40//6 7//46
f 9//59 40//6 8//53
f 9//61 42//8 41//7
f 10//64 42//8 9//58
f 11//68 42//8 10//63
f 11//72 44//10 43//9
f 12//75 44//10 11//67
f 13//80 44//10 12//74
f 13//84 46//12 45//11
f 14//87 46//12 13//79
f 15//92 46//12 14//86
f 15//96 48//211 47//13
f 16//99 48//207 15//91
f 17//105 34//201 18//112
f 17//110 48//212 33//197
f 18//111 34//200 19//117
f 19//121 34//204 35//1
f 19//116 36//2 20//125
f 20//124 36//2 21//129
f 21//130 36//2 37//3
f 21//128 38//4 22//134
f 22//133 38//4 23//138
f 23//142 38//4 39//5
f 23//137 40//6 24//145
f 24//144 40//6 25//150
f 25//154 40//6 41//7
f 25//149 42//8 26//157
f 26//156 42//8 27//162
f 27//166 42//8 43//9
f 27//161 44//10 28//169
f 28//168 44//10 29//173
f 29//175 44//10 45//11
f 29//172 46//12 30//178
f 30//177 46//12 31//183
f 31//187 46//12 47//13
f 31//182 48//209 32//190
f 32//189 48//208 17//104
f 33//196 34//205 17//109
f 35//1 34//203 3//28
f 35//1 36//2 19//122
f 37//3 36//2 5//40
f 37//3 38//4 21//131
f 39//5 38//4 7//52
f 39//5 40//6 23//143
f 41//7 40//6 9//62
f 41//7 42//8 25//155
f 43//9 42//8 11//73
f 43//9 44//10 27//167
f 45//11 44//10 13//85
f 45//11 46//12 29//176
f 47//13 46//12 15//97
f 47//13 48//213 31//188
