# Exported from Wings 3D 1.4.1
mtllib vect.mtl
o cube1
#5 vertices, 6 faces
v -1.00000000 -1.00000000 0.0000000e+0
v -1.00000000 1.00000000 0.0000000e+0
v 1.00000000 1.00000000 0.0000000e+0
v 1.00000000 -1.00000000 0.0000000e+0
v 0.0000000e+0 0.0000000e+0 2.00000000
vt -1.3877788e-17 1.00000000
vt 1.3877788e-17 1.00000000
vt 2.7755576e-17 1.00000000
vt 5.5511151e-17 4.4408921e-16
vt 7.6327833e-17 1.00000000
vt 2.2859681e-16 1.00000000
vt 0.50000000 0.0000000e+0
vt 0.50000000 0.0000000e+0
vt 0.50000000 0.0000000e+0
vt 1.00000000 2.2204460e-16
vt 1.00000000 1.00000000
vt 1.00000000 1.00000000
vt 1.00000000 1.00000000
vn 0.0000000e+0 -0.89442719 0.44721360
vn 0.0000000e+0 0.0000000e+0 -1.00000000
vn -0.89442719 0.0000000e+0 0.44721360
vn 0.0000000e+0 0.0000000e+0 -1.00000000
vn 0.0000000e+0 0.89442719 0.44721360
vn -0.89442719 0.0000000e+0 0.44721360
vn 0.0000000e+0 0.0000000e+0 -1.00000000
vn 0.89442719 0.0000000e+0 0.44721360
vn 0.0000000e+0 0.89442719 0.44721360
vn 0.0000000e+0 0.0000000e+0 -1.00000000
vn 0.0000000e+0 0.0000000e+0 -1.00000000
vn 0.89442719 0.0000000e+0 0.44721360
vn 0.0000000e+0 -0.89442719 0.44721360
vn 0.0000000e+0 0.0000000e+0 -1.00000000
vn 0.89442719 0.0000000e+0 0.44721360
vn 0.0000000e+0 -0.89442719 0.44721360
vn 0.0000000e+0 0.89442719 0.44721360
vn -0.89442719 0.0000000e+0 0.44721360
g cube1_geom/vect/vect
usemtl geom/vect/vect
s 1
f 5/8/18 2/13/6 1/1/3
f 5/9/15 4/13/12 3/5/8
s 2
f 1/10/2 3/6/10 4/4/14
f 2/13/7 3/6/11 1/10/4
s 3
f 1/12/1 4/3/13 5/8/16
f 5/7/17 3/11/9 2/2/5
