vn  +0.0000  +1.0000  +0.0000
vt  +0.0000  +0.0000
v   +1.1150  +0.0000  -0.0000
vt  +1.0000  +0.0000
v   +2.3330  +0.0000  -0.0000
vt  +0.0000  +0.0000
v   +1.1137  +0.0000  -0.0547
vt  +1.0000  +0.0000
v   +2.3302  +0.0000  -0.1145
vt  +0.0000  +0.0000
v   +1.1096  +0.0000  -0.1093
vt  +1.0000  +0.0000
v   +2.3218  +0.0000  -0.2287
vt  +0.0000  +0.0000
v   +1.1029  +0.0000  -0.1636
vt  +1.0000  +0.0000
v   +2.3077  +0.0000  -0.3423
vt  +0.0000  +0.0000
v   +1.0936  +0.0000  -0.2175
vt  +1.0000  +0.0000
v   +2.2882  +0.0000  -0.4551
vt  +0.0000  +0.0000
v   +1.0816  +0.0000  -0.2709
vt  +1.0000  +0.0000
v   +2.2631  +0.0000  -0.5669
vt  +0.0000  +0.0000
v   +1.0670  +0.0000  -0.3237
vt  +1.0000  +0.0000
v   +2.2325  +0.0000  -0.6772
vt  +0.0000  +0.0000
v   +1.0498  +0.0000  -0.3756
vt  +1.0000  +0.0000
v   +2.1966  +0.0000  -0.7860
vt  +0.0000  +0.0000
v   +1.0301  +0.0000  -0.4267
vt  +1.0000  +0.0000
v   +2.1554  +0.0000  -0.8928
vt  +0.0000  +0.0000
v   +1.0079  +0.0000  -0.4767
vt  +1.0000  +0.0000
v   +2.1090  +0.0000  -0.9975
vt  +0.0000  +0.0000
v   +0.9833  +0.0000  -0.5256
vt  +1.0000  +0.0000
v   +2.0575  +0.0000  -1.0998
vt  +0.0000  +0.0000
v   +0.9564  +0.0000  -0.5732
vt  +1.0000  +0.0000
v   +2.0011  +0.0000  -1.1994
vt  +0.0000  +0.0000
v   +0.9271  +0.0000  -0.6195
vt  +1.0000  +0.0000
v   +1.9398  +0.0000  -1.2961
vt  +0.0000  +0.0000
v   +0.8956  +0.0000  -0.6642
vt  +1.0000  +0.0000
v   +1.8739  +0.0000  -1.3898
vt  +0.0000  +0.0000
v   +0.8619  +0.0000  -0.7073
vt  +1.0000  +0.0000
v   +1.8034  +0.0000  -1.4800
vt  +0.0000  +0.0000
v   +0.8262  +0.0000  -0.7488
vt  +1.0000  +0.0000
v   +1.7286  +0.0000  -1.5667
vt  +0.0000  +0.0000
v   +0.7884  +0.0000  -0.7884
vt  +1.0000  +0.0000
v   +1.6497  +0.0000  -1.6497
vt  +0.0000  +0.0000
v   +0.7488  +0.0000  -0.8262
vt  +1.0000  +0.0000
v   +1.5667  +0.0000  -1.7286
vt  +0.0000  +0.0000
v   +0.7073  +0.0000  -0.8619
vt  +1.0000  +0.0000
v   +1.4800  +0.0000  -1.8034
vt  +0.0000  +0.0000
v   +0.6642  +0.0000  -0.8956
vt  +1.0000  +0.0000
v   +1.3898  +0.0000  -1.8739
vt  +0.0000  +0.0000
v   +0.6195  +0.0000  -0.9271
vt  +1.0000  +0.0000
v   +1.2961  +0.0000  -1.9398
vt  +0.0000  +0.0000
v   +0.5732  +0.0000  -0.9564
vt  +1.0000  +0.0000
v   +1.1994  +0.0000  -2.0011
vt  +0.0000  +0.0000
v   +0.5256  +0.0000  -0.9833
vt  +1.0000  +0.0000
v   +1.0998  +0.0000  -2.0575
vt  +0.0000  +0.0000
v   +0.4767  +0.0000  -1.0079
vt  +1.0000  +0.0000
v   +0.9975  +0.0000  -2.1090
vt  +0.0000  +0.0000
v   +0.4267  +0.0000  -1.0301
vt  +1.0000  +0.0000
v   +0.8928  +0.0000  -2.1554
vt  +0.0000  +0.0000
v   +0.3756  +0.0000  -1.0498
vt  +1.0000  +0.0000
v   +0.7860  +0.0000  -2.1966
vt  +0.0000  +0.0000
v   +0.3237  +0.0000  -1.0670
vt  +1.0000  +0.0000
v   +0.6772  +0.0000  -2.2325
vt  +0.0000  +0.0000
v   +0.2709  +0.0000  -1.0816
vt  +1.0000  +0.0000
v   +0.5669  +0.0000  -2.2631
vt  +0.0000  +0.0000
v   +0.2175  +0.0000  -1.0936
vt  +1.0000  +0.0000
v   +0.4551  +0.0000  -2.2882
vt  +0.0000  +0.0000
v   +0.1636  +0.0000  -1.1029
vt  +1.0000  +0.0000
v   +0.3423  +0.0000  -2.3077
vt  +0.0000  +0.0000
v   +0.1093  +0.0000  -1.1096
vt  +1.0000  +0.0000
v   +0.2287  +0.0000  -2.3218
vt  +0.0000  +0.0000
v   +0.0547  +0.0000  -1.1137
vt  +1.0000  +0.0000
v   +0.1145  +0.0000  -2.3302
vt  +0.0000  +0.0000
v   +0.0000  +0.0000  -1.1150
vt  +1.0000  +0.0000
v   +0.0000  +0.0000  -2.3330
vt  +0.0000  +0.0000
v   -0.0547  +0.0000  -1.1137
vt  +1.0000  +0.0000
v   -0.1145  +0.0000  -2.3302
vt  +0.0000  +0.0000
v   -0.1093  +0.0000  -1.1096
vt  +1.0000  +0.0000
v   -0.2287  +0.0000  -2.3218
vt  +0.0000  +0.0000
v   -0.1636  +0.0000  -1.1029
vt  +1.0000  +0.0000
v   -0.3423  +0.0000  -2.3077
vt  +0.0000  +0.0000
v   -0.2175  +0.0000  -1.0936
vt  +1.0000  +0.0000
v   -0.4551  +0.0000  -2.2882
vt  +0.0000  +0.0000
v   -0.2709  +0.0000  -1.0816
vt  +1.0000  +0.0000
v   -0.5669  +0.0000  -2.2631
vt  +0.0000  +0.0000
v   -0.3237  +0.0000  -1.0670
vt  +1.0000  +0.0000
v   -0.6772  +0.0000  -2.2325
vt  +0.0000  +0.0000
v   -0.3756  +0.0000  -1.0498
vt  +1.0000  +0.0000
v   -0.7860  +0.0000  -2.1966
vt  +0.0000  +0.0000
v   -0.4267  +0.0000  -1.0301
vt  +1.0000  +0.0000
v   -0.8928  +0.0000  -2.1554
vt  +0.0000  +0.0000
v   -0.4767  +0.0000  -1.0079
vt  +1.0000  +0.0000
v   -0.9975  +0.0000  -2.1090
vt  +0.0000  +0.0000
v   -0.5256  +0.0000  -0.9833
vt  +1.0000  +0.0000
v   -1.0998  +0.0000  -2.0575
vt  +0.0000  +0.0000
v   -0.5732  +0.0000  -0.9564
vt  +1.0000  +0.0000
v   -1.1994  +0.0000  -2.0011
vt  +0.0000  +0.0000
v   -0.6195  +0.0000  -0.9271
vt  +1.0000  +0.0000
v   -1.2961  +0.0000  -1.9398
vt  +0.0000  +0.0000
v   -0.6642  +0.0000  -0.8956
vt  +1.0000  +0.0000
v   -1.3898  +0.0000  -1.8739
vt  +0.0000  +0.0000
v   -0.7073  +0.0000  -0.8619
vt  +1.0000  +0.0000
v   -1.4800  +0.0000  -1.8034
vt  +0.0000  +0.0000
v   -0.7488  +0.0000  -0.8262
vt  +1.0000  +0.0000
v   -1.5667  +0.0000  -1.7286
vt  +0.0000  +0.0000
v   -0.7884  +0.0000  -0.7884
vt  +1.0000  +0.0000
v   -1.6497  +0.0000  -1.6497
vt  +0.0000  +0.0000
v   -0.8262  +0.0000  -0.7488
vt  +1.0000  +0.0000
v   -1.7286  +0.0000  -1.5667
vt  +0.0000  +0.0000
v   -0.8619  +0.0000  -0.7073
vt  +1.0000  +0.0000
v   -1.8034  +0.0000  -1.4800
vt  +0.0000  +0.0000
v   -0.8956  +0.0000  -0.6642
vt  +1.0000  +0.0000
v   -1.8739  +0.0000  -1.3898
vt  +0.0000  +0.0000
v   -0.9271  +0.0000  -0.6195
vt  +1.0000  +0.0000
v   -1.9398  +0.0000  -1.2961
vt  +0.0000  +0.0000
v   -0.9564  +0.0000  -0.5732
vt  +1.0000  +0.0000
v   -2.0011  +0.0000  -1.1994
vt  +0.0000  +0.0000
v   -0.9833  +0.0000  -0.5256
vt  +1.0000  +0.0000
v   -2.0575  +0.0000  -1.0998
vt  +0.0000  +0.0000
v   -1.0079  +0.0000  -0.4767
vt  +1.0000  +0.0000
v   -2.1090  +0.0000  -0.9975
vt  +0.0000  +0.0000
v   -1.0301  +0.0000  -0.4267
vt  +1.0000  +0.0000
v   -2.1554  +0.0000  -0.8928
vt  +0.0000  +0.0000
v   -1.0498  +0.0000  -0.3756
vt  +1.0000  +0.0000
v   -2.1966  +0.0000  -0.7860
vt  +0.0000  +0.0000
v   -1.0670  +0.0000  -0.3237
vt  +1.0000  +0.0000
v   -2.2325  +0.0000  -0.6772
vt  +0.0000  +0.0000
v   -1.0816  +0.0000  -0.2709
vt  +1.0000  +0.0000
v   -2.2631  +0.0000  -0.5669
vt  +0.0000  +0.0000
v   -1.0936  +0.0000  -0.2175
vt  +1.0000  +0.0000
v   -2.2882  +0.0000  -0.4551
vt  +0.0000  +0.0000
v   -1.1029  +0.0000  -0.1636
vt  +1.0000  +0.0000
v   -2.3077  +0.0000  -0.3423
vt  +0.0000  +0.0000
v   -1.1096  +0.0000  -0.1093
vt  +1.0000  +0.0000
v   -2.3218  +0.0000  -0.2287
vt  +0.0000  +0.0000
v   -1.1137  +0.0000  -0.0547
vt  +1.0000  +0.0000
v   -2.3302  +0.0000  -0.1145
vt  +0.0000  +0.0000
v   -1.1150  +0.0000  -0.0000
vt  +1.0000  +0.0000
v   -2.3330  +0.0000  -0.0000
vt  +0.0000  +0.0000
v   -1.1137  +0.0000  +0.0547
vt  +1.0000  +0.0000
v   -2.3302  +0.0000  +0.1145
vt  +0.0000  +0.0000
v   -1.1096  +0.0000  +0.1093
vt  +1.0000  +0.0000
v   -2.3218  +0.0000  +0.2287
vt  +0.0000  +0.0000
v   -1.1029  +0.0000  +0.1636
vt  +1.0000  +0.0000
v   -2.3077  +0.0000  +0.3423
vt  +0.0000  +0.0000
v   -1.0936  +0.0000  +0.2175
vt  +1.0000  +0.0000
v   -2.2882  +0.0000  +0.4551
vt  +0.0000  +0.0000
v   -1.0816  +0.0000  +0.2709
vt  +1.0000  +0.0000
v   -2.2631  +0.0000  +0.5669
vt  +0.0000  +0.0000
v   -1.0670  +0.0000  +0.3237
vt  +1.0000  +0.0000
v   -2.2325  +0.0000  +0.6772
vt  +0.0000  +0.0000
v   -1.0498  +0.0000  +0.3756
vt  +1.0000  +0.0000
v   -2.1966  +0.0000  +0.7860
vt  +0.0000  +0.0000
v   -1.0301  +0.0000  +0.4267
vt  +1.0000  +0.0000
v   -2.1554  +0.0000  +0.8928
vt  +0.0000  +0.0000
v   -1.0079  +0.0000  +0.4767
vt  +1.0000  +0.0000
v   -2.1090  +0.0000  +0.9975
vt  +0.0000  +0.0000
v   -0.9833  +0.0000  +0.5256
vt  +1.0000  +0.0000
v   -2.0575  +0.0000  +1.0998
vt  +0.0000  +0.0000
v   -0.9564  +0.0000  +0.5732
vt  +1.0000  +0.0000
v   -2.0011  +0.0000  +1.1994
vt  +0.0000  +0.0000
v   -0.9271  +0.0000  +0.6195
vt  +1.0000  +0.0000
v   -1.9398  +0.0000  +1.2961
vt  +0.0000  +0.0000
v   -0.8956  +0.0000  +0.6642
vt  +1.0000  +0.0000
v   -1.8739  +0.0000  +1.3898
vt  +0.0000  +0.0000
v   -0.8619  +0.0000  +0.7073
vt  +1.0000  +0.0000
v   -1.8034  +0.0000  +1.4800
vt  +0.0000  +0.0000
v   -0.8262  +0.0000  +0.7488
vt  +1.0000  +0.0000
v   -1.7286  +0.0000  +1.5667
vt  +0.0000  +0.0000
v   -0.7884  +0.0000  +0.7884
vt  +1.0000  +0.0000
v   -1.6497  +0.0000  +1.6497
vt  +0.0000  +0.0000
v   -0.7488  +0.0000  +0.8262
vt  +1.0000  +0.0000
v   -1.5667  +0.0000  +1.7286
vt  +0.0000  +0.0000
v   -0.7073  +0.0000  +0.8619
vt  +1.0000  +0.0000
v   -1.4800  +0.0000  +1.8034
vt  +0.0000  +0.0000
v   -0.6642  +0.0000  +0.8956
vt  +1.0000  +0.0000
v   -1.3898  +0.0000  +1.8739
vt  +0.0000  +0.0000
v   -0.6195  +0.0000  +0.9271
vt  +1.0000  +0.0000
v   -1.2961  +0.0000  +1.9398
vt  +0.0000  +0.0000
v   -0.5732  +0.0000  +0.9564
vt  +1.0000  +0.0000
v   -1.1994  +0.0000  +2.0011
vt  +0.0000  +0.0000
v   -0.5256  +0.0000  +0.9833
vt  +1.0000  +0.0000
v   -1.0998  +0.0000  +2.0575
vt  +0.0000  +0.0000
v   -0.4767  +0.0000  +1.0079
vt  +1.0000  +0.0000
v   -0.9975  +0.0000  +2.1090
vt  +0.0000  +0.0000
v   -0.4267  +0.0000  +1.0301
vt  +1.0000  +0.0000
v   -0.8928  +0.0000  +2.1554
vt  +0.0000  +0.0000
v   -0.3756  +0.0000  +1.0498
vt  +1.0000  +0.0000
v   -0.7860  +0.0000  +2.1966
vt  +0.0000  +0.0000
v   -0.3237  +0.0000  +1.0670
vt  +1.0000  +0.0000
v   -0.6772  +0.0000  +2.2325
vt  +0.0000  +0.0000
v   -0.2709  +0.0000  +1.0816
vt  +1.0000  +0.0000
v   -0.5669  +0.0000  +2.2631
vt  +0.0000  +0.0000
v   -0.2175  +0.0000  +1.0936
vt  +1.0000  +0.0000
v   -0.4551  +0.0000  +2.2882
vt  +0.0000  +0.0000
v   -0.1636  +0.0000  +1.1029
vt  +1.0000  +0.0000
v   -0.3423  +0.0000  +2.3077
vt  +0.0000  +0.0000
v   -0.1093  +0.0000  +1.1096
vt  +1.0000  +0.0000
v   -0.2287  +0.0000  +2.3218
vt  +0.0000  +0.0000
v   -0.0547  +0.0000  +1.1137
vt  +1.0000  +0.0000
v   -0.1145  +0.0000  +2.3302
vt  +0.0000  +0.0000
v   -0.0000  +0.0000  +1.1150
vt  +1.0000  +0.0000
v   -0.0000  +0.0000  +2.3330
vt  +0.0000  +0.0000
v   +0.0547  +0.0000  +1.1137
vt  +1.0000  +0.0000
v   +0.1145  +0.0000  +2.3302
vt  +0.0000  +0.0000
v   +0.1093  +0.0000  +1.1096
vt  +1.0000  +0.0000
v   +0.2287  +0.0000  +2.3218
vt  +0.0000  +0.0000
v   +0.1636  +0.0000  +1.1029
vt  +1.0000  +0.0000
v   +0.3423  +0.0000  +2.3077
vt  +0.0000  +0.0000
v   +0.2175  +0.0000  +1.0936
vt  +1.0000  +0.0000
v   +0.4551  +0.0000  +2.2882
vt  +0.0000  +0.0000
v   +0.2709  +0.0000  +1.0816
vt  +1.0000  +0.0000
v   +0.5669  +0.0000  +2.2631
vt  +0.0000  +0.0000
v   +0.3237  +0.0000  +1.0670
vt  +1.0000  +0.0000
v   +0.6772  +0.0000  +2.2325
vt  +0.0000  +0.0000
v   +0.3756  +0.0000  +1.0498
vt  +1.0000  +0.0000
v   +0.7860  +0.0000  +2.1966
vt  +0.0000  +0.0000
v   +0.4267  +0.0000  +1.0301
vt  +1.0000  +0.0000
v   +0.8928  +0.0000  +2.1554
vt  +0.0000  +0.0000
v   +0.4767  +0.0000  +1.0079
vt  +1.0000  +0.0000
v   +0.9975  +0.0000  +2.1090
vt  +0.0000  +0.0000
v   +0.5256  +0.0000  +0.9833
vt  +1.0000  +0.0000
v   +1.0998  +0.0000  +2.0575
vt  +0.0000  +0.0000
v   +0.5732  +0.0000  +0.9564
vt  +1.0000  +0.0000
v   +1.1994  +0.0000  +2.0011
vt  +0.0000  +0.0000
v   +0.6195  +0.0000  +0.9271
vt  +1.0000  +0.0000
v   +1.2961  +0.0000  +1.9398
vt  +0.0000  +0.0000
v   +0.6642  +0.0000  +0.8956
vt  +1.0000  +0.0000
v   +1.3898  +0.0000  +1.8739
vt  +0.0000  +0.0000
v   +0.7073  +0.0000  +0.8619
vt  +1.0000  +0.0000
v   +1.4800  +0.0000  +1.8034
vt  +0.0000  +0.0000
v   +0.7488  +0.0000  +0.8262
vt  +1.0000  +0.0000
v   +1.5667  +0.0000  +1.7286
vt  +0.0000  +0.0000
v   +0.7884  +0.0000  +0.7884
vt  +1.0000  +0.0000
v   +1.6497  +0.0000  +1.6497
vt  +0.0000  +0.0000
v   +0.8262  +0.0000  +0.7488
vt  +1.0000  +0.0000
v   +1.7286  +0.0000  +1.5667
vt  +0.0000  +0.0000
v   +0.8619  +0.0000  +0.7073
vt  +1.0000  +0.0000
v   +1.8034  +0.0000  +1.4800
vt  +0.0000  +0.0000
v   +0.8956  +0.0000  +0.6642
vt  +1.0000  +0.0000
v   +1.8739  +0.0000  +1.3898
vt  +0.0000  +0.0000
v   +0.9271  +0.0000  +0.6195
vt  +1.0000  +0.0000
v   +1.9398  +0.0000  +1.2961
vt  +0.0000  +0.0000
v   +0.9564  +0.0000  +0.5732
vt  +1.0000  +0.0000
v   +2.0011  +0.0000  +1.1994
vt  +0.0000  +0.0000
v   +0.9833  +0.0000  +0.5256
vt  +1.0000  +0.0000
v   +2.0575  +0.0000  +1.0998
vt  +0.0000  +0.0000
v   +1.0079  +0.0000  +0.4767
vt  +1.0000  +0.0000
v   +2.1090  +0.0000  +0.9975
vt  +0.0000  +0.0000
v   +1.0301  +0.0000  +0.4267
vt  +1.0000  +0.0000
v   +2.1554  +0.0000  +0.8928
vt  +0.0000  +0.0000
v   +1.0498  +0.0000  +0.3756
vt  +1.0000  +0.0000
v   +2.1966  +0.0000  +0.7860
vt  +0.0000  +0.0000
v   +1.0670  +0.0000  +0.3237
vt  +1.0000  +0.0000
v   +2.2325  +0.0000  +0.6772
vt  +0.0000  +0.0000
v   +1.0816  +0.0000  +0.2709
vt  +1.0000  +0.0000
v   +2.2631  +0.0000  +0.5669
vt  +0.0000  +0.0000
v   +1.0936  +0.0000  +0.2175
vt  +1.0000  +0.0000
v   +2.2882  +0.0000  +0.4551
vt  +0.0000  +0.0000
v   +1.1029  +0.0000  +0.1636
vt  +1.0000  +0.0000
v   +2.3077  +0.0000  +0.3423
vt  +0.0000  +0.0000
v   +1.1096  +0.0000  +0.1093
vt  +1.0000  +0.0000
v   +2.3218  +0.0000  +0.2287
vt  +0.0000  +0.0000
v   +1.1137  +0.0000  +0.0547
vt  +1.0000  +0.0000
v   +2.3302  +0.0000  +0.1145
f 1/1/1 2/2/1 4/4/1
f 1/1/1 4/4/1 3/3/1
f 3/3/1 4/4/1 6/6/1
f 3/3/1 6/6/1 5/5/1
f 5/5/1 6/6/1 8/8/1
f 5/5/1 8/8/1 7/7/1
f 7/7/1 8/8/1 10/10/1
f 7/7/1 10/10/1 9/9/1
f 9/9/1 10/10/1 12/12/1
f 9/9/1 12/12/1 11/11/1
f 11/11/1 12/12/1 14/14/1
f 11/11/1 14/14/1 13/13/1
f 13/13/1 14/14/1 16/16/1
f 13/13/1 16/16/1 15/15/1
f 15/15/1 16/16/1 18/18/1
f 15/15/1 18/18/1 17/17/1
f 17/17/1 18/18/1 20/20/1
f 17/17/1 20/20/1 19/19/1
f 19/19/1 20/20/1 22/22/1
f 19/19/1 22/22/1 21/21/1
f 21/21/1 22/22/1 24/24/1
f 21/21/1 24/24/1 23/23/1
f 23/23/1 24/24/1 26/26/1
f 23/23/1 26/26/1 25/25/1
f 25/25/1 26/26/1 28/28/1
f 25/25/1 28/28/1 27/27/1
f 27/27/1 28/28/1 30/30/1
f 27/27/1 30/30/1 29/29/1
f 29/29/1 30/30/1 32/32/1
f 29/29/1 32/32/1 31/31/1
f 31/31/1 32/32/1 34/34/1
f 31/31/1 34/34/1 33/33/1
f 33/33/1 34/34/1 36/36/1
f 33/33/1 36/36/1 35/35/1
f 35/35/1 36/36/1 38/38/1
f 35/35/1 38/38/1 37/37/1
f 37/37/1 38/38/1 40/40/1
f 37/37/1 40/40/1 39/39/1
f 39/39/1 40/40/1 42/42/1
f 39/39/1 42/42/1 41/41/1
f 41/41/1 42/42/1 44/44/1
f 41/41/1 44/44/1 43/43/1
f 43/43/1 44/44/1 46/46/1
f 43/43/1 46/46/1 45/45/1
f 45/45/1 46/46/1 48/48/1
f 45/45/1 48/48/1 47/47/1
f 47/47/1 48/48/1 50/50/1
f 47/47/1 50/50/1 49/49/1
f 49/49/1 50/50/1 52/52/1
f 49/49/1 52/52/1 51/51/1
f 51/51/1 52/52/1 54/54/1
f 51/51/1 54/54/1 53/53/1
f 53/53/1 54/54/1 56/56/1
f 53/53/1 56/56/1 55/55/1
f 55/55/1 56/56/1 58/58/1
f 55/55/1 58/58/1 57/57/1
f 57/57/1 58/58/1 60/60/1
f 57/57/1 60/60/1 59/59/1
f 59/59/1 60/60/1 62/62/1
f 59/59/1 62/62/1 61/61/1
f 61/61/1 62/62/1 64/64/1
f 61/61/1 64/64/1 63/63/1
f 63/63/1 64/64/1 66/66/1
f 63/63/1 66/66/1 65/65/1
f 65/65/1 66/66/1 68/68/1
f 65/65/1 68/68/1 67/67/1
f 67/67/1 68/68/1 70/70/1
f 67/67/1 70/70/1 69/69/1
f 69/69/1 70/70/1 72/72/1
f 69/69/1 72/72/1 71/71/1
f 71/71/1 72/72/1 74/74/1
f 71/71/1 74/74/1 73/73/1
f 73/73/1 74/74/1 76/76/1
f 73/73/1 76/76/1 75/75/1
f 75/75/1 76/76/1 78/78/1
f 75/75/1 78/78/1 77/77/1
f 77/77/1 78/78/1 80/80/1
f 77/77/1 80/80/1 79/79/1
f 79/79/1 80/80/1 82/82/1
f 79/79/1 82/82/1 81/81/1
f 81/81/1 82/82/1 84/84/1
f 81/81/1 84/84/1 83/83/1
f 83/83/1 84/84/1 86/86/1
f 83/83/1 86/86/1 85/85/1
f 85/85/1 86/86/1 88/88/1
f 85/85/1 88/88/1 87/87/1
f 87/87/1 88/88/1 90/90/1
f 87/87/1 90/90/1 89/89/1
f 89/89/1 90/90/1 92/92/1
f 89/89/1 92/92/1 91/91/1
f 91/91/1 92/92/1 94/94/1
f 91/91/1 94/94/1 93/93/1
f 93/93/1 94/94/1 96/96/1
f 93/93/1 96/96/1 95/95/1
f 95/95/1 96/96/1 98/98/1
f 95/95/1 98/98/1 97/97/1
f 97/97/1 98/98/1 100/100/1
f 97/97/1 100/100/1 99/99/1
f 99/99/1 100/100/1 102/102/1
f 99/99/1 102/102/1 101/101/1
f 101/101/1 102/102/1 104/104/1
f 101/101/1 104/104/1 103/103/1
f 103/103/1 104/104/1 106/106/1
f 103/103/1 106/106/1 105/105/1
f 105/105/1 106/106/1 108/108/1
f 105/105/1 108/108/1 107/107/1
f 107/107/1 108/108/1 110/110/1
f 107/107/1 110/110/1 109/109/1
f 109/109/1 110/110/1 112/112/1
f 109/109/1 112/112/1 111/111/1
f 111/111/1 112/112/1 114/114/1
f 111/111/1 114/114/1 113/113/1
f 113/113/1 114/114/1 116/116/1
f 113/113/1 116/116/1 115/115/1
f 115/115/1 116/116/1 118/118/1
f 115/115/1 118/118/1 117/117/1
f 117/117/1 118/118/1 120/120/1
f 117/117/1 120/120/1 119/119/1
f 119/119/1 120/120/1 122/122/1
f 119/119/1 122/122/1 121/121/1
f 121/121/1 122/122/1 124/124/1
f 121/121/1 124/124/1 123/123/1
f 123/123/1 124/124/1 126/126/1
f 123/123/1 126/126/1 125/125/1
f 125/125/1 126/126/1 128/128/1
f 125/125/1 128/128/1 127/127/1
f 127/127/1 128/128/1 130/130/1
f 127/127/1 130/130/1 129/129/1
f 129/129/1 130/130/1 132/132/1
f 129/129/1 132/132/1 131/131/1
f 131/131/1 132/132/1 134/134/1
f 131/131/1 134/134/1 133/133/1
f 133/133/1 134/134/1 136/136/1
f 133/133/1 136/136/1 135/135/1
f 135/135/1 136/136/1 138/138/1
f 135/135/1 138/138/1 137/137/1
f 137/137/1 138/138/1 140/140/1
f 137/137/1 140/140/1 139/139/1
f 139/139/1 140/140/1 142/142/1
f 139/139/1 142/142/1 141/141/1
f 141/141/1 142/142/1 144/144/1
f 141/141/1 144/144/1 143/143/1
f 143/143/1 144/144/1 146/146/1
f 143/143/1 146/146/1 145/145/1
f 145/145/1 146/146/1 148/148/1
f 145/145/1 148/148/1 147/147/1
f 147/147/1 148/148/1 150/150/1
f 147/147/1 150/150/1 149/149/1
f 149/149/1 150/150/1 152/152/1
f 149/149/1 152/152/1 151/151/1
f 151/151/1 152/152/1 154/154/1
f 151/151/1 154/154/1 153/153/1
f 153/153/1 154/154/1 156/156/1
f 153/153/1 156/156/1 155/155/1
f 155/155/1 156/156/1 158/158/1
f 155/155/1 158/158/1 157/157/1
f 157/157/1 158/158/1 160/160/1
f 157/157/1 160/160/1 159/159/1
f 159/159/1 160/160/1 162/162/1
f 159/159/1 162/162/1 161/161/1
f 161/161/1 162/162/1 164/164/1
f 161/161/1 164/164/1 163/163/1
f 163/163/1 164/164/1 166/166/1
f 163/163/1 166/166/1 165/165/1
f 165/165/1 166/166/1 168/168/1
f 165/165/1 168/168/1 167/167/1
f 167/167/1 168/168/1 170/170/1
f 167/167/1 170/170/1 169/169/1
f 169/169/1 170/170/1 172/172/1
f 169/169/1 172/172/1 171/171/1
f 171/171/1 172/172/1 174/174/1
f 171/171/1 174/174/1 173/173/1
f 173/173/1 174/174/1 176/176/1
f 173/173/1 176/176/1 175/175/1
f 175/175/1 176/176/1 178/178/1
f 175/175/1 178/178/1 177/177/1
f 177/177/1 178/178/1 180/180/1
f 177/177/1 180/180/1 179/179/1
f 179/179/1 180/180/1 182/182/1
f 179/179/1 182/182/1 181/181/1
f 181/181/1 182/182/1 184/184/1
f 181/181/1 184/184/1 183/183/1
f 183/183/1 184/184/1 186/186/1
f 183/183/1 186/186/1 185/185/1
f 185/185/1 186/186/1 188/188/1
f 185/185/1 188/188/1 187/187/1
f 187/187/1 188/188/1 190/190/1
f 187/187/1 190/190/1 189/189/1
f 189/189/1 190/190/1 192/192/1
f 189/189/1 192/192/1 191/191/1
f 191/191/1 192/192/1 194/194/1
f 191/191/1 194/194/1 193/193/1
f 193/193/1 194/194/1 196/196/1
f 193/193/1 196/196/1 195/195/1
f 195/195/1 196/196/1 198/198/1
f 195/195/1 198/198/1 197/197/1
f 197/197/1 198/198/1 200/200/1
f 197/197/1 200/200/1 199/199/1
f 199/199/1 200/200/1 202/202/1
f 199/199/1 202/202/1 201/201/1
f 201/201/1 202/202/1 204/204/1
f 201/201/1 204/204/1 203/203/1
f 203/203/1 204/204/1 206/206/1
f 203/203/1 206/206/1 205/205/1
f 205/205/1 206/206/1 208/208/1
f 205/205/1 208/208/1 207/207/1
f 207/207/1 208/208/1 210/210/1
f 207/207/1 210/210/1 209/209/1
f 209/209/1 210/210/1 212/212/1
f 209/209/1 212/212/1 211/211/1
f 211/211/1 212/212/1 214/214/1
f 211/211/1 214/214/1 213/213/1
f 213/213/1 214/214/1 216/216/1
f 213/213/1 216/216/1 215/215/1
f 215/215/1 216/216/1 218/218/1
f 215/215/1 218/218/1 217/217/1
f 217/217/1 218/218/1 220/220/1
f 217/217/1 220/220/1 219/219/1
f 219/219/1 220/220/1 222/222/1
f 219/219/1 222/222/1 221/221/1
f 221/221/1 222/222/1 224/224/1
f 221/221/1 224/224/1 223/223/1
f 223/223/1 224/224/1 226/226/1
f 223/223/1 226/226/1 225/225/1
f 225/225/1 226/226/1 228/228/1
f 225/225/1 228/228/1 227/227/1
f 227/227/1 228/228/1 230/230/1
f 227/227/1 230/230/1 229/229/1
f 229/229/1 230/230/1 232/232/1
f 229/229/1 232/232/1 231/231/1
f 231/231/1 232/232/1 234/234/1
f 231/231/1 234/234/1 233/233/1
f 233/233/1 234/234/1 236/236/1
f 233/233/1 236/236/1 235/235/1
f 235/235/1 236/236/1 238/238/1
f 235/235/1 238/238/1 237/237/1
f 237/237/1 238/238/1 240/240/1
f 237/237/1 240/240/1 239/239/1
f 239/239/1 240/240/1 242/242/1
f 239/239/1 242/242/1 241/241/1
f 241/241/1 242/242/1 244/244/1
f 241/241/1 244/244/1 243/243/1
f 243/243/1 244/244/1 246/246/1
f 243/243/1 246/246/1 245/245/1
f 245/245/1 246/246/1 248/248/1
f 245/245/1 248/248/1 247/247/1
f 247/247/1 248/248/1 250/250/1
f 247/247/1 250/250/1 249/249/1
f 249/249/1 250/250/1 252/252/1
f 249/249/1 252/252/1 251/251/1
f 251/251/1 252/252/1 254/254/1
f 251/251/1 254/254/1 253/253/1
f 253/253/1 254/254/1 256/256/1
f 253/253/1 256/256/1 255/255/1
f 255/255/1 256/256/1 2/2/1
f 255/255/1 2/2/1 1/1/1
