<?xml version="1.0" encoding="UTF-8" standalone="no"?>
<!-- Created with Inkscape (http://www.inkscape.org/) -->
<svg
   xmlns:dc="http://purl.org/dc/elements/1.1/"
   xmlns:cc="http://web.resource.org/cc/"
   xmlns:rdf="http://www.w3.org/1999/02/22-rdf-syntax-ns#"
   xmlns:svg="http://www.w3.org/2000/svg"
   xmlns="http://www.w3.org/2000/svg"
   xmlns:xlink="http://www.w3.org/1999/xlink"
   xmlns:sodipodi="http://sodipodi.sourceforge.net/DTD/sodipodi-0.dtd"
   xmlns:inkscape="http://www.inkscape.org/namespaces/inkscape"
   version="1.0"
   width="733"
   height="733"
   id="svg2"
   sodipodi:version="0.32"
   inkscape:version="0.44"
   sodipodi:docname="neverputt_logo_4_h.svg"
   sodipodi:docbase="/Users/cheese/Desktop"
   inkscape:export-filename="/Users/cheese/Desktop/neverputt_logo_4_f_small.png"
   inkscape:export-xdpi="5.0300002"
   inkscape:export-ydpi="5.0300002">
  <metadata
     id="metadata60">
    <rdf:RDF>
      <cc:Work
         rdf:about="">
        <dc:format>image/svg+xml</dc:format>
        <dc:type
           rdf:resource="http://purl.org/dc/dcmitype/StillImage" />
      </cc:Work>
    </rdf:RDF>
  </metadata>
  <sodipodi:namedview
     inkscape:window-height="577"
     inkscape:window-width="823"
     inkscape:pageshadow="2"
     inkscape:pageopacity="0.0"
     guidetolerance="10.0"
     gridtolerance="10.0"
     objecttolerance="10.0"
     borderopacity="1.0"
     bordercolor="#666666"
     pagecolor="#ffffff"
     id="base"
     inkscape:zoom="0.3077861"
     inkscape:cx="181.0838"
     inkscape:cy="503.86357"
     inkscape:window-x="125"
     inkscape:window-y="22"
     inkscape:current-layer="layer4"
     showguides="true"
     inkscape:guide-bbox="true"
     height="733px"
     width="733px" />
  <defs
     id="defs4">
    <linearGradient
       id="linearGradient2928">
      <stop
         id="stop2930"
         offset="0"
         style="stop-color: white; stop-opacity: 1;" />
      <stop
         id="stop2932"
         offset="1"
         style="stop-color:white;stop-opacity:0.15000001;" />
    </linearGradient>
    <linearGradient
       id="linearGradient2913">
      <stop
         id="stop2915"
         offset="0"
         style="stop-color: white; stop-opacity: 0;" />
      <stop
         id="stop2919"
         offset="1"
         style="stop-color: black; stop-opacity: 0.784314;" />
    </linearGradient>
    <linearGradient
       id="linearGradient4374">
      <stop
         id="stop4376"
         offset="0"
         style="stop-color: white; stop-opacity: 1;" />
      <stop
         style="stop-color:white;stop-opacity:0.30208334;"
         offset="0.5"
         id="stop4380" />
      <stop
         id="stop4378"
         offset="1"
         style="stop-color: white; stop-opacity: 0;" />
    </linearGradient>
    <linearGradient
       id="linearGradient4406">
      <stop
         id="stop4408"
         offset="0"
         style="stop-color:#575757;stop-opacity:1;" />
      <stop
         id="stop4410"
         offset="1"
         style="stop-color:#e5e5e5;stop-opacity:1;" />
    </linearGradient>
    <linearGradient
       id="linearGradient2951">
      <stop
         style="stop-color: black; stop-opacity: 1;"
         offset="0"
         id="stop2953" />
      <stop
         id="stop2955"
         offset="0"
         style="stop-color:black;stop-opacity:0.49803922;" />
      <stop
         style="stop-color:black;stop-opacity:0.2371134;"
         offset="0.5"
         id="stop2957" />
      <stop
         id="stop2959"
         offset="0.5"
         style="stop-color:black;stop-opacity:0.49803922;" />
      <stop
         style="stop-color:black;stop-opacity:1;"
         offset="1"
         id="stop2961" />
    </linearGradient>
    <linearGradient
       id="linearGradient12553">
      <stop
         style="stop-color:black;stop-opacity:1;"
         offset="0"
         id="stop12565" />
      <stop
         id="stop2965"
         offset="0.25"
         style="stop-color:black;stop-opacity:0.45360824;" />
      <stop
         style="stop-color:black;stop-opacity:0.45360824;"
         offset="0.5"
         id="stop12561" />
      <stop
         id="stop2963"
         offset="0.75"
         style="stop-color:black;stop-opacity:0.45360824;" />
      <stop
         id="stop12559"
         offset="1"
         style="stop-color:black;stop-opacity:1;" />
    </linearGradient>
    <linearGradient
       inkscape:collect="always"
       id="linearGradient12506">
      <stop
         style="stop-color:white;stop-opacity:1;"
         offset="0"
         id="stop12508" />
      <stop
         style="stop-color:white;stop-opacity:0;"
         offset="1"
         id="stop12510" />
    </linearGradient>
    <linearGradient
       inkscape:collect="always"
       id="linearGradient12457">
      <stop
         style="stop-color:white;stop-opacity:1;"
         offset="0"
         id="stop12459" />
      <stop
         style="stop-color:white;stop-opacity:0;"
         offset="1"
         id="stop12461" />
    </linearGradient>
    <linearGradient
       id="linearGradient11439">
      <stop
         style="stop-color:black;stop-opacity:1;"
         offset="0"
         id="stop11441" />
      <stop
         id="stop11457"
         offset="0.01428571"
         style="stop-color:#373733;stop-opacity:1;" />
      <stop
         id="stop11451"
         offset="0.22244897"
         style="stop-color:#6f6f66;stop-opacity:1;" />
      <stop
         id="stop11447"
         offset="0.5"
         style="stop-color:#8c8e84;stop-opacity:1;" />
      <stop
         style="stop-color:#6d6d64;stop-opacity:1;"
         offset="0.75591838"
         id="stop11449" />
      <stop
         id="stop11453"
         offset="0.97142857"
         style="stop-color:#363631;stop-opacity:1;" />
      <stop
         style="stop-color:black;stop-opacity:1;"
         offset="1"
         id="stop11443" />
    </linearGradient>
    <linearGradient
       id="linearGradient10544">
      <stop
         style="stop-color:black;stop-opacity:1;"
         offset="0"
         id="stop10546" />
      <stop
         style="stop-color:white;stop-opacity:1;"
         offset="1"
         id="stop10548" />
    </linearGradient>
    <linearGradient
       id="linearGradient5703">
      <stop
         style="stop-color: white; stop-opacity: 0;"
         offset="0"
         id="stop5705" />
      <stop
         style="stop-color:#050505;stop-opacity:0.2;"
         offset="0.80000001"
         id="stop5709" />
      <stop
         style="stop-color: black; stop-opacity: 0.784314;"
         offset="1"
         id="stop5707" />
    </linearGradient>
    <linearGradient
       id="linearGradient4789">
      <stop
         style="stop-color: black; stop-opacity: 1;"
         offset="0"
         id="stop4791" />
      <stop
         style="stop-color: black; stop-opacity: 1;"
         offset="0.95"
         id="stop4797" />
      <stop
         style="stop-color: black; stop-opacity: 0.309278;"
         offset="0.97"
         id="stop4799" />
      <stop
         style="stop-color: black; stop-opacity: 0;"
         offset="1"
         id="stop4793" />
    </linearGradient>
    <linearGradient
       id="linearGradient4781">
      <stop
         style="stop-color: black; stop-opacity: 0;"
         offset="0"
         id="stop4783" />
      <stop
         style="stop-color: black; stop-opacity: 0;"
         offset="1"
         id="stop4785" />
    </linearGradient>
    <linearGradient
       id="linearGradient3846">
      <stop
         style="stop-color:white;stop-opacity:1;"
         offset="0"
         id="stop3848" />
      <stop
         id="stop2940"
         offset="0"
         style="stop-color:white;stop-opacity:0.49803922;" />
      <stop
         id="stop2938"
         offset="1"
         style="stop-color:white;stop-opacity:0;" />
    </linearGradient>
    <linearGradient
       id="linearGradient2804">
      <stop
         style="stop-color: black; stop-opacity: 1;"
         offset="0"
         id="stop5715" />
      <stop
         style="stop-color: black; stop-opacity: 1;"
         offset="0.5"
         id="stop5725" />
      <stop
         style="stop-color: black; stop-opacity: 0;"
         offset="1"
         id="stop2812" />
    </linearGradient>
    <linearGradient
       id="linearGradient2788">
      <stop
         style="stop-color: white; stop-opacity: 1;"
         offset="0"
         id="stop2796" />
      <stop
         style="stop-color: white; stop-opacity: 0;"
         offset="1"
         id="stop2792" />
    </linearGradient>
    <radialGradient
       cx="-690"
       cy="120.934"
       r="252.85699"
       fx="-690"
       fy="120.934"
       id="radialGradient2794"
       xlink:href="#linearGradient2788"
       gradientUnits="userSpaceOnUse" />
    <radialGradient
       cx="-690"
       cy="120.934"
       r="252.85699"
       fx="-690"
       fy="120.934"
       id="radialGradient2802"
       xlink:href="#linearGradient2804"
       gradientUnits="userSpaceOnUse" />
    <radialGradient
       cx="-690"
       cy="120.934"
       r="252.85699"
       fx="-690"
       fy="120.934"
       id="radialGradient2846"
       xlink:href="#linearGradient2804"
       gradientUnits="userSpaceOnUse" />
    <radialGradient
       cx="277.14301"
       cy="493.07599"
       r="42.857101"
       fx="277.14301"
       fy="493.07599"
       id="radialGradient3862"
       xlink:href="#linearGradient3846"
       gradientUnits="userSpaceOnUse"
       gradientTransform="matrix(1,0,0,1.01667,0,-8.21795)" />
    <radialGradient
       cx="334.36099"
       cy="342.63501"
       r="138.39101"
       fx="334.36099"
       fy="342.63501"
       id="radialGradient3864"
       xlink:href="#linearGradient2788"
       gradientUnits="userSpaceOnUse"
       gradientTransform="matrix(1.17605,9.06136e-4,0,0.847704,-58.8635,56.1937)" />
    <radialGradient
       cx="-690"
       cy="120.934"
       r="254.85699"
       fx="-690"
       fy="120.934"
       id="radialGradient4787"
       xlink:href="#linearGradient4781"
       gradientUnits="userSpaceOnUse" />
    <radialGradient
       cx="-690"
       cy="120.934"
       r="254.85699"
       fx="-690"
       fy="120.934"
       id="radialGradient4795"
       xlink:href="#linearGradient4789"
       gradientUnits="userSpaceOnUse" />
    <radialGradient
       cx="326.51599"
       cy="865.25299"
       r="241.703"
       fx="326.51599"
       fy="865.25299"
       id="radialGradient5697"
       xlink:href="#linearGradient2788"
       gradientUnits="userSpaceOnUse"
       gradientTransform="matrix(1,0,0,1.07597,0,-145.846)" />
    <radialGradient
       cx="-690"
       cy="120.934"
       r="252.85699"
       fx="-690"
       fy="120.934"
       id="radialGradient5795"
       xlink:href="#linearGradient5703"
       gradientUnits="userSpaceOnUse"
       gradientTransform="matrix(0.711864,0.677966,-0.689655,0.724138,-115.411,501.158)" />
    <radialGradient
       cx="-690"
       cy="120.934"
       r="252.85699"
       fx="-690"
       fy="120.934"
       id="radialGradient5797"
       xlink:href="#linearGradient2804"
       gradientUnits="userSpaceOnUse" />
    <radialGradient
       cx="-690"
       cy="120.934"
       r="252.85699"
       fx="-690"
       fy="120.934"
       id="radialGradient5836"
       xlink:href="#linearGradient2804"
       gradientUnits="userSpaceOnUse" />
    <radialGradient
       cx="-690"
       cy="120.934"
       r="254.85699"
       fx="-690"
       fy="120.934"
       id="radialGradient5838"
       xlink:href="#linearGradient4789"
       gradientUnits="userSpaceOnUse" />
    <radialGradient
       cx="-690"
       cy="120.934"
       r="254.85699"
       fx="-690"
       fy="120.934"
       id="radialGradient5840"
       xlink:href="#linearGradient4781"
       gradientUnits="userSpaceOnUse" />
    <radialGradient
       cx="326.51599"
       cy="865.25299"
       r="241.703"
       fx="326.51599"
       fy="865.25299"
       id="radialGradient5842"
       xlink:href="#linearGradient2788"
       gradientUnits="userSpaceOnUse"
       gradientTransform="matrix(1,0,0,1.07597,0,-145.846)" />
    <radialGradient
       cx="-690"
       cy="120.934"
       r="252.85699"
       fx="-690"
       fy="120.934"
       id="radialGradient5844"
       xlink:href="#linearGradient5703"
       gradientUnits="userSpaceOnUse"
       gradientTransform="matrix(0.711864,0.677966,-0.689655,0.724138,-115.411,501.158)" />
    <radialGradient
       cx="277.14301"
       cy="493.07599"
       r="42.857101"
       fx="277.14301"
       fy="493.07599"
       id="radialGradient5846"
       xlink:href="#linearGradient3846"
       gradientUnits="userSpaceOnUse"
       gradientTransform="matrix(1,0,0,1.01667,0,-8.21795)" />
    <radialGradient
       cx="334.36099"
       cy="342.63501"
       r="138.39101"
       fx="334.36099"
       fy="342.63501"
       id="radialGradient5848"
       xlink:href="#linearGradient2788"
       gradientUnits="userSpaceOnUse"
       gradientTransform="matrix(1.17605,9.06136e-4,0,0.847704,-58.8635,56.1937)" />
    <radialGradient
       inkscape:collect="always"
       xlink:href="#linearGradient2804"
       id="radialGradient1987"
       gradientUnits="userSpaceOnUse"
       gradientTransform="matrix(1.09757,0,0,1.09757,1146.701,300.0963)"
       cx="-690"
       cy="120.934"
       fx="-690"
       fy="120.934"
       r="252.85699" />
    <radialGradient
       inkscape:collect="always"
       xlink:href="#linearGradient4789"
       id="radialGradient1989"
       gradientUnits="userSpaceOnUse"
       gradientTransform="matrix(1.05045,0,0,1.05045,1086.745,238.9023)"
       cx="-690"
       cy="120.934"
       fx="-690"
       fy="120.934"
       r="254.85699" />
    <radialGradient
       inkscape:collect="always"
       xlink:href="#linearGradient4781"
       id="radialGradient1991"
       gradientUnits="userSpaceOnUse"
       gradientTransform="matrix(1.05045,0,0,1.05045,1086.745,238.9023)"
       cx="-690"
       cy="120.934"
       fx="-690"
       fy="120.934"
       r="254.85699" />
    <radialGradient
       inkscape:collect="always"
       xlink:href="#linearGradient2788"
       id="radialGradient1993"
       gradientUnits="userSpaceOnUse"
       gradientTransform="matrix(1,0,0,1.07597,36.66668,-319.1287)"
       cx="326.51599"
       cy="865.25299"
       fx="326.51599"
       fy="865.25299"
       r="241.703" />
    <radialGradient
       inkscape:collect="always"
       xlink:href="#linearGradient5703"
       id="radialGradient1995"
       gradientUnits="userSpaceOnUse"
       gradientTransform="matrix(0.71572,0.681639,-0.693391,0.728061,939.6373,747.9323)"
       cx="-690"
       cy="120.934"
       fx="-690"
       fy="120.934"
       r="252.85699" />
    <radialGradient
       inkscape:collect="always"
       xlink:href="#linearGradient3846"
       id="radialGradient1997"
       gradientUnits="userSpaceOnUse"
       gradientTransform="matrix(1,0,0,1.01667,-67.5546,-309.2839)"
       cx="277.14301"
       cy="493.07599"
       fx="277.14301"
       fy="493.07599"
       r="42.857101" />
    <radialGradient
       inkscape:collect="always"
       xlink:href="#linearGradient2928"
       id="radialGradient1999"
       gradientUnits="userSpaceOnUse"
       gradientTransform="matrix(1.17605,9.59901e-4,0,0.898003,-31.05372,-126.7877)"
       cx="334.36099"
       cy="342.63501"
       fx="334.36099"
       fy="342.63501"
       r="138.39101" />
    <linearGradient
       inkscape:collect="always"
       xlink:href="#linearGradient10544"
       id="linearGradient10550"
       x1="463.56613"
       y1="445.7309"
       x2="36.68906"
       y2="191.1875"
       gradientUnits="userSpaceOnUse" />
    <linearGradient
       inkscape:collect="always"
       xlink:href="#linearGradient10544"
       id="linearGradient12445"
       gradientUnits="userSpaceOnUse"
       x1="463.56613"
       y1="445.7309"
       x2="36.68906"
       y2="191.1875" />
    <linearGradient
       inkscape:collect="always"
       xlink:href="#linearGradient10544"
       id="linearGradient12449"
       gradientUnits="userSpaceOnUse"
       x1="463.56613"
       y1="445.7309"
       x2="36.68906"
       y2="191.1875" />
    <linearGradient
       inkscape:collect="always"
       xlink:href="#linearGradient10544"
       id="linearGradient12453"
       gradientUnits="userSpaceOnUse"
       x1="463.56613"
       y1="445.7309"
       x2="36.68906"
       y2="191.1875"
       gradientTransform="matrix(1.165751,0,0,1.165751,-20.25901,23.54148)" />
    <linearGradient
       inkscape:collect="always"
       xlink:href="#linearGradient12457"
       id="linearGradient12463"
       x1="-78.592926"
       y1="518.79889"
       x2="-74.936096"
       y2="397.17654"
       gradientUnits="userSpaceOnUse" />
    <linearGradient
       inkscape:collect="always"
       xlink:href="#linearGradient12506"
       id="linearGradient12512"
       x1="-441.23462"
       y1="60.593742"
       x2="-441.23462"
       y2="187.87296"
       gradientUnits="userSpaceOnUse" />
    <radialGradient
       inkscape:collect="always"
       xlink:href="#linearGradient2788"
       id="radialGradient12517"
       gradientUnits="userSpaceOnUse"
       gradientTransform="matrix(0.342132,3.575254e-4,0,0.334471,-53.94522,246.1777)"
       cx="334.36099"
       cy="342.63501"
       fx="334.36099"
       fy="342.63501"
       r="138.39101" />
    <radialGradient
       inkscape:collect="always"
       xlink:href="#linearGradient5703"
       id="radialGradient12521"
       cx="276.95529"
       cy="383.49066"
       fx="276.95529"
       fy="383.49066"
       r="267.25995"
       gradientTransform="matrix(1,0,0,0.545987,0,174.1098)"
       gradientUnits="userSpaceOnUse" />
    <linearGradient
       inkscape:collect="always"
       xlink:href="#linearGradient3846"
       id="linearGradient12529"
       x1="270.5625"
       y1="529.41162"
       x2="265.53021"
       y2="407.65625"
       gradientUnits="userSpaceOnUse"
       gradientTransform="translate(0,6)" />
    <radialGradient
       inkscape:collect="always"
       xlink:href="#linearGradient2913"
       id="radialGradient12531"
       gradientUnits="userSpaceOnUse"
       gradientTransform="matrix(1,0,0,0.545987,0,180.1098)"
       cx="276.95529"
       cy="383.49066"
       fx="276.95529"
       fy="383.49066"
       r="267.25995" />
    <radialGradient
       inkscape:collect="always"
       xlink:href="#linearGradient2788"
       id="radialGradient12535"
       gradientUnits="userSpaceOnUse"
       gradientTransform="matrix(0.369173,3.575254e-4,0,0.334471,369.7384,241.3313)"
       cx="334.36099"
       cy="342.63501"
       fx="334.36099"
       fy="342.63501"
       r="138.39101" />
    <linearGradient
       inkscape:collect="always"
       xlink:href="#linearGradient11439"
       id="linearGradient12543"
       x1="92.325661"
       y1="108.49001"
       x2="189.03113"
       y2="80.276794"
       gradientUnits="userSpaceOnUse" />
    <linearGradient
       inkscape:collect="always"
       xlink:href="#linearGradient12553"
       id="linearGradient12551"
       gradientUnits="userSpaceOnUse"
       x1="92.325661"
       y1="108.49001"
       x2="189.03113"
       y2="80.276794" />
    <linearGradient
       inkscape:collect="always"
       xlink:href="#linearGradient12553"
       id="linearGradient12569"
       gradientUnits="userSpaceOnUse"
       x1="92.325661"
       y1="108.49001"
       x2="189.03113"
       y2="80.276794" />
    <linearGradient
       inkscape:collect="always"
       xlink:href="#linearGradient11439"
       id="linearGradient12571"
       gradientUnits="userSpaceOnUse"
       x1="92.325661"
       y1="108.49001"
       x2="189.03113"
       y2="80.276794" />
    <linearGradient
       inkscape:collect="always"
       xlink:href="#linearGradient11439"
       id="linearGradient12575"
       gradientUnits="userSpaceOnUse"
       x1="92.325661"
       y1="108.49001"
       x2="189.03113"
       y2="80.276794" />
    <radialGradient
       inkscape:collect="always"
       xlink:href="#linearGradient2788"
       id="radialGradient12585"
       gradientUnits="userSpaceOnUse"
       gradientTransform="matrix(0.192176,-5.087995e-2,0.731412,2.60841,-241.6977,-1019.125)"
       cx="334.36099"
       cy="342.63501"
       fx="334.36099"
       fy="342.63501"
       r="138.39101" />
    <linearGradient
       inkscape:collect="always"
       xlink:href="#linearGradient11439"
       id="linearGradient12592"
       gradientUnits="userSpaceOnUse"
       x1="92.325661"
       y1="108.49001"
       x2="189.03113"
       y2="80.276794" />
    <linearGradient
       inkscape:collect="always"
       xlink:href="#linearGradient12553"
       id="linearGradient12594"
       gradientUnits="userSpaceOnUse"
       x1="92.325661"
       y1="108.49001"
       x2="189.03113"
       y2="80.276794" />
    <radialGradient
       inkscape:collect="always"
       xlink:href="#linearGradient2788"
       id="radialGradient12596"
       gradientUnits="userSpaceOnUse"
       gradientTransform="matrix(0.192176,-5.087995e-2,0.731412,2.60841,-241.6977,-1019.125)"
       cx="334.36099"
       cy="342.63501"
       fx="334.36099"
       fy="342.63501"
       r="138.39101" />
    <linearGradient
       inkscape:collect="always"
       xlink:href="#linearGradient12553"
       id="linearGradient2058"
       gradientUnits="userSpaceOnUse"
       gradientTransform="translate(5.656854,19.79899)"
       x1="92.325661"
       y1="108.49001"
       x2="189.03113"
       y2="80.276794" />
    <radialGradient
       inkscape:collect="always"
       xlink:href="#linearGradient2788"
       id="radialGradient2061"
       gradientUnits="userSpaceOnUse"
       gradientTransform="matrix(0.192176,-5.087995e-2,0.731412,2.60841,-236.0408,-999.326)"
       cx="334.36099"
       cy="342.63501"
       fx="334.36099"
       fy="342.63501"
       r="138.39101" />
    <linearGradient
       inkscape:collect="always"
       xlink:href="#linearGradient11439"
       id="linearGradient2064"
       gradientUnits="userSpaceOnUse"
       gradientTransform="translate(5.656854,19.79899)"
       x1="92.325661"
       y1="108.49001"
       x2="189.03113"
       y2="80.276794" />
    <linearGradient
       inkscape:collect="always"
       xlink:href="#linearGradient10544"
       id="linearGradient4326"
       gradientUnits="userSpaceOnUse"
       gradientTransform="matrix(1.165053,0,0,1.165751,-20.14109,23.54148)"
       x1="463.56613"
       y1="445.7309"
       x2="36.68906"
       y2="191.1875" />
    <radialGradient
       inkscape:collect="always"
       xlink:href="#linearGradient2788"
       id="radialGradient4341"
       gradientUnits="userSpaceOnUse"
       gradientTransform="matrix(0.342132,3.575254e-4,0,0.334471,-96.36425,193.6809)"
       cx="334.36099"
       cy="342.63501"
       fx="334.36099"
       fy="342.63501"
       r="138.39101" />
    <radialGradient
       inkscape:collect="always"
       xlink:href="#linearGradient4374"
       id="radialGradient4370"
       cx="-18"
       cy="330.13702"
       fx="-18"
       fy="330.13702"
       r="29"
       gradientTransform="matrix(0.852624,-1.667118e-2,0.101116,5.171426,-36.03485,-1377.441)"
       gradientUnits="userSpaceOnUse" />
    <linearGradient
       inkscape:collect="always"
       xlink:href="#linearGradient4406"
       id="linearGradient2943"
       gradientUnits="userSpaceOnUse"
       gradientTransform="matrix(1.165751,0,0,1.165751,-28.25901,7.54148)"
       x1="463.56613"
       y1="445.7309"
       x2="36.68906"
       y2="191.1875" />
    <linearGradient
       inkscape:collect="always"
       xlink:href="#linearGradient4406"
       id="linearGradient3375"
       gradientUnits="userSpaceOnUse"
       gradientTransform="matrix(1.165751,0,0,1.165751,-28.25901,7.54148)"
       x1="463.56613"
       y1="445.7309"
       x2="36.68906"
       y2="191.1875" />
    <linearGradient
       inkscape:collect="always"
       xlink:href="#linearGradient10544"
       id="linearGradient3377"
       gradientUnits="userSpaceOnUse"
       gradientTransform="matrix(1.165053,0,0,1.165751,-20.14109,23.54148)"
       x1="463.56613"
       y1="445.7309"
       x2="36.68906"
       y2="191.1875" />
    <linearGradient
       inkscape:collect="always"
       xlink:href="#linearGradient3846"
       id="linearGradient3379"
       gradientUnits="userSpaceOnUse"
       gradientTransform="translate(0,6)"
       x1="270.5625"
       y1="529.41162"
       x2="265.53021"
       y2="407.65625" />
    <radialGradient
       inkscape:collect="always"
       xlink:href="#linearGradient2913"
       id="radialGradient3381"
       gradientUnits="userSpaceOnUse"
       gradientTransform="matrix(1,0,0,0.545987,0,180.1098)"
       cx="276.95529"
       cy="383.49066"
       fx="276.95529"
       fy="383.49066"
       r="267.25995" />
    <radialGradient
       inkscape:collect="always"
       xlink:href="#linearGradient4374"
       id="radialGradient3383"
       gradientUnits="userSpaceOnUse"
       gradientTransform="matrix(0.852624,-1.667118e-2,0.101116,5.171426,-36.03485,-1377.441)"
       cx="-18"
       cy="330.13702"
       fx="-18"
       fy="330.13702"
       r="29" />
    <linearGradient
       inkscape:collect="always"
       xlink:href="#linearGradient11439"
       id="linearGradient3385"
       gradientUnits="userSpaceOnUse"
       gradientTransform="translate(5.656854,19.79899)"
       x1="92.325661"
       y1="108.49001"
       x2="189.03113"
       y2="80.276794" />
    <radialGradient
       inkscape:collect="always"
       xlink:href="#linearGradient2788"
       id="radialGradient3387"
       gradientUnits="userSpaceOnUse"
       gradientTransform="matrix(0.192176,-5.087995e-2,0.731412,2.60841,-236.0408,-999.326)"
       cx="334.36099"
       cy="342.63501"
       fx="334.36099"
       fy="342.63501"
       r="138.39101" />
    <linearGradient
       inkscape:collect="always"
       xlink:href="#linearGradient12553"
       id="linearGradient3389"
       gradientUnits="userSpaceOnUse"
       gradientTransform="translate(5.656854,19.79899)"
       x1="92.325661"
       y1="108.49001"
       x2="189.03113"
       y2="80.276794" />
    <radialGradient
       inkscape:collect="always"
       xlink:href="#linearGradient2788"
       id="radialGradient3391"
       gradientUnits="userSpaceOnUse"
       gradientTransform="matrix(0.342132,3.575254e-4,0,0.334471,-53.94522,246.1777)"
       cx="334.36099"
       cy="342.63501"
       fx="334.36099"
       fy="342.63501"
       r="138.39101" />
  </defs>
  <g
     inkscape:groupmode="layer"
     id="layer4"
     inkscape:label="Foo"
     style="opacity:1;display:inline">
    <g
       transform="translate(36.66668,-179.2827)"
       style="opacity:1;display:inline"
       id="layer1" />
    <path
       d="M 627.54928,365.93629 C 627.54928,512.63129 508.63028,631.55029 361.93628,631.55029 C 215.24128,631.55029 96.322268,512.63129 96.322268,365.93629 C 96.322268,219.24229 215.24128,100.32317 361.93628,100.32317 C 508.63028,100.32317 627.54928,219.24229 627.54928,365.93629 L 627.54928,365.93629 z "
       style="opacity:1;fill:url(#radialGradient1989);fill-opacity:1;fill-rule:evenodd;stroke:url(#radialGradient1991);stroke-width:4.20179987;stroke-miterlimit:4;stroke-dasharray:none;stroke-opacity:1;display:inline"
       id="path4777" />
    <path
       d="M 666.90928,432.83029 C 666.90928,586.10529 542.65528,710.35929 389.37928,710.35929 C 236.10428,710.35929 111.84998,586.10529 111.84998,432.83029 C 111.84998,279.55429 236.10428,155.30019 389.37928,155.30019 C 542.65528,155.30019 666.90928,279.55429 666.90928,432.83029 L 666.90928,432.83029 z "
       style="opacity:1;fill:url(#radialGradient1987);fill-opacity:1;fill-rule:evenodd;stroke:none;stroke-width:2;stroke-miterlimit:4;stroke-dasharray:none;stroke-opacity:1;display:inline"
       id="path3866" />
    <path
       d="M 614.70828,365.91429 C 614.70828,505.56329 501.50028,618.77129 361.85028,618.77129 C 222.20128,618.77129 108.99348,505.56329 108.99348,365.91429 C 108.99348,226.26529 222.20128,113.05719 361.85028,113.05719 C 501.50028,113.05719 614.70828,226.26529 614.70828,365.91429 L 614.70828,365.91429 z "
       style="opacity:1;fill:red;fill-opacity:0.99117599;fill-rule:evenodd;stroke:none;stroke-width:4;stroke-miterlimit:4;stroke-dasharray:none;stroke-opacity:1;display:inline"
       id="path2832" />
    <path
       d="M 362.20628,113.07069 L 362.20628,618.75829 C 501.62428,618.57129 614.70628,505.37629 614.70628,365.91429 C 614.70628,226.45229 501.62428,113.25769 362.20628,113.07069 z "
       style="opacity:1;fill:black;fill-opacity:1;fill-rule:evenodd;stroke:none;stroke-width:4;stroke-miterlimit:4;stroke-dasharray:none;stroke-opacity:1;display:inline"
       id="path3819" />
    <path
       d="M 361.86228,283.94529 C 265.51628,283.94529 177.38728,307.22929 109.79998,345.72729 C 109.27258,352.39029 108.98748,359.11629 108.98748,365.91429 C 108.98748,505.49129 222.28528,618.75829 361.86228,618.75829 L 361.86228,283.94529 z "
       style="opacity:1;fill:black;fill-opacity:1;fill-rule:evenodd;stroke:none;stroke-width:4;stroke-miterlimit:4;stroke-dasharray:none;stroke-opacity:1;display:inline"
       id="path2834" />
    <path
       d="M 361.86228,284.10229 L 361.86228,618.75829 C 501.43928,618.75829 614.70628,505.49129 614.70628,365.91429 C 614.70628,359.08529 614.42628,352.32629 613.89328,345.63329 C 546.36628,307.29229 458.42728,284.10229 362.30028,284.10229 C 362.15328,284.10229 362.00928,284.10229 361.86228,284.10229 z "
       style="opacity:1;fill:red;fill-opacity:0.99117599;fill-rule:evenodd;stroke:none;stroke-width:4;stroke-miterlimit:4;stroke-dasharray:none;stroke-opacity:1;display:inline"
       id="rect2842" />
    <path
       d="M 616.16228,365.64929 C 616.16228,506.05429 502.34128,619.87629 361.93628,619.87629 C 221.53028,619.87629 107.70898,506.05429 107.70898,365.64929 C 107.70898,225.24329 221.53028,111.42219 361.93628,111.42219 C 502.34128,111.42219 616.16228,225.24329 616.16228,365.64929 L 616.16228,365.64929 z "
       style="opacity:0.75;fill:url(#radialGradient1995);fill-opacity:1;fill-rule:evenodd;stroke:none;stroke-width:2;stroke-miterlimit:4;stroke-dasharray:none;stroke-opacity:1;display:inline"
       id="path5699" />
    <path
       d="M 367.38528,362.87329 C 264.19928,362.87329 173.45838,397.81529 121.47918,450.53029 C 154.46038,551.83429 249.68528,625.12329 361.94828,625.12329 C 477.15828,625.12329 574.42628,547.94129 604.88528,442.49829 C 551.85728,394.30629 465.22428,362.87329 367.38528,362.87329 z "
       style="opacity:0.5;fill:url(#radialGradient1993);fill-opacity:1;fill-rule:evenodd;stroke:none;stroke-width:2;stroke-miterlimit:4;stroke-dasharray:none;stroke-opacity:1;display:inline;color:black;stroke-linecap:butt;stroke-linejoin:miter;marker:none;marker-start:none;marker-mid:none;marker-end:none;stroke-dashoffset:0;visibility:visible;overflow:visible"
       id="path2782" />
    <path
       d="M 500.56128,229.7193 C 500.56128,276.4083 438.60128,314.2563 362.17028,314.2563 C 285.73928,314.2563 223.77928,276.4083 223.77928,229.7193 C 223.77928,183.031 285.73928,145.1824 362.17028,145.1824 C 438.60128,145.1824 500.56128,183.031 500.56128,229.7193 z "
       style="opacity:0.75;fill:url(#radialGradient1999);fill-opacity:1;fill-rule:evenodd;stroke:none;stroke-width:2;stroke-miterlimit:4;stroke-dasharray:none;stroke-opacity:1;display:inline"
       id="path2780" />
    <g
       transform="translate(36.66668,-179.2827)"
       style="display:inline"
       id="layer3" />
    <g
       id="g3315"
       transform="matrix(1.339328,0,0,1.339328,1.973938,-52.14381)">
      <path
         sodipodi:nodetypes="czzzzzccszzzz"
         id="path1564"
         d="M 289.2478,530.80277 C 496.2156,529.3157 522.41499,459.77917 534.05544,438.70847 C 545.56723,417.87067 537.66833,365.34968 520.64932,353.60866 C 503.90733,342.05875 452.59861,354.19153 425.64063,364.6833 C 398.36438,375.29891 344.47524,398.05291 306.15118,397.32431 C 268.41,396.59572 244.80355,364.39186 233.29176,341.36828 C 221.89416,318.57308 204.14799,249.27398 204.14799,249.27398 L 169.17547,258.59998 C 169.17547,258.59998 195.11343,335.97668 195.98774,358.85454 C 197.53597,399.3665 187.2446,426.32236 164.51247,425.30233 C 142.36201,424.3084 102.03622,379.28802 77.505453,372.64354 C 53.017703,366.0107 20.740524,396.61974 14.213475,424.77804 C 7.8218195,452.35223 86.947963,532.2563 289.2478,530.80277 z "
         style="fill:#969696;fill-opacity:1;fill-rule:evenodd;stroke:none;stroke-width:1px;stroke-linecap:butt;stroke-linejoin:miter;stroke-opacity:1" />
      <g
         transform="matrix(0.997097,0,0,1.084254,4.981152e-2,-34.47823)"
         id="g2939">
        <path
           style="opacity:1;fill:url(#linearGradient3375);fill-opacity:1;fill-rule:evenodd;stroke:none;stroke-width:1px;stroke-linecap:butt;stroke-linejoin:miter;stroke-opacity:1;display:inline"
           d="M 199.42667,227.57693 C 184.6655,231.43156 169.93904,235.40267 155.201,239.34372 C 166.66105,278.74801 184.24431,317.77942 183.17902,359.52534 C 182.61431,374.94155 179.76569,392.82383 166.6035,402.47597 C 153.34605,408.86087 139.87666,398.33865 129.48162,391.03703 C 108.66641,376.85376 90.690757,356.17127 65.001038,351.32865 C 39.09717,350.40713 19.147795,371.52527 7.223518,392.38494 C 0.3282738,404.0822 -0.7871325,419.62943 7.733534,430.81827 C 23.374812,455.38742 49.657411,469.72895 74.982349,482.42289 C 141.27726,513.09291 215.71275,519.627 288.05985,519.40575 C 344.04281,518.48524 401.03234,513.02301 453.56032,492.96736 C 488.35791,478.95557 521.61059,452.93913 533.30496,416.17354 C 539.37792,392.43499 535.71863,366.14947 524.45254,344.40701 C 519.33767,334.22226 508.54043,328.41825 497.27597,328.59651 C 458.80163,326.63841 422.84135,341.92668 387.48668,355.19981 C 357.05147,366.52266 325.67385,378.07468 292.68672,376.39229 C 262.65726,372.65275 240.12395,347.21374 228.52609,320.62117 C 215.13774,291.4586 208.81153,259.60889 199.90025,229.03412 C 199.73437,228.64627 199.88183,227.47111 199.42667,227.57693 z "
           id="path4402" />
        <path
           style="opacity:0.509434;fill:#f2f2f2;fill-opacity:1;fill-rule:evenodd;stroke:black;stroke-width:2;stroke-linecap:butt;stroke-linejoin:miter;stroke-miterlimit:4;stroke-dasharray:none;stroke-opacity:0.33774839;display:inline"
           d="M 199.42667,227.57693 C 184.6655,231.43156 169.93904,235.40267 155.201,239.34372 C 166.66105,278.74801 184.24431,317.77942 183.17902,359.52534 C 182.61431,374.94155 179.76569,392.82383 166.6035,402.47597 C 153.34605,408.86087 139.87666,398.33865 129.48162,391.03703 C 108.66641,376.85376 90.690757,356.17127 65.001038,351.32865 C 39.09717,350.40713 19.147795,371.52527 7.223518,392.38494 C 0.3282738,404.0822 -0.7871325,419.62943 7.733534,430.81827 C 23.374812,455.38742 49.657411,469.72895 74.982349,482.42289 C 141.27726,513.09291 215.71275,519.627 288.05985,519.40575 C 344.04281,518.48524 401.03234,513.02301 453.56032,492.96736 C 488.35791,478.95557 521.61059,452.93913 533.30496,416.17354 C 539.37792,392.43499 535.71863,366.14947 524.45254,344.40701 C 519.33767,334.22226 508.54043,328.41825 497.27597,328.59651 C 458.80163,326.63841 422.84135,341.92668 387.48668,355.19981 C 357.05147,366.52266 325.67385,378.07468 292.68672,376.39229 C 262.65726,372.65275 240.12395,347.21374 228.52609,320.62117 C 215.13774,291.4586 208.81153,259.60889 199.90025,229.03412 C 199.73437,228.64627 199.88183,227.47111 199.42667,227.57693 z "
           id="path4413" />
      </g>
      <g
         transform="matrix(0.979477,0,0,1.065094,-3.588411e-2,-30.13701)"
         style="opacity:0.15094341"
         id="g3228">
        <path
           id="path3230"
           d="M 192.51922,233.0201 C 182.09099,235.78164 171.67036,238.57175 161.24787,241.35488 C 174.02936,284.32981 193.69752,327.90828 188.1413,373.84185 C 186.44489,387.02265 181.48669,401.80659 169.26454,408.6232 C 155.04848,414.10226 141.31138,403.87307 130.4219,396.08921 C 109.41148,381.9458 91.204711,360.39083 65.016102,356.10133 C 41.458826,355.91532 22.852622,374.67833 11.457296,393.61932 C 2.7016496,405.78355 1.4446203,423.62504 11.603492,435.40903 C 29.587699,461.25853 58.982296,476.07765 86.96649,488.94889 C 156.09335,518.01801 232.62664,523.2718 307.00981,521.81489 C 362.64577,519.8991 419.28792,513.59098 470.62109,491.14393 C 501.9697,476.29958 531.3508,451.05171 541.05321,416.7353 C 546.50501,392.10349 542.32082,365.06895 529.12365,343.56734 C 520.79333,332.06899 505.39295,332.25125 492.63581,332.97975 C 430.09242,336.56936 376.32376,377.00667 313.81898,381.48743 C 295.24409,383.88955 276.42211,377.83428 262.12422,366.05853 C 235.55068,344.96549 224.15571,311.41604 214.85136,279.8794 C 210.12348,263.54086 206.13419,247.00046 201.39482,230.666 C 198.43629,231.45069 195.47775,232.2354 192.51922,233.0201 z "
           style="opacity:0.06666703;fill:black;fill-opacity:1;fill-rule:evenodd;stroke:black;stroke-width:2.03597808;stroke-linecap:butt;stroke-linejoin:miter;stroke-miterlimit:4;stroke-opacity:1;display:inline" />
        <path
           id="path3235"
           d="M 192.42379,232.67016 C 181.87856,235.46221 171.34159,238.28529 160.8025,241.10038 C 173.58069,284.23589 193.33014,327.83565 187.79137,373.77823 C 186.03615,386.95494 181.13226,402.10345 168.53286,408.49595 C 154.19829,413.50699 140.81339,402.97517 129.80809,395.19093 C 109.02902,381.08156 90.88421,359.80449 64.952478,355.75139 C 41.355121,355.53675 22.607623,374.38508 11.139175,393.42845 C 2.3387955,405.76806 1.0554045,423.65379 11.28537,435.59991 C 29.44298,461.66289 58.795617,476.34027 86.839241,489.29883 C 154.61091,517.81751 229.77152,523.40307 302.71536,522.28597 C 359.51796,520.66546 417.63078,514.52189 470.11107,491.76118 C 501.62423,477.02687 530.78534,452.13869 541.15486,417.90661 C 547.00706,392.98822 542.88955,365.27451 529.40996,343.34465 C 521.64852,332.62651 507.5152,331.77734 495.43458,332.52852 C 432.4531,334.84615 378.53558,375.63083 315.92209,380.96754 C 299.90678,383.10638 283.20132,379.92694 269.71537,371.03492 C 243.444,354.47394 229.57004,325.00946 220.32244,296.40928 C 213.0809,274.6497 208.04042,252.23609 201.64931,230.22063 C 198.57414,231.03713 195.49896,231.85365 192.42379,232.67016 z "
           style="opacity:0.06666703;fill:black;fill-opacity:1;fill-rule:evenodd;stroke:black;stroke-width:2.03597808;stroke-linecap:butt;stroke-linejoin:miter;stroke-miterlimit:4;stroke-opacity:1;display:inline" />
        <path
           id="path3240"
           d="M 192.32835,232.32023 C 181.66613,235.1428 171.01283,237.99884 160.35713,240.84589 C 172.99373,283.69127 192.6177,326.90824 187.58834,372.70727 C 185.88113,386.09443 181.20697,401.60317 168.40561,408.14602 C 154.18754,413.13406 140.9443,402.56067 129.99896,394.90463 C 109.19582,380.70019 90.947451,359.45219 64.98429,355.36965 C 41.895228,355.17205 23.522459,373.04954 12.019597,391.25888 C 2.9968754,403.38083 -0.1821702,421.8396 10.036756,434.34732 C 27.181696,460.3166 56.065564,475.26689 83.498965,488.21721 C 153.89719,518.76404 232.11252,524.05885 308.05915,522.5161 C 363.18842,520.55883 419.39697,514.18361 470.26282,492.09588 C 502.03609,477.22105 531.891,451.80476 541.75308,416.89436 C 547.25544,392.02381 543.05748,364.84091 529.69627,343.12197 C 521.66673,332.00534 506.87695,331.39429 494.41722,332.18248 C 431.03344,335.00027 376.88135,376.23461 313.75535,380.75575 C 293.88251,383.42786 273.78102,375.98922 259.26113,362.68644 C 233.00686,339.63735 222.70832,304.43462 213.31499,271.79813 C 209.50288,257.79261 205.90558,243.72706 201.90381,229.77526 C 198.71199,230.62358 195.52017,231.47191 192.32835,232.32023 z "
           style="opacity:0.06666703;fill:black;fill-opacity:1;fill-rule:evenodd;stroke:black;stroke-width:2.03597808;stroke-linecap:butt;stroke-linejoin:miter;stroke-miterlimit:4;stroke-opacity:1;display:inline" />
        <path
           id="path3245"
           d="M 192.23291,231.97029 C 181.44431,234.8279 170.66318,237.71358 159.87995,240.59139 C 172.49422,283.35585 192.11387,326.44837 187.26018,372.09737 C 185.69265,385.57384 181.0385,401.24718 168.27836,407.79608 C 154.14905,412.75489 141.03203,402.13152 130.22165,394.61832 C 109.35154,380.36475 91.018517,359.00546 64.98429,355.01971 C 42.581552,354.80687 24.57511,371.48821 12.989242,389.11694 C 3.5616917,401.40772 -1.0471044,419.69468 8.7403977,433.11856 C 26.453631,460.75861 57.084723,476.4062 86.135246,489.76529 C 155.17911,518.96561 231.71266,524.29965 306.02408,522.92697 C 362.08833,521.09347 419.35528,514.75317 471.09828,492.13011 C 502.17886,477.40745 530.75162,452.91577 541.62583,419.15302 C 547.85607,393.63838 543.78213,365.22033 529.98258,342.89928 C 522.60927,332.64863 509.00712,331.0139 497.18424,331.73322 C 431.7048,333.37726 375.89429,377.18911 310.60595,380.59669 C 284.23299,383.34935 259.9923,367.26505 245.16198,346.76128 C 223.42068,316.33848 215.9731,278.63567 206.00702,243.15555 C 203.32679,239.57287 205.39741,227.61146 199.20698,230.11501 C 196.88229,230.73344 194.5576,231.35187 192.23291,231.97029 z "
           style="opacity:0.06666703;fill:black;fill-opacity:1;fill-rule:evenodd;stroke:black;stroke-width:2.03597808;stroke-linecap:butt;stroke-linejoin:miter;stroke-miterlimit:4;stroke-opacity:1;display:inline" />
        <path
           id="path3250"
           d="M 192.13748,231.62036 C 181.23188,234.5085 170.33441,237.42713 159.43458,240.33689 C 172.19713,283.711 192.20212,327.34876 186.70975,373.61917 C 184.99009,386.41816 180.31358,401.24878 168.15111,407.44615 C 153.67385,412.4824 140.42391,401.14645 129.27666,393.51242 C 108.84276,379.2407 90.695847,358.60486 64.98429,354.63797 C 41.60609,354.49956 23.144859,372.28955 11.436886,390.87076 C 2.0288381,403.37918 -0.8792079,422.31827 9.6311381,435.0591 C 27.839986,462.15265 58.248381,477.43235 87.335767,490.67118 C 157.51906,519.90268 235.06168,524.94452 310.35058,523.16846 C 365.03005,521.08302 420.77727,514.56553 471.22553,492.44823 C 503.24776,477.30664 533.2885,451.35914 542.71158,416.06102 C 547.86247,391.2728 543.59448,364.18428 530.26889,342.6766 C 522.46573,331.79145 507.80874,330.57188 495.40276,331.41509 C 429.28816,333.79875 372.8663,378.7831 306.47057,380.33074 C 277.92919,381.56886 253.55412,361.1028 239.60122,337.84115 C 220.05003,304.43035 213.2089,265.59317 202.4128,228.88452 C 198.9877,229.79646 195.56258,230.70842 192.13748,231.62036 z "
           style="opacity:0.06666703;fill:black;fill-opacity:1;fill-rule:evenodd;stroke:black;stroke-width:2.03597808;stroke-linecap:butt;stroke-linejoin:miter;stroke-miterlimit:4;stroke-opacity:1;display:inline" />
        <path
           id="path3255"
           d="M 192.04204,231.27043 C 181.01945,234.18904 170.00566,237.14072 158.98921,240.08239 C 171.24239,281.91516 190.12658,323.48444 186.9521,367.96726 C 185.84029,382.19021 181.92807,398.33984 169.35997,406.58722 C 157.52597,411.87321 145.07342,404.29903 135.60728,397.48894 C 112.98038,382.9151 94.526299,360.4355 67.306577,354.51072 C 47.98991,352.81529 30.710891,365.24622 19.192402,379.48222 C 9.9425555,391.20377 0.20952333,405.12744 2.9868783,420.88612 C 4.9301804,432.27443 13.514877,441.22956 20.8575,449.51535 C 39.193442,467.81915 62.721514,479.99404 86.23481,490.60312 C 151.95652,518.39009 224.68783,524.32248 295.513,523.90308 C 353.31429,522.74014 412.23673,517.03935 466.16126,495.13662 C 498.5496,481.08864 528.7724,456.73404 541.14864,422.81142 C 549.26491,396.88516 544.87356,367.47681 531.76406,344.10815 C 525.35569,334.15067 513.37548,330.29029 501.8971,331.02059 C 460.12899,330.3559 421.56832,348.6496 383.13766,362.52738 C 355.19457,372.54009 325.81296,382.06323 295.76325,379.49626 C 267.05987,374.82484 245.394,351.16704 233.47488,325.76038 C 218.87708,294.86608 212.04841,261.12866 202.73093,228.43915 C 199.16797,229.3829 195.605,230.32667 192.04204,231.27043 z "
           style="opacity:0.06666703;fill:black;fill-opacity:1;fill-rule:evenodd;stroke:black;stroke-width:2.03597808;stroke-linecap:butt;stroke-linejoin:miter;stroke-miterlimit:4;stroke-opacity:1;display:inline" />
        <path
           id="path3260"
           d="M 191.94661,230.92049 C 180.79765,233.87425 169.65597,236.85528 158.51203,239.8279 C 168.5848,274.15601 182.8773,307.68122 186.26734,343.61489 C 187.51764,358.75628 187.50665,374.50985 182.27571,388.96329 C 179.63809,395.65535 175.59109,402.12961 169.50561,406.10017 C 161.34363,410.1062 151.83325,407.15649 144.45299,402.81299 C 130.84824,394.54043 118.43947,384.41252 105.98678,374.49032 C 94.042483,365.19324 81.017771,356.52621 65.829717,353.92828 C 50.591123,353.35252 36.305878,361.2497 25.872374,371.65285 C 17.592417,379.86833 10.571538,389.62337 5.4001213,400.16116 C 0.61745853,411.03114 0.83770186,424.68246 8.2632154,434.29561 C 21.341049,454.88518 42.157443,468.60426 63.344482,479.89169 C 85.550056,492.08006 109.57322,500.61402 133.96119,507.26214 C 186.67036,521.27027 241.54318,524.61372 295.87651,524.27857 C 348.02566,523.27274 400.79247,518.35745 450.43036,501.4632 C 476.66871,492.8555 501.26026,478.55634 519.96175,458.0911 C 530.32564,446.56659 538.87261,432.84574 543.07282,417.70466 C 548.8045,393.01033 544.56349,366.27479 532.23952,344.22202 C 526.6597,335.25275 515.71891,330.29613 505.22428,330.74127 C 475.12694,329.39311 445.91122,338.67771 418.04499,349.03909 C 387.88831,360.09464 358.04063,373.14451 326.06666,377.98809 C 316.19186,379.32564 306.12156,380.20278 296.18592,379.17165 C 275.68575,376.11543 258.30717,362.63577 246.22723,346.35772 C 234.9256,331.30745 228.08052,313.49254 222.01753,295.79942 C 214.7706,273.7139 209.52419,251.02107 203.14448,228.69364 C 202.87923,226.91999 199.75627,229.37854 198.4511,229.18223 C 196.28293,229.76165 194.11477,230.34107 191.94661,230.92049 z "
           style="opacity:0.06666703;fill:black;fill-opacity:1;fill-rule:evenodd;stroke:black;stroke-width:2.03597808;stroke-linecap:butt;stroke-linejoin:miter;stroke-miterlimit:4;stroke-opacity:1;display:inline" />
        <path
           id="path3265"
           d="M 199.42667,227.57693 C 184.6655,231.43156 169.93904,235.40267 155.201,239.34372 C 166.66105,278.74801 184.24431,317.77942 183.17902,359.52534 C 182.61431,374.94155 179.76569,392.82383 166.6035,402.47597 C 153.34605,408.86087 139.87666,398.33865 129.48162,391.03703 C 108.66641,376.85376 90.690757,356.17127 65.001038,351.32865 C 39.09717,350.40713 19.147795,371.52527 7.223518,392.38494 C 0.3282738,404.0822 -0.7871325,419.62943 7.733534,430.81827 C 23.374812,455.38742 49.657411,469.72895 74.982349,482.42289 C 141.27726,513.09291 215.71275,519.627 288.05985,519.40575 C 344.04281,518.48524 401.03234,513.02301 453.56032,492.96736 C 488.35791,478.95557 521.61059,452.93913 533.30496,416.17354 C 539.37792,392.43499 535.71863,366.14947 524.45254,344.40701 C 519.33767,334.22226 508.54043,328.41825 497.27597,328.59651 C 458.80163,326.63841 422.84135,341.92668 387.48668,355.19981 C 357.05147,366.52266 325.67385,378.07468 292.68672,376.39229 C 262.65726,372.65275 240.12395,347.21374 228.52609,320.62117 C 215.13774,291.4586 208.81153,259.60889 199.90025,229.03412 C 199.73437,228.64627 199.88183,227.47111 199.42667,227.57693 z "
           style="opacity:0.06666703;fill:black;fill-opacity:1;fill-rule:evenodd;stroke:black;stroke-width:2;stroke-linecap:butt;stroke-linejoin:miter;stroke-miterlimit:4;stroke-opacity:1;display:inline"
           transform="matrix(1.017989,0,0,1.017989,8.749122e-2,-4.075905)" />
        <path
           id="path3268"
           d="M 191.75573,230.22063 C 180.37327,233.23719 168.99748,236.27886 157.62129,239.3189 C 167.63036,273.87557 182.14462,307.54146 185.56747,343.67851 C 186.80959,358.69892 186.82193,374.33678 181.59253,388.66559 C 178.99546,395.39424 174.95974,401.74137 168.88279,405.60104 C 160.51291,409.49581 151.0252,406.00665 143.66365,401.49857 C 130.71123,393.4427 118.68247,383.70477 106.72015,374.1396 C 94.571954,364.70664 81.333488,355.75586 65.893328,353.22892 C 50.302964,352.60286 35.71507,360.68684 25.028222,371.4666 C 16.724803,379.83296 9.6770679,389.55821 4.5985762,400.21303 C -0.19034969,411.34859 0.23801726,425.25807 7.8545253,435.01554 C 20.330837,454.49724 39.932538,467.99304 59.961677,478.89156 C 74.854813,487.18092 90.478718,494.08138 106.5995,499.60861 C 162.35327,519.08186 221.86915,524.45553 280.58435,524.99706 C 312.75282,525.16664 344.97826,523.49414 376.86734,519.16937 C 407.00674,514.9193 436.94693,508.10216 465.24484,496.74287 C 491.42184,485.50684 515.75218,468.27105 531.57319,444.28463 C 538.40375,433.58463 544.02592,421.79485 545.38616,409.02749 C 548.37946,386.60759 543.82492,363.19833 532.68661,343.53553 C 526.78902,334.40264 515.65534,329.51658 504.86093,330.02887 C 474.68102,328.76428 445.3926,338.0673 417.44994,348.46653 C 388.28679,359.16047 359.44729,371.69832 328.63417,376.86716 C 317.97403,378.5113 307.07146,379.56258 296.31317,378.47178 C 277.51248,375.65644 261.33752,363.94365 249.64942,349.58225 C 236.33543,333.3881 228.74656,313.43508 222.10453,293.71769 C 215.16006,272.26383 210.09199,250.24421 203.84435,228.59821 C 204.11156,227.14021 202.65176,226.90016 201.61168,227.60351 C 198.32636,228.47588 195.04105,229.34825 191.75573,230.22063 z "
           style="opacity:0.06666703;fill:black;fill-opacity:1;fill-rule:evenodd;stroke:black;stroke-width:2.03597808;stroke-linecap:butt;stroke-linejoin:miter;stroke-miterlimit:4;stroke-opacity:1;display:inline" />
        <path
           id="path3273"
           d="M 202.9218,226.88035 C 187.65789,230.92413 172.40143,234.99595 157.14411,239.06441 C 169.29846,281.01084 188.43146,322.51533 185.55433,367.06936 C 184.54673,381.01649 180.99606,397.02716 168.72373,405.25111 C 157.26296,410.27193 145.53379,402.75899 136.43439,396.28008 C 114.07596,381.91246 95.645259,359.662 68.833561,353.39729 C 53.528656,350.91271 38.457829,358.69367 27.382321,368.69894 C 16.920863,378.82294 7.4182978,390.80635 2.6324637,404.67849 C -0.94189804,416.02244 1.6839721,428.76131 9.2824012,437.81957 C 26.642907,462.58438 54.479356,477.29127 81.296434,490.0183 C 146.82633,518.94373 219.76927,525.49384 290.79153,525.40562 C 349.88127,524.62602 410.09078,519.03734 465.4039,497.06099 C 498.31327,483.03412 529.18796,458.66404 542.10105,424.3564 C 550.56115,399.39052 546.87562,371.05217 535.34396,347.66095 C 530.19935,335.45555 516.71898,328.76481 503.77435,329.60811 C 460.67732,328.25311 420.87398,347.54031 381.25896,361.6163 C 353.99697,371.41274 325.31992,380.5168 296.01775,378.0329 C 268.93351,373.71045 248.27262,351.93025 236.32456,328.2975 C 220.63042,296.47165 213.54167,261.08056 203.90798,227.13485 C 203.57307,227.02442 203.29313,226.72809 202.9218,226.88035 z "
           style="opacity:0.06666703;fill:black;fill-opacity:1;fill-rule:evenodd;stroke:black;stroke-width:2.03597808;stroke-linecap:butt;stroke-linejoin:miter;stroke-miterlimit:4;stroke-opacity:1;display:inline" />
        <path
           id="path3278"
           d="M 202.82636,226.53042 C 187.44588,230.6063 172.07174,234.706 156.69874,238.80991 C 169.23235,282.39834 189.71267,325.89335 184.69343,372.32553 C 183.06919,384.80682 178.89023,399.74826 166.815,405.63286 C 152.3133,409.7673 139.813,397.72086 128.6086,390.33121 C 108.70427,376.01469 90.335736,356.0028 65.016102,352.47474 C 40.569656,352.23203 21.084907,371.03504 9.0560739,390.55941 C -0.51130151,403.60995 -2.8571144,423.13016 7.786033,436.26796 C 26.213161,463.69373 57.089332,479.32719 86.4749,492.68005 C 156.98034,522.06053 234.82003,527.11638 310.4142,525.33169 C 365.36882,523.27411 421.43814,516.66654 472.17989,494.42058 C 504.54313,479.08288 534.67107,453.05393 544.58436,417.5306 C 550.27977,391.86382 545.88548,363.58909 531.98674,341.30868 C 524.5021,331.12711 511.07606,328.29395 498.99754,329.18824 C 432.31719,329.79642 375.74231,374.98223 309.46163,378.09499 C 283.12369,380.45481 259.47554,363.43391 245.3274,342.61297 C 224.58242,311.63827 217.46363,273.98953 207.37523,238.565 C 205.62716,234.85678 206.0415,229.40168 203.43079,226.4986 C 203.23072,226.52136 203.02197,226.4626 202.82636,226.53042 z "
           style="opacity:0.06666703;fill:black;fill-opacity:1;fill-rule:evenodd;stroke:black;stroke-width:2.03597808;stroke-linecap:butt;stroke-linejoin:miter;stroke-miterlimit:4;stroke-opacity:1;display:inline" />
        <path
           id="path3283"
           d="M 202.73093,226.18048 C 187.23388,230.28844 171.74206,234.41605 156.25337,238.55541 C 168.65774,281.75139 188.85466,324.80921 184.50256,370.76673 C 183.05762,383.48831 179.28529,398.32353 167.324,405.06024 C 153.26906,409.6828 140.76782,398.04525 129.91258,390.81982 C 109.50405,376.32591 90.887369,355.73935 65.016102,352.093 C 40.780689,351.88198 21.399756,370.21436 9.2799817,389.50685 C -0.28097507,402.42676 -3.6024058,421.84561 6.768044,435.3136 C 24.810911,463.23751 55.845722,479.06611 85.375882,492.60729 C 155.07936,521.94743 232.22198,527.30124 307.10526,525.82376 C 362.61071,523.96041 419.32793,517.52605 470.68472,495.5022 C 503.57538,480.34763 533.84498,454.56928 544.62741,418.95758 C 550.84939,392.79027 546.45877,363.83899 532.27305,341.08599 C 524.70128,330.81026 511.17203,327.91476 498.99754,328.8065 C 432.61093,329.43128 376.24996,374.14813 310.4787,377.66997 C 284.46772,380.47149 260.58343,363.95195 246.44083,343.53553 C 226.16816,314.18543 218.82675,278.33148 209.34758,244.35481 C 207.10545,238.63853 206.87842,231.25013 203.81254,226.27592 C 203.52926,226.01216 203.06567,226.09968 202.73093,226.18048 z "
           style="opacity:0.06666703;fill:black;fill-opacity:1;fill-rule:evenodd;stroke:black;stroke-width:2.03597808;stroke-linecap:butt;stroke-linejoin:miter;stroke-miterlimit:4;stroke-opacity:1;display:inline" />
        <path
           id="path3288"
           d="M 202.63549,225.83055 C 187.02186,229.97057 171.41237,234.12614 155.808,238.30091 C 168.25404,281.91346 188.82639,325.27437 184.01081,371.74694 C 182.51503,384.0222 178.67686,398.21504 167.19675,404.7103 C 153.22146,409.31554 140.85234,397.56987 130.1418,390.55633 C 109.74812,376.02453 91.171481,355.52827 65.270934,351.74878 C 41.633723,351.34973 22.495178,368.68338 10.278485,387.26743 C 0.87849583,399.72501 -4.0740167,417.71364 4.2230715,432.10057 C 21.765132,461.60469 53.552868,478.42982 83.899167,492.34565 C 154.31993,522.41348 232.3974,527.71136 308.15461,526.14342 C 363.97508,524.20031 420.98062,517.64147 472.49801,495.08864 C 505.08574,479.61449 535.31267,453.44138 545.31604,417.68966 C 551.00327,391.79995 546.64988,363.35331 532.52755,340.86331 C 524.91349,330.45208 511.26363,327.55677 498.99754,328.45656 C 450.80767,328.81316 407.60739,352.74663 362.68732,366.8806 C 340.39536,373.68388 316.62752,379.84763 293.10228,376.39671 C 264.73849,370.12949 244.50226,345.55536 233.53352,319.7035 C 220.30697,289.8724 213.7418,257.58082 204.79872,226.33954 C 204.11086,226.00355 203.42503,225.56728 202.63549,225.83055 z "
           style="opacity:0.06666703;fill:black;fill-opacity:1;fill-rule:evenodd;stroke:black;stroke-width:2.03597808;stroke-linecap:butt;stroke-linejoin:miter;stroke-miterlimit:4;stroke-opacity:1;display:inline" />
        <path
           id="path3293"
           d="M 202.54005,225.48061 C 186.79857,229.65018 171.06565,233.8519 155.33081,238.04642 C 167.74333,281.36344 187.99456,324.4032 183.81994,370.25177 C 182.44181,382.86385 178.84398,397.60331 167.0695,404.36037 C 153.70965,408.85483 141.53528,397.69832 131.15357,390.8402 C 110.35073,376.19296 91.489321,355.04846 65.016102,351.36132 C 40.974041,351.11772 21.44957,369.09095 9.2175801,388.23161 C -0.46650269,401.22184 -4.4587436,420.22206 5.1956866,434.35105 C 23.03651,462.73625 54.038406,478.99864 83.740106,492.69558 C 151.49059,521.68605 226.73343,527.53228 299.75772,526.74932 C 357.80639,525.23325 417.23846,519.18114 471.00284,496.17025 C 504.07285,480.93401 534.54373,454.89788 545.35909,419.11664 C 551.54811,392.78733 547.24366,363.63706 532.84567,340.67243 C 525.15141,330.15515 511.40198,327.19729 498.99754,328.07482 C 434.6249,328.71543 379.86709,370.48529 316.55482,376.55654 C 301.11756,378.56255 285.00841,376.04959 271.99741,367.29527 C 245.40394,350.52525 232.31807,320.01289 223.2103,291.20328 C 216.45022,269.7921 211.21272,247.70828 205.08503,226.08505 C 204.26227,225.71685 203.47495,225.10082 202.54005,225.48061 z "
           style="opacity:0.06666703;fill:black;fill-opacity:1;fill-rule:evenodd;stroke:black;stroke-width:2.03597808;stroke-linecap:butt;stroke-linejoin:miter;stroke-miterlimit:4;stroke-opacity:1;display:inline" />
        <path
           id="path3298"
           d="M 202.44462,225.13068 C 186.58656,229.33232 170.73596,233.56197 154.88544,237.79192 C 167.38628,281.79027 188.26237,325.39477 183.23007,372.19828 C 181.72545,383.99881 177.9369,397.75981 166.97406,404.01044 C 153.57105,408.40383 141.70541,397.35054 131.37626,390.52208 C 110.51023,375.87039 91.68101,354.79683 65.302746,351.0171 C 40.651349,350.57943 20.702252,369.23509 8.3574291,388.90242 C -1.4379765,402.24152 -4.7626138,422.07008 5.8773037,435.94984 C 23.574681,463.41432 53.846877,479.17899 82.681077,492.60372 C 152.45758,522.70103 229.89883,528.25354 305.102,526.96595 C 361.479,525.21212 418.92894,518.85447 471.1619,496.48837 C 504.44775,481.18801 535.65337,454.4997 545.94296,418.18952 C 551.82593,391.96649 547.38267,363.15588 533.13198,340.41794 C 525.54824,330.1595 512.05626,326.83573 499.79284,327.72488 C 435.88974,327.92368 381.22863,369.18054 318.59628,375.99396 C 303.51696,378.01904 287.58262,376.58229 274.46342,368.37233 C 250.47971,354.31316 236.64528,328.86556 227.7984,303.51443 C 218.62938,278.22539 212.82411,251.71183 205.37134,225.83055 C 204.47469,225.32441 203.49537,224.76099 202.44462,225.13068 z "
           style="opacity:0.06666703;fill:black;fill-opacity:1;fill-rule:evenodd;stroke:black;stroke-width:2.03597808;stroke-linecap:butt;stroke-linejoin:miter;stroke-miterlimit:4;stroke-opacity:1;display:inline" />
      </g>
      <path
         id="path9600"
         d="M 207.40833,243.57693 C 192.656,247.43156 177.93835,251.40267 163.20914,255.34372 C 174.66232,294.74801 192.23506,333.77942 191.17041,375.52534 C 190.60603,390.94155 187.75913,408.82383 174.60481,418.47597 C 161.35529,424.86087 147.89396,414.33865 137.50514,407.03703 C 116.70239,392.85376 98.737499,372.17127 73.063153,367.32865 C 47.174786,366.40713 27.23735,387.52527 15.320209,408.38494 C 8.4290915,420.0822 7.3143532,435.62943 15.82992,446.81827 C 31.461838,471.38742 57.728708,485.72895 83.03849,498.42289 C 149.29373,529.09291 223.68467,535.627 295.98848,535.40575 C 351.93793,534.48524 408.89336,529.02301 461.3899,508.96736 C 496.16666,494.95557 529.39944,468.93913 541.08682,432.17354 C 547.15614,408.43499 543.49904,382.14947 532.2397,360.40701 C 527.12788,350.22226 516.3371,344.41825 505.07939,344.59651 C 466.62807,342.63841 430.68931,357.92668 395.3558,371.19981 C 364.9388,382.52266 333.57996,394.07468 300.61258,392.39229 C 270.60108,388.65275 248.08126,363.21374 236.49034,336.62117 C 223.11,307.4586 216.78758,275.60889 207.88163,245.03412 C 207.71585,244.64627 207.86322,243.47111 207.40833,243.57693 z "
         style="opacity:1;fill:url(#linearGradient3377);fill-opacity:1;fill-rule:evenodd;stroke:none;stroke-width:1px;stroke-linecap:butt;stroke-linejoin:miter;stroke-opacity:1;display:inline" />
      <g
         transform="matrix(1.165751,0,0,1.165751,-20.25901,23.54148)"
         id="g9602">
        <path
           id="path9604"
           d="M 165.71875,203.34375 C 174.09331,230.41386 183.75362,257.47941 187.875,285.5 C 188.40773,303.68132 188.37187,324.10277 176.78125,339.125 C 169.3322,348.7552 154.90018,349.16636 145.1875,342.8125 C 123.81975,331.49532 107.39641,312.03327 85.03125,302.4375 C 69.688947,297.70839 55.207971,308.70064 45.53125,319.59375 C 38.903043,327.77226 32.349011,337.39223 31.84375,348.21875 C 34.658671,363.09634 47.467006,373.63891 58.84375,382.65625 C 96.801476,409.89787 143.18399,421.74494 188.8125,428.15625 C 241.73313,434.73039 295.81626,434.19491 348.59948,426.58779 C 385.95107,420.40906 425.20923,410.39635 453.25,383.65625 C 463.46531,373.18976 472.05691,360.6605 476.25,346.625 C 479.50708,328.12165 477.01497,307.93628 468.0625,291.40625 C 462.09243,280.10896 447.67235,281.31699 436.8125,282.03125 C 408.52218,284.36965 381.95268,295.40249 355.8125,305.625 C 329.51768,314.86723 302.13805,324.86344 273.8125,322.71875 C 246.72974,319.39084 226.7186,296.93168 215.25,273.75 C 204.35499,249.11263 197.89571,222.65989 190.75,196.6875 C 182.40625,198.90625 174.0625,201.125 165.71875,203.34375 z "
           style="opacity:0.09090899;fill:#969696;fill-opacity:1;fill-rule:evenodd;stroke:none;stroke-width:1px;stroke-linecap:butt;stroke-linejoin:miter;stroke-opacity:1;display:inline" />
        <path
           id="path9609"
           d="M 165.0625,203 C 173.51372,230.20735 183.19661,257.31029 187.375,285.53125 C 187.90896,303.61739 187.89013,323.88287 176.375,338.84375 C 169.02645,348.2782 154.93617,348.57989 145.40625,342.375 C 124.07827,331.02004 107.56658,311.53814 85.1875,301.96875 C 69.730022,297.08676 54.803426,308.3327 45.15625,319.25 C 38.371314,327.70839 31.384867,337.7825 31.375,348.9375 C 35.272583,365.22564 49.639333,376.41665 62.53125,385.9375 C 104.65602,414.0868 155.65362,425.40104 205.5,430.5625 C 257.22664,435.10439 309.76375,434.06218 360.90625,425 C 395.52161,418.13806 431.75766,407.13162 456.625,380.875 C 465.32419,370.97975 473.16812,359.37932 476.71875,346.71875 C 479.99226,328.39416 477.56837,308.66497 469.03125,292.125 C 463.97537,280.75398 450.16589,280.59611 439.46875,281.3125 C 409.81682,283.24871 382.15671,294.79855 354.71806,305.50238 C 328.81179,314.54829 301.75662,324.35228 273.84375,322.21875 C 246.9247,318.85259 227.15152,296.64707 215.71875,273.53125 C 204.74003,248.78518 198.29855,222.16522 191.09375,196.0625 C 182.41667,198.375 173.73958,200.6875 165.0625,203 z "
           style="opacity:0.09090899;fill:#969696;fill-opacity:1;fill-rule:evenodd;stroke:none;stroke-width:1px;stroke-linecap:butt;stroke-linejoin:miter;stroke-opacity:1;display:inline" />
        <path
           id="path9614"
           d="M 164.4375,202.65625 C 172.94418,229.97913 182.63006,257.21365 186.875,285.5625 C 187.38313,303.50207 187.43863,323.68145 175.96875,338.5 C 168.83623,347.77035 154.98433,348.03215 145.65625,341.9375 C 124.24837,330.51632 107.82967,311.12034 85.375,301.5 C 70.858901,296.7362 56.295595,306.62639 46.692682,316.82481 C 38.949013,325.57996 31.369967,336.39937 30.84375,348.28125 C 33.714196,363.62002 46.724954,374.36235 58.25,383.4375 C 97.155267,411.39013 145.03025,423.3277 191.96875,429.5625 C 245.93711,435.85681 300.96328,435.09322 354.59413,426.64993 C 390.42697,420.15326 427.98109,409.78563 454.63757,383.66093 C 464.52169,373.46552 472.50133,361.40338 477,347.90625 C 480.64282,329.18155 478.20135,308.84042 469.46875,291.875 C 464.77383,281.26411 452.26532,280.10268 442.125,280.6875 C 411.45165,282.01073 382.80475,294.03617 354.53167,305.03661 C 328.67586,314.045 301.67574,323.9056 273.84375,321.6875 C 245.97192,318.18921 225.8309,294.38092 214.71875,270.21875 C 204.7755,246.10074 198.28486,220.63122 191.4375,195.4375 C 182.4375,197.84375 173.4375,200.25 164.4375,202.65625 z "
           style="opacity:0.09090899;fill:#969696;fill-opacity:1;fill-rule:evenodd;stroke:none;stroke-width:1px;stroke-linecap:butt;stroke-linejoin:miter;stroke-opacity:1;display:inline" />
        <path
           id="path9619"
           d="M 163.78125,202.3125 C 172.37396,229.7042 182.08897,257.13324 186.375,285.59375 C 186.89736,303.40219 186.92129,323.51457 175.59375,338.1875 C 168.27164,347.69944 154.08226,347.29566 144.78125,340.90625 C 123.53286,329.2572 107.22752,309.8031 84.59375,300.71875 C 68.55689,296.37995 53.339659,308.12228 43.59375,319.5625 C 37.042156,328.00683 30.290409,337.92201 30.40625,349.03125 C 34.267877,365.73355 48.831562,377.02476 61.9375,386.75 C 105.56371,415.83848 158.31399,427.07804 209.87111,431.96315 C 262.01975,436.07101 315.03729,434.84074 366.4375,424.9375 C 401.05096,417.52833 437.35451,405.4811 460.81988,377.60034 C 470.38948,365.18576 479.5642,350.8786 479.125,334.625 C 478.99797,317.82379 476.72453,299.47354 465.90625,286.09375 C 456.95754,277.93643 443.53817,280.17552 432.4375,280.96875 C 403.99329,284.05272 377.70381,295.75334 351.15343,305.74655 C 325.92893,314.31579 299.53405,323.7996 272.46875,321 C 245.02272,316.74145 225.51114,292.95637 214.65625,268.90625 C 205.06802,244.87384 198.50142,219.8107 191.78125,194.84375 C 182.44792,197.33333 173.11458,199.82292 163.78125,202.3125 z "
           style="opacity:0.09090899;fill:#969696;fill-opacity:1;fill-rule:evenodd;stroke:none;stroke-width:1px;stroke-linecap:butt;stroke-linejoin:miter;stroke-opacity:1;display:inline" />
        <path
           id="path9624"
           d="M 163.125,201.96875 C 171.17348,226.8167 179.28392,251.7455 184.61341,277.31046 C 187.09938,290.22274 186.3979,303.62169 184.25,316.53125 C 182.1557,327.15273 177.78795,339.42185 167.03125,343.8125 C 158.55871,347.32581 149.50895,343.40972 142.25773,338.90071 C 124.05897,327.84869 108.84776,312.2403 89.90625,302.3125 C 82.107979,297.96002 72.248048,298.43716 64.34375,302.4375 C 49.988231,309.35018 38.972772,321.94626 32.625,336.40625 C 30.215695,341.80369 28.569405,348.08632 31.081812,353.68691 C 36.533141,367.22871 47.985574,377.04272 59.371037,385.51568 C 87.749131,405.5941 121.46282,417.03568 155.23882,424.38637 C 207.94891,435.53441 262.33902,436.57504 315.90292,432.4497 C 351.29732,429.34969 387.11398,423.47785 419.5625,408.65625 C 440.77011,398.88776 460.08291,383.9815 471.15625,363.1875 C 475.13104,356.43137 478.60501,349.27408 479.15528,341.35147 C 480.66126,325.04861 478.42181,308.14371 471.40625,293.3125 C 468.51492,287.03227 463.25502,281.53259 456.1875,280.59375 C 439.70243,277.78557 422.90335,281.70213 406.93845,285.40601 C 384.37042,291.0065 363.48301,301.54441 341.40109,308.62816 C 320.61744,315.40327 299.08927,321.94728 276.96875,321 C 256.26765,319.71157 238.5768,305.94524 227.05858,289.47197 C 217.2087,276.34301 211.60003,260.86079 206.75222,245.33682 C 201.37869,228.44742 196.65489,211.36053 192.15625,194.21875 C 182.47917,196.80208 172.80208,199.38542 163.125,201.96875 z "
           style="opacity:0.09090899;fill:#969696;fill-opacity:1;fill-rule:evenodd;stroke:none;stroke-width:1px;stroke-linecap:butt;stroke-linejoin:miter;stroke-opacity:1;display:inline" />
        <path
           id="path9629"
           d="M 265.5,435.13702 C 443.04036,433.86139 465.51462,374.21182 475.5,356.13702 C 485.375,338.26202 478.59919,293.20866 464,283.13702 C 449.63845,273.22932 405.625,283.63702 382.5,292.63702 C 359.10199,301.74327 312.875,321.26202 280,320.63702 C 247.625,320.01202 227.375,292.38702 217.5,272.63702 C 207.72295,253.08293 192.5,193.63702 192.5,193.63702 L 162.5,201.63702 C 162.5,201.63702 184.75,268.01202 185.5,287.63702 C 186.8281,322.38884 178,345.51202 158.5,344.63702 C 139.49898,343.78441 104.90685,305.16519 83.863961,299.46545 C 62.857969,293.77569 35.170077,320.03262 29.571068,344.18727 C 24.088202,367.84087 91.9639,436.38388 265.5,435.13702 z "
           style="opacity:0.09090899;fill:#969696;fill-opacity:1;fill-rule:evenodd;stroke:none;stroke-width:1px;stroke-linecap:butt;stroke-linejoin:miter;stroke-opacity:1;display:inline" />
        <path
           id="path9632"
           d="M 192.375,193.15625 C 182.19657,195.85921 172.02873,198.60439 161.84375,201.28125 C 170.10929,226.70897 178.48383,252.21604 183.78125,278.40625 C 186.02951,290.65739 185.35977,303.3438 183.38256,315.58627 C 181.51361,325.6588 177.76538,337.19225 168.125,342.25 C 160.44877,346.22431 151.52646,343.3486 144.59459,339.10811 C 125.23493,327.87133 109.36101,310.90868 89.21875,300.90625 C 79.797102,295.96755 68.425487,298.37787 59.71875,303.6875 C 44.941945,312.69692 33.432517,327.29249 29.0625,344.09375 C 27.595657,353.26152 33.455654,361.58983 38.912534,368.35395 C 55.453091,387.42756 78.387786,399.69473 101.50948,409.28328 C 151.69725,429.22337 206.23851,435.42885 259.9375,435.65625 C 302.89281,435.45659 346.38844,432.80506 387.91029,421.24156 C 414.69291,413.6266 441.61189,401.8032 460.26412,380.55892 C 467.61723,372.1572 473.34151,362.33041 477.78754,352.15216 C 482.34764,337.92034 480.95773,322.3491 477.69669,307.9511 C 475.11276,298.59351 471.89981,288.01337 463.5625,282.25 C 453.73969,277.12132 441.97278,278.5385 431.28965,279.59809 C 409.02848,282.46611 387.63349,289.58721 366.96875,298.1875 C 341.25757,308.00944 315.04532,317.73552 287.40708,319.9663 C 271.89471,321.46814 256.1471,316.52324 244.23225,306.50306 C 227.83043,293.07034 216.86269,273.7379 210.51278,253.55008 C 203.76869,233.62757 198.18255,213.33764 192.84375,193 L 192.375,193.15625 z "
           style="opacity:0.09090899;fill:#969696;fill-opacity:1;fill-rule:evenodd;stroke:none;stroke-width:1px;stroke-linecap:butt;stroke-linejoin:miter;stroke-opacity:1;display:inline" />
        <path
           id="path9637"
           d="M 192.25,192.65625 C 181.90683,195.41882 171.55928,198.16514 161.21875,200.9375 C 169.98166,228.83458 179.96884,256.79255 184.375,285.78125 C 184.82521,303.3741 185.04249,323.13127 173.53125,337.53125 C 166.21517,346.23204 153.2041,344.47773 144.5625,338.53125 C 124.21373,326.84055 108.02877,308.33146 86.1875,299.15625 C 71.110361,293.94855 55.664794,303.89757 45.5625,314.375 C 37.112916,323.5954 29.226251,335.01401 28.28125,347.90625 C 30.58951,363.70968 43.727527,375.01518 55.46875,384.5 C 94.868588,413.41733 143.8429,425.66081 191.65625,432.0625 C 245.54592,438.31859 300.38764,437.60135 354.01614,429.29558 C 391.03667,422.66455 430.17202,411.89492 457.3125,384.5 C 466.93946,374.2138 475.16467,361.94992 479.40625,348.5 C 483.28258,329.16878 480.6385,308.12784 471.65625,290.625 C 467.43966,281.27348 456.84244,277.8795 447.21875,278.125 C 414.78087,278.13796 384.3062,290.64866 354.625,302.34375 C 328.81139,311.37756 301.96488,321.28463 274.15625,319.21875 C 247.16464,315.75891 227.82158,292.61607 217,269.21875 C 206.81874,244.37788 200.24239,218.30478 193.21875,192.40625 L 192.25047,192.65613 L 192.25,192.65625 z "
           style="opacity:0.09090899;fill:#969696;fill-opacity:1;fill-rule:evenodd;stroke:none;stroke-width:1px;stroke-linecap:butt;stroke-linejoin:miter;stroke-opacity:1;display:inline" />
        <path
           id="path9642"
           d="M 192.125,192.1875 C 181.60323,194.98603 171.08857,197.81156 160.5625,200.59375 C 169.40915,228.67827 179.46812,256.74378 183.875,285.84375 C 184.33674,303.05967 184.51718,322.23136 173.6875,336.59375 C 166.9476,345.28079 154.31971,344.37463 145.9375,338.71875 C 125.05291,327.09932 108.55943,307.95705 86.375,298.6875 C 71.559627,293.51708 56.297703,302.90265 46.09375,313.09375 C 37.174201,322.46816 29.234344,334.00283 27.78125,347.15625 C 29.073656,361.88219 40.991541,372.91918 51.46875,381.9375 C 84.825358,408.40161 126.71173,421.21376 168.12334,428.95505 C 225.48052,438.93774 284.48809,438.74684 342.20849,431.60715 C 380.74548,425.87417 421.3369,416.34677 451.53125,390.6875 C 464.05952,379.71946 473.99763,365.39726 479.59375,349.75 C 483.9987,330.37365 481.22732,309.13181 472.65625,291.34375 C 468.90062,282.87683 460.23741,278.00569 451.16204,277.83002 C 420.12342,276.59193 390.26884,287.59655 361.9328,299.05984 C 334.66654,309.03845 306.58562,319.81458 277.09375,319 C 251.41363,317.31713 231.59457,296.52703 220.32223,274.79907 C 208.85263,251.1853 202.97984,225.16559 195.70143,199.91229 C 194.36263,198.13971 195.08038,190.80108 192.125,192.1875 z "
           style="opacity:0.09090899;fill:#969696;fill-opacity:1;fill-rule:evenodd;stroke:none;stroke-width:1px;stroke-linecap:butt;stroke-linejoin:miter;stroke-opacity:1;display:inline" />
        <path
           id="path9647"
           d="M 192,191.6875 C 181.31361,194.54578 170.61862,197.37219 159.9375,200.25 C 168.83415,228.48879 178.90722,256.58114 183.375,285.875 C 183.85221,302.68552 183.98964,321.31763 173.84375,335.5625 C 167.61652,344.55836 154.69349,344.11897 146.42812,338.37699 C 125.1054,326.71086 108.362,306.8361 85.53125,297.84375 C 69.708215,293.27867 54.299043,303.61655 43.9375,314.625 C 35.7466,323.92987 28.050965,335.27024 27.28125,348 C 29.398471,363.476 42.106965,374.8862 53.59375,384.3125 C 90.430043,412.06731 136.51685,424.741 181.71875,431.6875 C 235.4793,439.26778 290.52389,438.85591 344.3125,431.78125 C 382.37366,426.00952 421.95452,416.41845 451.875,391.0625 C 464.4482,380.03451 474.49303,365.58104 480.09375,349.875 C 484.43687,330.77738 481.80058,309.9197 473.625,292.1875 C 470.17035,284.03727 462.42323,278.00851 453.34375,277.5625 C 428.83896,275.64382 404.62153,282.74136 381.75,290.75 C 349.36379,303.18212 316.63415,317.53226 281.53125,318.65625 C 257.71717,319.15251 237.70544,302.36159 225.8125,283.25 C 211.98041,261.35233 206.70983,235.5268 199.24939,211.00951 C 197.38789,204.42316 195.70017,197.79255 193.90625,191.1875 L 192.93897,191.44121 L 192,191.6875 z "
           style="opacity:0.09090899;fill:#969696;fill-opacity:1;fill-rule:evenodd;stroke:none;stroke-width:1px;stroke-linecap:butt;stroke-linejoin:miter;stroke-opacity:1;display:inline" />
        <path
           id="path9652"
           d="M 191.84375,191.21875 C 180.98993,194.11589 170.13333,197.00262 159.28125,199.90625 C 168.27075,228.21278 178.29458,256.44703 182.875,285.8125 C 183.33527,302.77727 183.57629,321.76019 172.90625,335.9375 C 166.547,344.2445 154.26512,343.26208 146.40625,337.8125 C 125.0688,325.98319 108.51952,306.34921 85.6875,297.375 C 69.704132,292.73646 54.024018,303.11946 43.59375,314.28125 C 35.257491,323.69786 27.536834,335.13782 26.78125,348.0625 C 29.061207,364.24911 42.492296,376.0209 54.5625,385.6875 C 92.288002,413.4814 139.03653,425.9162 184.875,432.65625 C 238.67193,439.80365 293.66941,439.27671 347.40625,431.84375 C 385.6709,425.72123 425.73717,415.60892 455,388.90625 C 466.30201,378.1353 475.37488,364.72015 480.5625,350 C 484.96722,330.70975 482.30738,309.82845 474.0625,291.9375 C 470.4019,283.08318 461.78483,277.22501 452.28125,276.9375 C 427.4191,275.4697 402.81404,282.55932 379.73423,291.04882 C 347.86702,303.17117 315.22889,317.44697 280.50024,318.13452 C 255.24111,318.15165 235.02734,299.00133 223.31949,278.16123 C 211.4388,256.66435 206.26702,232.40164 199.18628,208.95653 C 197.48505,202.84284 195.87611,196.70542 194.28125,190.5625 C 193.46875,190.78125 192.65625,191 191.84375,191.21875 z "
           style="opacity:0.09090899;fill:#969696;fill-opacity:1;fill-rule:evenodd;stroke:none;stroke-width:1px;stroke-linecap:butt;stroke-linejoin:miter;stroke-opacity:1;display:inline" />
      </g>
      <path
         id="path12519"
         d="M 283.4375,413.65625 C 159.31481,413.65625 58.5625,444.93299 58.5625,483.46875 C 58.5625,484.1125 58.600386,484.76667 58.65625,485.40625 C 66.605028,490.10872 74.833087,494.35956 82.96875,498.4375 C 149.26366,529.10753 223.7154,535.6275 296.0625,535.40625 C 352.04547,534.48573 409.03452,529.0244 461.5625,508.96875 C 478.16264,502.28445 494.40076,492.85569 508.125,480.84375 C 503.65833,443.52715 404.71895,413.65624 283.4375,413.65625 z "
         style="opacity:1;fill:url(#linearGradient3379);fill-opacity:1;fill-rule:evenodd;stroke:none;stroke-width:1px;stroke-linecap:butt;stroke-linejoin:miter;stroke-opacity:1;display:inline" />
      <path
         id="path12525"
         d="M 207.42667,243.57693 C 192.6655,247.43156 177.93904,251.40267 163.201,255.34372 C 174.66105,294.74801 192.24431,333.77942 191.17902,375.52534 C 190.61431,390.94155 187.76569,408.82383 174.6035,418.47597 C 161.34605,424.86087 147.87666,414.33865 137.48162,407.03703 C 116.66641,392.85376 98.690757,372.17127 73.001038,367.32865 C 47.09717,366.40713 27.147795,387.52527 15.223518,408.38494 C 8.3282738,420.0822 7.2128675,435.62943 15.733534,446.81827 C 31.374812,471.38742 57.657411,485.72895 82.982349,498.42289 C 149.27726,529.09291 223.71275,535.627 296.05985,535.40575 C 352.04281,534.48524 409.03234,529.02301 461.56032,508.96736 C 496.35791,494.95557 529.61059,468.93913 541.30496,432.17354 C 547.37792,408.43499 543.71863,382.14947 532.45254,360.40701 C 527.33767,350.22226 516.54043,344.41825 505.27597,344.59651 C 466.80163,342.63841 430.84135,357.92668 395.48668,371.19981 C 365.05147,382.52266 333.67385,394.07468 300.68672,392.39229 C 270.65726,388.65275 248.12395,363.21374 236.52609,336.62117 C 223.13774,307.4586 216.81153,275.60889 207.90025,245.03412 C 207.73437,244.64627 207.88183,243.47111 207.42667,243.57693 z "
         style="opacity:1;fill:url(#radialGradient3381);fill-opacity:1;fill-rule:evenodd;stroke:#313131;stroke-width:2.5;stroke-linecap:butt;stroke-linejoin:miter;stroke-miterlimit:4;stroke-dasharray:none;stroke-opacity:0.19867548;display:inline" />
      <path
         transform="matrix(0.961664,-0.274231,0.274231,0.961664,112.6341,-62.00285)"
         d="M 50.036369 330.13702 A 68.036369 150 0 1 1  -86.036369,330.13702 A 68.036369 150 0 1 1  50.036369 330.13702 z"
         sodipodi:ry="150"
         sodipodi:rx="68.036369"
         sodipodi:cy="330.13702"
         sodipodi:cx="-18"
         id="path4360"
         style="opacity:0.57232702;color:black;fill:url(#radialGradient3383);fill-opacity:1;fill-rule:evenodd;stroke:none;stroke-width:2;stroke-linecap:butt;stroke-linejoin:miter;marker:none;marker-start:none;marker-mid:none;marker-end:none;stroke-miterlimit:4;stroke-dasharray:none;stroke-dashoffset:0;stroke-opacity:1;visibility:visible;display:inline;overflow:visible"
         sodipodi:type="arc" />
      <path
         sodipodi:nodetypes="cccsccc"
         id="rect12081"
         d="M 121.5631,-96.26351 C 99.136195,-89.87748 76.707876,-83.4964 54.281854,-77.10726 C 91.837675,43.356979 129.40163,163.81912 166.90685,284.29899 C 175.43429,281.87706 181.84279,275.22023 190.37037,272.79831 C 198.89795,270.37638 209.54461,272.18937 218.0631,269.73649 C 186.53683,147.55592 155.03901,25.367563 123.5631,-96.82601 C 122.89643,-96.63851 122.22977,-96.45101 121.5631,-96.26351 z "
         style="fill:url(#linearGradient3385);fill-opacity:1;fill-rule:evenodd;stroke:none;stroke-width:1;stroke-miterlimit:4;stroke-opacity:1" />
      <path
         sodipodi:nodetypes="csszc"
         inkscape:transform-center-x="-37.667455"
         inkscape:transform-center-y="134.33214"
         id="path12583"
         style="fill:url(#radialGradient3387);fill-opacity:1;fill-rule:evenodd;stroke:none;stroke-width:2;stroke-miterlimit:4;stroke-dasharray:none;stroke-opacity:1;display:inline"
         d="M 140.84656,11.952627 C 178.87416,147.56921 199.61725,260.33303 187.17856,263.8209 C 174.73987,267.30878 133.82952,160.19996 95.801928,24.58338 C 57.774898,-111.03116 -2.5736853,-208.65408 49.47001,-227.2846 C 103.9087,-246.77248 102.81954,-123.66192 140.84656,11.952627 z " />
      <path
         sodipodi:nodetypes="cccsccc"
         id="path12549"
         d="M 121.5631,-96.26351 C 99.136195,-89.87748 76.707876,-83.4964 54.281854,-77.10726 C 91.837675,43.356979 129.40163,163.81912 166.90685,284.29899 C 175.43429,281.87706 181.84279,275.92734 190.37037,273.50542 C 198.89795,271.08349 209.54461,272.18937 218.0631,269.73649 C 186.53683,147.55592 155.03901,25.367563 123.5631,-96.82601 C 122.89643,-96.63851 122.22977,-96.45101 121.5631,-96.26351 z "
         style="fill:url(#linearGradient3389);fill-opacity:1;fill-rule:evenodd;stroke:none;stroke-width:1;stroke-miterlimit:4;stroke-opacity:1;display:inline" />
      <path
         id="path4331"
         d="M 61.765323,347.85565 C 47.024575,348.10635 34.281549,355.47893 23.952823,365.66815 C 21.542434,369.70811 20.202823,374.19714 20.202823,378.9494 C 20.202823,396.33922 38.217762,410.44941 60.452823,410.4494 C 82.687884,410.4494 100.70282,396.33921 100.70282,378.9494 C 100.70282,372.13143 97.911883,365.85394 93.202823,360.6994 C 84.363786,354.74406 74.945798,349.91789 64.171573,347.8869 C 63.362077,347.8581 62.563126,347.84208 61.765323,347.85565 z "
         style="opacity:0.43396229;color:black;fill:url(#radialGradient3391);fill-opacity:1;fill-rule:evenodd;stroke:none;stroke-width:2;stroke-linecap:butt;stroke-linejoin:miter;marker:none;marker-start:none;marker-mid:none;marker-end:none;stroke-miterlimit:4;stroke-dasharray:none;stroke-dashoffset:0;stroke-opacity:1;visibility:visible;display:inline;overflow:visible" />
    </g>
  </g>
  <g
     inkscape:groupmode="layer"
     id="layer5"
     style="display:inline" />
</svg>
