# Exported from Wings 3D 1.4.1
mtllib jump.mtl
o cylinder1
#128 vertices, 128 faces
v 1.00000000 1.00000000 3.6768006e-17
v 0.99518473 1.00000000 9.8017140e-2
v 0.98078528 1.00000000 0.19509032
v 0.95694034 1.00000000 0.29028468
v 0.92387953 1.00000000 0.38268343
v 0.88192126 1.00000000 0.47139674
v 0.83146961 1.00000000 0.55557023
v 0.77301045 1.00000000 0.63439328
v 0.70710678 1.00000000 0.70710678
v 0.63439328 1.00000000 0.77301045
v 0.55557023 1.00000000 0.83146961
v 0.47139674 1.00000000 0.88192126
v 0.38268343 1.00000000 0.92387953
v 0.29028468 1.00000000 0.95694034
v 0.19509032 1.00000000 0.98078528
v 9.8017140e-2 1.00000000 0.99518473
v 9.5926809e-17 1.00000000 1.00000000
v -9.8017140e-2 1.00000000 0.99518473
v -0.19509032 1.00000000 0.98078528
v -0.29028468 1.00000000 0.95694034
v -0.38268343 1.00000000 0.92387953
v -0.47139674 1.00000000 0.88192126
v -0.55557023 1.00000000 0.83146961
v -0.63439328 1.00000000 0.77301045
v -0.70710678 1.00000000 0.70710678
v -0.77301045 1.00000000 0.63439328
v -0.83146961 1.00000000 0.55557023
v -0.88192126 1.00000000 0.47139674
v -0.92387953 1.00000000 0.38268343
v -0.95694034 1.00000000 0.29028468
v -0.98078528 1.00000000 0.19509032
v -0.99518473 1.00000000 9.8017140e-2
v -1.00000000 1.00000000 1.5923269e-16
v -0.99518473 1.00000000 -9.8017140e-2
v -0.98078528 1.00000000 -0.19509032
v -0.95694034 1.00000000 -0.29028468
v -0.92387953 1.00000000 -0.38268343
v -0.88192126 1.00000000 -0.47139674
v -0.83146961 1.00000000 -0.55557023
v -0.77301045 1.00000000 -0.63439328
v -0.70710678 1.00000000 -0.70710678
v -0.63439328 1.00000000 -0.77301045
v -0.55557023 1.00000000 -0.83146961
v -0.47139674 1.00000000 -0.88192126
v -0.38268343 1.00000000 -0.92387953
v -0.29028468 1.00000000 -0.95694034
v -0.19509032 1.00000000 -0.98078528
v -9.8017140e-2 1.00000000 -0.99518473
v -1.4900255e-16 1.00000000 -1.00000000
v 9.8017140e-2 1.00000000 -0.99518473
v 0.19509032 1.00000000 -0.98078528
v 0.29028468 1.00000000 -0.95694034
v 0.38268343 1.00000000 -0.92387953
v 0.47139674 1.00000000 -0.88192126
v 0.55557023 1.00000000 -0.83146961
v 0.63439328 1.00000000 -0.77301045
v 0.70710678 1.00000000 -0.70710678
v 0.77301045 1.00000000 -0.63439328
v 0.83146961 1.00000000 -0.55557023
v 0.88192126 1.00000000 -0.47139674
v 0.92387953 1.00000000 -0.38268343
v 0.95694034 1.00000000 -0.29028468
v 0.98078528 1.00000000 -0.19509032
v 0.99518473 1.00000000 -9.8017140e-2
v 1.00000000 0.0000000e+0 4.7704896e-17
v 0.99518473 0.0000000e+0 9.8017140e-2
v 0.98078528 0.0000000e+0 0.19509032
v 0.95694034 0.0000000e+0 0.29028468
v 0.92387953 0.0000000e+0 0.38268343
v 0.88192126 0.0000000e+0 0.47139674
v 0.83146961 0.0000000e+0 0.55557023
v 0.77301045 0.0000000e+0 0.63439328
v 0.70710678 0.0000000e+0 0.70710678
v 0.63439328 0.0000000e+0 0.77301045
v 0.55557023 0.0000000e+0 0.83146961
v 0.47139674 0.0000000e+0 0.88192126
v 0.38268343 0.0000000e+0 0.92387953
v 0.29028468 0.0000000e+0 0.95694034
v 0.19509032 0.0000000e+0 0.98078528
v 9.8017140e-2 0.0000000e+0 0.99518473
v 7.8579575e-17 0.0000000e+0 1.00000000
v -9.8017140e-2 0.0000000e+0 0.99518473
v -0.19509032 0.0000000e+0 0.98078528
v -0.29028468 0.0000000e+0 0.95694034
v -0.38268343 0.0000000e+0 0.92387953
v -0.47139674 0.0000000e+0 0.88192126
v -0.55557023 0.0000000e+0 0.83146961
v -0.63439328 0.0000000e+0 0.77301045
v -0.70710678 0.0000000e+0 0.70710678
v -0.77301045 0.0000000e+0 0.63439328
v -0.83146961 0.0000000e+0 0.55557023
v -0.88192126 0.0000000e+0 0.47139674
v -0.92387953 0.0000000e+0 0.38268343
v -0.95694034 0.0000000e+0 0.29028468
v -0.98078528 0.0000000e+0 0.19509032
v -0.99518473 0.0000000e+0 9.8017140e-2
v -1.00000000 0.0000000e+0 1.7016958e-16
v -0.99518473 0.0000000e+0 -9.8017140e-2
v -0.98078528 0.0000000e+0 -0.19509032
v -0.95694034 0.0000000e+0 -0.29028468
v -0.92387953 0.0000000e+0 -0.38268343
v -0.88192126 0.0000000e+0 -0.47139674
v -0.83146961 0.0000000e+0 -0.55557023
v -0.77301045 0.0000000e+0 -0.63439328
v -0.70710678 0.0000000e+0 -0.70710678
v -0.63439328 0.0000000e+0 -0.77301045
v -0.55557023 0.0000000e+0 -0.83146961
v -0.47139674 0.0000000e+0 -0.88192126
v -0.38268343 0.0000000e+0 -0.92387953
v -0.29028468 0.0000000e+0 -0.95694034
v -0.19509032 0.0000000e+0 -0.98078528
v -9.8017140e-2 0.0000000e+0 -0.99518473
v -1.6634979e-16 0.0000000e+0 -1.00000000
v 9.8017140e-2 0.0000000e+0 -0.99518473
v 0.19509032 0.0000000e+0 -0.98078528
v 0.29028468 0.0000000e+0 -0.95694034
v 0.38268343 0.0000000e+0 -0.92387953
v 0.47139674 0.0000000e+0 -0.88192126
v 0.55557023 0.0000000e+0 -0.83146961
v 0.63439328 0.0000000e+0 -0.77301045
v 0.70710678 0.0000000e+0 -0.70710678
v 0.77301045 0.0000000e+0 -0.63439328
v 0.83146961 0.0000000e+0 -0.55557023
v 0.88192126 0.0000000e+0 -0.47139674
v 0.92387953 0.0000000e+0 -0.38268343
v 0.95694034 0.0000000e+0 -0.29028468
v 0.98078528 0.0000000e+0 -0.19509032
v 0.99518473 0.0000000e+0 -9.8017140e-2
vt 0.45000000 1.1268764e-14
vt 0.45000000 1.00000000
vt 0.45156250 1.00000000
vt 0.45156250 2.1593838e-14
vt 0.45312500 6.1062266e-15
vt 0.45312500 1.00000000
vt 0.45468750 1.00000000
vt 0.45468750 2.3536728e-14
vt 0.45625000 9.0483177e-15
vt 0.45625000 1.00000000
vt 0.45781250 1.00000000
vt 0.45781250 1.9872992e-14
vt 0.45937500 9.0483177e-15
vt 0.45937500 1.00000000
vt 0.46093750 1.00000000
vt 0.46093750 2.1482816e-14
vt 0.46250000 5.3290705e-15
vt 0.46250000 1.00000000
vt 0.46406250 2.1205260e-14
vt 0.46406250 1.00000000
vt 0.46562500 7.4384943e-15
vt 0.46562500 1.00000000
vt 0.46718750 2.0428104e-14
vt 0.46718750 1.00000000
vt 0.46875000 9.1593400e-15
vt 0.46875000 1.00000000
vt 0.47031250 1.6597834e-14
vt 0.47031250 1.00000000
vt 0.47187500 8.3266727e-15
vt 0.47187500 1.00000000
vt 0.47343750 1.5376589e-14
vt 0.47343750 1.00000000
vt 0.47500000 1.2156942e-14
vt 0.47500000 1.00000000
vt 0.47656250 1.00000000
vt 0.47656250 1.2601031e-14
vt 0.47812500 9.6589403e-15
vt 0.47812500 1.00000000
vt 0.47968750 1.5987212e-14
vt 0.47968750 1.00000000
vt 0.48125000 7.9936058e-15
vt 0.48125000 1.00000000
vt 0.48281250 1.00000000
vt 0.48281250 1.4821477e-14
vt 0.48437500 1.1268764e-14
vt 0.48437500 1.00000000
vt 0.48593750 1.2712054e-14
vt 0.48593750 1.00000000
vt 0.48750000 7.8270723e-15
vt 0.48750000 1.00000000
vt 0.48906250 1.3489210e-14
vt 0.48906250 1.00000000
vt 0.49062500 7.5495166e-15
vt 0.49062500 1.00000000
vt 0.49218750 1.00000000
vt 0.49218750 1.1546319e-14
vt 0.49375000 1.1879386e-14
vt 0.49375000 1.00000000
vt 0.49531250 1.00000000
vt 0.49531250 7.8270723e-15
vt 0.49687500 9.9364961e-15
vt 0.49687500 1.00000000
vt 0.49843750 1.00000000
vt 0.49843750 1.0380585e-14
vt 0.50000000 8.6042284e-15
vt 0.50000000 1.00000000
vt 0.50156250 6.7723605e-15
vt 0.50156250 1.00000000
vt 0.50312500 1.0991208e-14
vt 0.50312500 1.00000000
vt 0.50468750 4.6074256e-15
vt 0.50468750 1.00000000
vt 0.50625000 7.7160500e-15
vt 0.50625000 1.00000000
vt 0.50781250 6.1062266e-15
vt 0.50781250 1.00000000
vt 0.50937500 6.4948047e-15
vt 0.50937500 1.00000000
vt 0.51093750 5.3290705e-15
vt 0.51093750 1.00000000
vt 0.51250000 1.00000000
vt 0.51250000 8.4376950e-15
vt 0.51406250 3.5527137e-15
vt 0.51406250 1.00000000
vt 0.51562500 1.0713652e-14
vt 0.51562500 1.00000000
vt 0.51718750 1.00000000
vt 0.51718750 2.1094237e-15
vt 0.51875000 1.0047518e-14
vt 0.51875000 1.00000000
vt 0.52031250 1.00000000
vt 0.52031250 3.1641356e-15
vt 0.52187500 1.0491608e-14
vt 0.52187500 1.00000000
vt 0.52343750 1.00000000
vt 0.52343750 5.3290705e-15
vt 0.52500000 1.2712054e-14
vt 0.52500000 1.00000000
vt 0.52656250 1.00000000
vt 0.52656250 3.1641356e-15
vt 0.52812500 1.0214052e-14
vt 0.52812500 1.00000000
vt 0.52968750 1.00000000
vt 0.52968750 3.7192471e-15
vt 0.53125000 9.7699626e-15
vt 0.53125000 1.00000000
vt 0.53281250 1.00000000
vt 0.53281250 4.8849813e-15
vt 0.53437500 1.1546319e-14
vt 0.53437500 1.00000000
vt 0.53593750 1.00000000
vt 0.53593750 3.1641356e-15
vt 0.53750000 8.8817842e-15
vt 0.53750000 1.00000000
vt 0.53906250 1.00000000
vt 0.53906250 1.7763568e-15
vt 0.54062500 1.2156942e-14
vt 0.54062500 1.00000000
vt 0.54218750 1.00000000
vt 0.54218750 0.0000000e+0
vt 0.54375000 1.0713652e-14
vt 0.54375000 1.00000000
vt 0.54531250 1.00000000
vt 0.54531250 1.5543122e-15
vt 0.54687500 1.1879386e-14
vt 0.54687500 1.00000000
vt 0.54843750 1.00000000
vt 0.54843750 3.1641356e-15
vt 0.55000000 1.1268764e-14
vt 0.55000000 1.00000000
vn 1.00000000 -7.4044900e-32 -1.3894524e-17
vn 0.99518473 7.0792658e-17 9.8017140e-2
vn 0.98078528 0.0000000e+0 0.19509032
vn 0.95694034 0.0000000e+0 0.29028468
vn 0.92387953 0.0000000e+0 0.38268343
vn 0.88192126 0.0000000e+0 0.47139674
vn 0.83146961 0.0000000e+0 0.55557023
vn 0.77301045 0.0000000e+0 0.63439328
vn 0.70710678 0.0000000e+0 0.70710678
vn 0.63439328 0.0000000e+0 0.77301045
vn 0.55557023 0.0000000e+0 0.83146961
vn 0.47139674 0.0000000e+0 0.88192126
vn 0.38268343 0.0000000e+0 0.92387953
vn 0.29028468 -4.4245411e-18 0.95694034
vn 0.19509032 -1.3273623e-17 0.98078528
vn 9.8017140e-2 -2.6270713e-18 0.99518473
vn 1.1358774e-15 -2.7653382e-19 1.00000000
vn -9.8017140e-2 2.4888044e-18 0.99518473
vn -0.19509032 4.4245411e-18 0.98078528
vn -0.29028468 0.0000000e+0 0.95694034
vn -0.38268343 0.0000000e+0 0.92387953
vn -0.47139674 0.0000000e+0 0.88192126
vn -0.55557023 0.0000000e+0 0.83146961
vn -0.63439328 0.0000000e+0 0.77301045
vn -0.70710678 0.0000000e+0 0.70710678
vn -0.77301045 0.0000000e+0 0.63439328
vn -0.83146961 0.0000000e+0 0.55557023
vn -0.88192126 0.0000000e+0 0.47139674
vn -0.92387953 0.0000000e+0 0.38268343
vn -0.95694034 0.0000000e+0 0.29028468
vn -0.98078528 0.0000000e+0 0.19509032
vn -0.99518473 -1.4461895e-34 9.8017140e-2
vn -1.00000000 0.0000000e+0 5.6967550e-16
vn -0.99518473 0.0000000e+0 -9.8017140e-2
vn -0.98078528 0.0000000e+0 -0.19509032
vn -0.95694034 0.0000000e+0 -0.29028468
vn -0.92387953 0.0000000e+0 -0.38268343
vn -0.88192126 0.0000000e+0 -0.47139674
vn -0.83146961 0.0000000e+0 -0.55557023
vn -0.77301045 0.0000000e+0 -0.63439328
vn -0.70710678 0.0000000e+0 -0.70710678
vn -0.63439328 0.0000000e+0 -0.77301045
vn -0.55557023 0.0000000e+0 -0.83146961
vn -0.47139674 0.0000000e+0 -0.88192126
vn -0.38268343 0.0000000e+0 -0.92387953
vn -0.29028468 0.0000000e+0 -0.95694034
vn -0.19509032 4.4245411e-18 -0.98078528
vn -9.8017140e-2 2.6270713e-18 -0.99518473
vn 0.0000000e+0 2.7653382e-19 -1.00000000
vn 9.8017140e-2 -2.4888044e-18 -0.99518473
vn 0.19509032 -4.4245411e-18 -0.98078528
vn 0.29028468 0.0000000e+0 -0.95694034
vn 0.38268343 0.0000000e+0 -0.92387953
vn 0.47139674 0.0000000e+0 -0.88192126
vn 0.55557023 0.0000000e+0 -0.83146961
vn 0.63439328 0.0000000e+0 -0.77301045
vn 0.70710678 0.0000000e+0 -0.70710678
vn 0.77301045 0.0000000e+0 -0.63439328
vn 0.83146961 0.0000000e+0 -0.55557023
vn 0.88192126 0.0000000e+0 -0.47139674
vn 0.92387953 0.0000000e+0 -0.38268343
vn 0.95694034 0.0000000e+0 -0.29028468
vn 0.98078528 0.0000000e+0 -0.19509032
vn 0.99518473 -7.0792658e-17 -9.8017140e-2
vn 1.00000000 -3.7022450e-32 -1.3894524e-17
vn 0.99518473 3.8565052e-34 9.8017140e-2
vn 0.98078528 -3.4088600e-19 0.19509032
vn 0.95694034 0.0000000e+0 0.29028468
vn 0.92387953 0.0000000e+0 0.38268343
vn 0.88192126 0.0000000e+0 0.47139674
vn 0.83146961 0.0000000e+0 0.55557023
vn 0.77301045 0.0000000e+0 0.63439328
vn 0.70710678 0.0000000e+0 0.70710678
vn 0.63439328 0.0000000e+0 0.77301045
vn 0.55557023 0.0000000e+0 0.83146961
vn 0.47139674 0.0000000e+0 0.88192126
vn 0.38268343 0.0000000e+0 0.92387953
vn 0.29028468 0.0000000e+0 0.95694034
vn 0.19509032 -6.6368117e-18 0.98078528
vn 9.8017140e-2 -2.7653382e-19 0.99518473
vn 5.7141231e-16 -1.3826691e-19 1.00000000
vn -9.8017140e-2 2.7653382e-19 0.99518473
vn -0.19509032 2.2122706e-18 0.98078528
vn -0.29028468 0.0000000e+0 0.95694034
vn -0.38268343 0.0000000e+0 0.92387953
vn -0.47139674 0.0000000e+0 0.88192126
vn -0.55557023 0.0000000e+0 0.83146961
vn -0.63439328 0.0000000e+0 0.77301045
vn -0.70710678 0.0000000e+0 0.70710678
vn -0.77301045 0.0000000e+0 0.63439328
vn -0.83146961 0.0000000e+0 0.55557023
vn -0.88192126 0.0000000e+0 0.47139674
vn -0.92387953 0.0000000e+0 0.38268343
vn -0.95694034 0.0000000e+0 0.29028468
vn -0.98078528 -3.4088600e-19 0.19509032
vn -0.99518473 -2.8923789e-34 9.8017140e-2
vn -1.00000000 7.7612168e-33 5.6446505e-16
vn -0.99518473 0.0000000e+0 -9.8017140e-2
vn -0.98078528 3.4088600e-19 -0.19509032
vn -0.95694034 0.0000000e+0 -0.29028468
vn -0.92387953 0.0000000e+0 -0.38268343
vn -0.88192126 0.0000000e+0 -0.47139674
vn -0.83146961 0.0000000e+0 -0.55557023
vn -0.77301045 0.0000000e+0 -0.63439328
vn -0.70710678 0.0000000e+0 -0.70710678
vn -0.63439328 0.0000000e+0 -0.77301045
vn -0.55557023 0.0000000e+0 -0.83146961
vn -0.47139674 0.0000000e+0 -0.88192126
vn -0.38268343 0.0000000e+0 -0.92387953
vn -0.29028468 0.0000000e+0 -0.95694034
vn -0.19509032 2.2122706e-18 -0.98078528
vn -9.8017140e-2 2.7653382e-19 -0.99518473
vn 0.0000000e+0 1.3826691e-19 -1.00000000
vn 9.8017140e-2 -2.7653382e-19 -0.99518473
vn 0.19509032 -2.2122706e-18 -0.98078528
vn 0.29028468 0.0000000e+0 -0.95694034
vn 0.38268343 0.0000000e+0 -0.92387953
vn 0.47139674 0.0000000e+0 -0.88192126
vn 0.55557023 0.0000000e+0 -0.83146961
vn 0.63439328 0.0000000e+0 -0.77301045
vn 0.70710678 0.0000000e+0 -0.70710678
vn 0.77301045 0.0000000e+0 -0.63439328
vn 0.83146961 0.0000000e+0 -0.55557023
vn 0.88192126 0.0000000e+0 -0.47139674
vn 0.92387953 0.0000000e+0 -0.38268343
vn 0.95694034 0.0000000e+0 -0.29028468
vn 0.98078528 3.4088600e-19 -0.19509032
vn 0.99518473 -4.2421557e-33 -9.8017140e-2
g cylinder1_geom/jump/jump
usemtl geom/jump/jump
s 1
f 1/34/1 65/33/65 64/35/64
f 2/32/2 65/33/65 1/34/1
f 2/32/2 67/29/67 66/31/66
f 3/30/3 67/29/67 2/32/2
f 4/28/4 67/29/67 3/30/3
f 4/28/4 69/25/69 68/27/68
f 5/26/5 69/25/69 4/28/4
f 6/24/6 69/25/69 5/26/5
f 6/24/6 71/21/71 70/23/70
f 7/22/7 71/21/71 6/24/6
f 8/20/8 71/21/71 7/22/7
f 8/20/8 73/17/73 72/19/72
f 9/18/9 73/17/73 8/20/8
f 10/15/10 73/17/73 9/18/9
f 10/15/10 75/13/75 74/16/74
f 11/14/11 75/13/75 10/15/10
f 12/11/12 75/13/75 11/14/11
f 12/11/12 77/9/77 76/12/76
f 13/10/13 77/9/77 12/11/12
f 14/7/14 77/9/77 13/10/13
f 14/7/14 79/5/79 78/8/78
f 15/6/15 79/5/79 14/7/14
f 16/3/16 79/5/79 15/6/15
f 16/3/16 81/1/81 80/4/80
f 17/2/17 81/1/81 16/3/16
f 18/127/18 81/129/81 17/130/17
f 18/127/18 83/125/83 82/128/82
f 19/126/19 83/125/83 18/127/18
f 20/123/20 83/125/83 19/126/19
f 20/123/20 85/121/85 84/124/84
f 21/122/21 85/121/85 20/123/20
f 22/119/22 85/121/85 21/122/21
f 22/119/22 87/117/87 86/120/86
f 23/118/23 87/117/87 22/119/22
f 24/115/24 87/117/87 23/118/23
f 24/115/24 89/113/89 88/116/88
f 25/114/25 89/113/89 24/115/24
f 26/111/26 89/113/89 25/114/25
f 26/111/26 91/109/91 90/112/90
f 27/110/27 91/109/91 26/111/26
f 28/107/28 91/109/91 27/110/27
f 28/107/28 93/105/93 92/108/92
f 29/106/29 93/105/93 28/107/28
f 30/103/30 93/105/93 29/106/29
f 30/103/30 95/101/95 94/104/94
f 31/102/31 95/101/95 30/103/30
f 32/99/32 95/101/95 31/102/31
f 32/99/32 97/97/97 96/100/96
f 33/98/33 97/97/97 32/99/32
f 34/95/34 97/97/97 33/98/33
f 34/95/34 99/93/99 98/96/98
f 35/94/35 99/93/99 34/95/34
f 36/91/36 99/93/99 35/94/35
f 36/91/36 101/89/101 100/92/100
f 37/90/37 101/89/101 36/91/36
f 38/87/38 101/89/101 37/90/37
f 38/87/38 103/85/103 102/88/102
f 39/86/39 103/85/103 38/87/38
f 40/84/40 103/85/103 39/86/39
f 40/84/40 105/82/105 104/83/104
f 41/81/41 105/82/105 40/84/40
f 42/80/42 105/82/105 41/81/41
f 42/80/42 107/77/107 106/79/106
f 43/78/43 107/77/107 42/80/42
f 44/76/44 107/77/107 43/78/43
f 44/76/44 109/73/109 108/75/108
f 45/74/45 109/73/109 44/76/44
f 46/72/46 109/73/109 45/74/45
f 46/72/46 111/69/111 110/71/110
f 47/70/47 111/69/111 46/72/46
f 48/68/48 111/69/111 47/70/47
f 48/68/48 113/65/113 112/67/112
f 49/66/49 113/65/113 48/68/48
f 50/63/50 113/65/113 49/66/49
f 50/63/50 115/61/115 114/64/114
f 51/62/51 115/61/115 50/63/50
f 52/59/52 115/61/115 51/62/51
f 52/59/52 117/57/117 116/60/116
f 53/58/53 117/57/117 52/59/52
f 54/55/54 117/57/117 53/58/53
f 54/55/54 119/53/119 118/56/118
f 55/54/55 119/53/119 54/55/54
f 56/52/56 119/53/119 55/54/55
f 56/52/56 121/49/121 120/51/120
f 57/50/57 121/49/121 56/52/56
f 58/48/58 121/49/121 57/50/57
f 58/48/58 123/45/123 122/47/122
f 59/46/59 123/45/123 58/48/58
f 60/43/60 123/45/123 59/46/59
f 60/43/60 125/41/125 124/44/124
f 61/42/61 125/41/125 60/43/60
f 62/40/62 125/41/125 61/42/61
f 62/40/62 127/37/127 126/39/126
f 63/38/63 127/37/127 62/40/62
f 64/35/64 65/33/65 128/36/128
f 64/35/64 127/37/127 63/38/63
f 66/31/66 65/33/65 2/32/2
f 68/27/68 67/29/67 4/28/4
f 70/23/70 69/25/69 6/24/6
f 72/19/72 71/21/71 8/20/8
f 74/16/74 73/17/73 10/15/10
f 76/12/76 75/13/75 12/11/12
f 78/8/78 77/9/77 14/7/14
f 80/4/80 79/5/79 16/3/16
f 82/128/82 81/129/81 18/127/18
f 84/124/84 83/125/83 20/123/20
f 86/120/86 85/121/85 22/119/22
f 88/116/88 87/117/87 24/115/24
f 90/112/90 89/113/89 26/111/26
f 92/108/92 91/109/91 28/107/28
f 94/104/94 93/105/93 30/103/30
f 96/100/96 95/101/95 32/99/32
f 98/96/98 97/97/97 34/95/34
f 100/92/100 99/93/99 36/91/36
f 102/88/102 101/89/101 38/87/38
f 104/83/104 103/85/103 40/84/40
f 106/79/106 105/82/105 42/80/42
f 108/75/108 107/77/107 44/76/44
f 110/71/110 109/73/109 46/72/46
f 112/67/112 111/69/111 48/68/48
f 114/64/114 113/65/113 50/63/50
f 116/60/116 115/61/115 52/59/52
f 118/56/118 117/57/117 54/55/54
f 120/51/120 119/53/119 56/52/56
f 122/47/122 121/49/121 58/48/58
f 124/44/124 123/45/123 60/43/60
f 126/39/126 125/41/125 62/40/62
f 128/36/128 127/37/127 64/35/64
